{"glyphs":{"0":{"ha":694,"x_min":0,"x_max":521,"o":"m 0 174 l 0 1042 l 174 1042 l 174 694 l 347 694 l 347 1042 l 521 1042 l 521 174 l 347 174 l 347 521 l 174 521 l 174 174 l 0 174 m 174 0 l 174 174 l 347 174 l 347 0 l 174 0 m 174 1042 l 174 1215 l 347 1215 l 347 1042 l 174 1042 z "},"1":{"ha":694,"x_min":0,"x_max":521,"o":"m 0 0 l 0 174 l 174 174 l 174 868 l 0 868 l 0 1042 l 174 1042 l 174 1215 l 347 1215 l 347 174 l 521 174 l 521 0 l 0 0 z "},"2":{"ha":694,"x_min":0,"x_max":521,"o":"m 0 0 l 0 347 l 174 347 l 174 174 l 521 174 l 521 0 l 0 0 m 0 868 l 0 1042 l 174 1042 l 174 868 l 0 868 m 174 347 l 174 694 l 347 694 l 347 1042 l 521 1042 l 521 694 l 347 694 l 347 347 l 174 347 m 174 1042 l 174 1215 l 347 1215 l 347 1042 l 174 1042 z "},"3":{"ha":694,"x_min":0,"x_max":521,"o":"m 0 174 l 0 347 l 174 347 l 174 174 l 0 174 m 0 868 l 0 1042 l 174 1042 l 174 868 l 0 868 m 174 0 l 174 174 l 347 174 l 347 0 l 174 0 m 174 521 l 174 694 l 347 694 l 347 1042 l 521 1042 l 521 694 l 347 694 l 347 521 l 174 521 m 174 1042 l 174 1215 l 347 1215 l 347 1042 l 174 1042 m 347 174 l 347 521 l 521 521 l 521 174 l 347 174 z "},"4":{"ha":694,"x_min":0,"x_max":521,"o":"m 0 347 l 0 868 l 174 868 l 174 1042 l 347 1042 l 347 1215 l 521 1215 l 521 0 l 347 0 l 347 347 l 0 347 m 174 521 l 347 521 l 347 868 l 174 868 l 174 521 z "},"5":{"ha":694,"x_min":0,"x_max":521,"o":"m 0 174 l 0 347 l 174 347 l 174 174 l 0 174 m 0 521 l 0 1215 l 521 1215 l 521 1042 l 174 1042 l 174 868 l 347 868 l 347 694 l 174 694 l 174 521 l 0 521 m 174 0 l 174 174 l 347 174 l 347 0 l 174 0 m 347 174 l 347 694 l 521 694 l 521 174 l 347 174 z "},"6":{"ha":694,"x_min":0,"x_max":521,"o":"m 0 174 l 0 1042 l 174 1042 l 174 694 l 347 694 l 347 521 l 174 521 l 174 174 l 0 174 m 174 0 l 174 174 l 347 174 l 347 0 l 174 0 m 174 1042 l 174 1215 l 347 1215 l 347 1042 l 174 1042 m 347 174 l 347 521 l 521 521 l 521 174 l 347 174 m 347 868 l 347 1042 l 521 1042 l 521 868 l 347 868 z "},"7":{"ha":694,"x_min":0,"x_max":521,"o":"m 0 868 l 0 1215 l 521 1215 l 521 694 l 347 694 l 347 1042 l 174 1042 l 174 868 l 0 868 m 174 0 l 174 694 l 347 694 l 347 0 l 174 0 z "},"8":{"ha":694,"x_min":0,"x_max":521,"o":"m 0 174 l 0 521 l 174 521 l 174 694 l 347 694 l 347 1042 l 521 1042 l 521 694 l 347 694 l 347 521 l 174 521 l 174 174 l 0 174 m 0 694 l 0 1042 l 174 1042 l 174 694 l 0 694 m 174 0 l 174 174 l 347 174 l 347 0 l 174 0 m 174 1042 l 174 1215 l 347 1215 l 347 1042 l 174 1042 m 347 174 l 347 521 l 521 521 l 521 174 l 347 174 z "},"9":{"ha":694,"x_min":0,"x_max":521,"o":"m 0 174 l 0 347 l 174 347 l 174 174 l 0 174 m 0 694 l 0 1042 l 174 1042 l 174 694 l 0 694 m 174 0 l 174 174 l 347 174 l 347 0 l 174 0 m 174 521 l 174 694 l 347 694 l 347 1042 l 521 1042 l 521 174 l 347 174 l 347 521 l 174 521 m 174 1042 l 174 1215 l 347 1215 l 347 1042 l 174 1042 z "}," ":{"ha":694,"x_min":0,"x_max":0,"o":""},"!":{"ha":694,"x_min":174,"x_max":347,"o":"m 174 0 l 174 174 l 347 174 l 347 0 l 174 0 m 174 347 l 174 1215 l 347 1215 l 347 347 l 174 347 z "},"\"":{"ha":694,"x_min":0,"x_max":521,"o":"m 0 868 l 0 1215 l 174 1215 l 174 868 l 0 868 m 347 868 l 347 1215 l 521 1215 l 521 868 l 347 868 z "},"#":{"ha":694,"x_min":0,"x_max":521,"o":"m 0 0 l 0 1215 l 174 1215 l 174 1042 l 347 1042 l 347 1215 l 521 1215 l 521 0 l 347 0 l 347 174 l 174 174 l 174 0 l 0 0 m 174 347 l 347 347 l 347 868 l 174 868 l 174 347 z "},"$":{"ha":694,"x_min":0,"x_max":521,"o":"m 0 174 l 0 347 l 347 347 l 347 521 l 0 521 l 0 1042 l 174 1042 l 174 1215 l 347 1215 l 347 1042 l 521 1042 l 521 868 l 174 868 l 174 694 l 521 694 l 521 174 l 347 174 l 347 0 l 174 0 l 174 174 l 0 174 z "},"%":{"ha":694,"x_min":0,"x_max":521,"o":"m 0 347 l 0 521 l 174 521 l 174 347 l 0 347 m 0 868 l 0 1042 l 174 1042 l 174 868 l 0 868 m 174 521 l 174 694 l 347 694 l 347 521 l 174 521 m 347 174 l 347 347 l 521 347 l 521 174 l 347 174 m 347 694 l 347 868 l 521 868 l 521 694 l 347 694 z "},"&":{"ha":694,"x_min":0,"x_max":521,"o":"m 0 174 l 0 521 l 174 521 l 174 694 l 347 694 l 347 1042 l 521 1042 l 521 694 l 347 694 l 347 521 l 174 521 l 174 174 l 0 174 m 0 694 l 0 1042 l 174 1042 l 174 694 l 0 694 m 174 0 l 174 174 l 521 174 l 521 0 l 174 0 m 174 1042 l 174 1215 l 347 1215 l 347 1042 l 174 1042 m 347 347 l 347 521 l 521 521 l 521 347 l 347 347 z "},"'":{"ha":694,"x_min":174,"x_max":347,"o":"m 174 868 l 174 1215 l 347 1215 l 347 868 l 174 868 z "},"(":{"ha":694,"x_min":174,"x_max":521,"o":"m 174 174 l 174 1042 l 347 1042 l 347 174 l 174 174 m 347 0 l 347 174 l 521 174 l 521 0 l 347 0 m 347 1042 l 347 1215 l 521 1215 l 521 1042 l 347 1042 z "},")":{"ha":694,"x_min":0,"x_max":347,"o":"m 0 0 l 0 174 l 174 174 l 174 1042 l 347 1042 l 347 174 l 174 174 l 174 0 l 0 0 m 0 1042 l 0 1215 l 174 1215 l 174 1042 l 0 1042 z "},"*":{"ha":694,"x_min":0,"x_max":521,"o":"m 0 174 l 0 347 l 174 347 l 174 521 l 0 521 l 0 694 l 174 694 l 174 868 l 347 868 l 347 694 l 521 694 l 521 521 l 347 521 l 347 347 l 174 347 l 174 174 l 0 174 m 0 868 l 0 1042 l 174 1042 l 174 868 l 0 868 m 347 174 l 347 347 l 521 347 l 521 174 l 347 174 m 347 868 l 347 1042 l 521 1042 l 521 868 l 347 868 z "},"+":{"ha":694,"x_min":0,"x_max":521,"o":"m 0 521 l 0 694 l 174 694 l 174 1042 l 347 1042 l 347 694 l 521 694 l 521 521 l 347 521 l 347 174 l 174 174 l 174 521 l 0 521 z "},",":{"ha":694,"x_min":0,"x_max":347,"o":"m 0 0 l 0 174 l 174 174 l 174 0 l 0 0 m 174 174 l 174 347 l 347 347 l 347 174 l 174 174 z "},"-":{"ha":694,"x_min":0,"x_max":521,"o":"m 0 521 l 0 694 l 521 694 l 521 521 l 0 521 z "},".":{"ha":694,"x_min":174,"x_max":347,"o":"m 174 0 l 174 174 l 347 174 l 347 0 l 174 0 z "},"/":{"ha":694,"x_min":0,"x_max":521,"o":"m 0 347 l 0 521 l 174 521 l 174 347 l 0 347 m 174 521 l 174 694 l 347 694 l 347 521 l 174 521 m 347 694 l 347 868 l 521 868 l 521 694 l 347 694 z "},":":{"ha":694,"x_min":174,"x_max":347,"o":"m 174 174 l 174 347 l 347 347 l 347 174 l 174 174 m 174 694 l 174 868 l 347 868 l 347 694 l 174 694 z "},";":{"ha":694,"x_min":0,"x_max":347,"o":"m 0 0 l 0 174 l 174 174 l 174 0 l 0 0 m 174 174 l 174 347 l 347 347 l 347 174 l 174 174 m 174 694 l 174 868 l 347 868 l 347 694 l 174 694 z "},"<":{"ha":694,"x_min":0,"x_max":521,"o":"m 0 521 l 0 694 l 174 694 l 174 521 l 0 521 m 174 347 l 174 521 l 347 521 l 347 347 l 174 347 m 174 694 l 174 868 l 347 868 l 347 694 l 174 694 m 347 174 l 347 347 l 521 347 l 521 174 l 347 174 m 347 868 l 347 1042 l 521 1042 l 521 868 l 347 868 z "},"=":{"ha":694,"x_min":0,"x_max":521,"o":"m 0 347 l 0 521 l 521 521 l 521 347 l 0 347 m 0 694 l 0 868 l 521 868 l 521 694 l 0 694 z "},">":{"ha":694,"x_min":0,"x_max":521,"o":"m 0 174 l 0 347 l 174 347 l 174 174 l 0 174 m 0 868 l 0 1042 l 174 1042 l 174 868 l 0 868 m 174 347 l 174 521 l 347 521 l 347 694 l 174 694 l 174 868 l 347 868 l 347 694 l 521 694 l 521 521 l 347 521 l 347 347 l 174 347 z "},"?":{"ha":694,"x_min":0,"x_max":521,"o":"m 0 868 l 0 1042 l 174 1042 l 174 868 l 0 868 m 174 0 l 174 174 l 347 174 l 347 0 l 174 0 m 174 347 l 174 694 l 347 694 l 347 1042 l 521 1042 l 521 694 l 347 694 l 347 347 l 174 347 m 174 1042 l 174 1215 l 347 1215 l 347 1042 l 174 1042 z "},"@":{"ha":694,"x_min":0,"x_max":521,"o":"m 0 174 l 0 1042 l 174 1042 l 174 868 l 347 868 l 347 1042 l 521 1042 l 521 521 l 347 521 l 347 347 l 174 347 l 174 174 l 0 174 m 174 0 l 174 174 l 521 174 l 521 0 l 174 0 m 174 521 l 347 521 l 347 694 l 174 694 l 174 521 m 174 1042 l 174 1215 l 347 1215 l 347 1042 l 174 1042 z "},"A":{"ha":694,"x_min":0,"x_max":521,"o":"m 0 0 l 0 1042 l 174 1042 l 174 521 l 347 521 l 347 1042 l 521 1042 l 521 0 l 347 0 l 347 347 l 174 347 l 174 0 l 0 0 m 174 1042 l 174 1215 l 347 1215 l 347 1042 l 174 1042 z "},"B":{"ha":694,"x_min":0,"x_max":521,"o":"m 0 0 l 0 1215 l 347 1215 l 347 1042 l 174 1042 l 174 694 l 347 694 l 347 521 l 174 521 l 174 174 l 347 174 l 347 0 l 0 0 m 347 174 l 347 521 l 521 521 l 521 174 l 347 174 m 347 694 l 347 1042 l 521 1042 l 521 694 l 347 694 z "},"C":{"ha":694,"x_min":0,"x_max":521,"o":"m 0 174 l 0 1042 l 174 1042 l 174 174 l 0 174 m 174 0 l 174 174 l 347 174 l 347 0 l 174 0 m 174 1042 l 174 1215 l 347 1215 l 347 1042 l 174 1042 m 347 174 l 347 347 l 521 347 l 521 174 l 347 174 m 347 868 l 347 1042 l 521 1042 l 521 868 l 347 868 z "},"D":{"ha":694,"x_min":0,"x_max":521,"o":"m 0 0 l 0 1215 l 347 1215 l 347 1042 l 174 1042 l 174 174 l 347 174 l 347 0 l 0 0 m 347 174 l 347 1042 l 521 1042 l 521 174 l 347 174 z "},"E":{"ha":694,"x_min":0,"x_max":521,"o":"m 0 0 l 0 1215 l 521 1215 l 521 1042 l 174 1042 l 174 694 l 347 694 l 347 521 l 174 521 l 174 174 l 521 174 l 521 0 l 0 0 z "},"F":{"ha":694,"x_min":0,"x_max":521,"o":"m 0 0 l 0 1215 l 521 1215 l 521 1042 l 174 1042 l 174 694 l 347 694 l 347 521 l 174 521 l 174 0 l 0 0 z "},"G":{"ha":694,"x_min":0,"x_max":521,"o":"m 0 174 l 0 1042 l 174 1042 l 174 174 l 0 174 m 174 0 l 174 174 l 347 174 l 347 694 l 521 694 l 521 0 l 174 0 m 174 1042 l 174 1215 l 347 1215 l 347 1042 l 174 1042 m 347 868 l 347 1042 l 521 1042 l 521 868 l 347 868 z "},"H":{"ha":694,"x_min":0,"x_max":521,"o":"m 0 0 l 0 1215 l 174 1215 l 174 694 l 347 694 l 347 1215 l 521 1215 l 521 0 l 347 0 l 347 521 l 174 521 l 174 0 l 0 0 z "},"I":{"ha":694,"x_min":0,"x_max":521,"o":"m 0 0 l 0 174 l 174 174 l 174 1042 l 0 1042 l 0 1215 l 521 1215 l 521 1042 l 347 1042 l 347 174 l 521 174 l 521 0 l 0 0 z "},"J":{"ha":694,"x_min":0,"x_max":521,"o":"m 0 174 l 0 347 l 174 347 l 174 174 l 0 174 m 174 0 l 174 174 l 347 174 l 347 0 l 174 0 m 347 174 l 347 1215 l 521 1215 l 521 174 l 347 174 z "},"K":{"ha":694,"x_min":0,"x_max":521,"o":"m 0 0 l 0 1215 l 174 1215 l 174 868 l 347 868 l 347 521 l 174 521 l 174 0 l 0 0 m 347 0 l 347 521 l 521 521 l 521 0 l 347 0 m 347 868 l 347 1215 l 521 1215 l 521 868 l 347 868 z "},"L":{"ha":694,"x_min":0,"x_max":521,"o":"m 0 0 l 0 1215 l 174 1215 l 174 174 l 521 174 l 521 0 l 0 0 z "},"M":{"ha":694,"x_min":0,"x_max":521,"o":"m 0 0 l 0 1215 l 174 1215 l 174 1042 l 347 1042 l 347 1215 l 521 1215 l 521 0 l 347 0 l 347 521 l 174 521 l 174 0 l 0 0 z "},"N":{"ha":694,"x_min":0,"x_max":521,"o":"m 0 0 l 0 1215 l 347 1215 l 347 1042 l 174 1042 l 174 0 l 0 0 m 347 0 l 347 1042 l 521 1042 l 521 0 l 347 0 z "},"O":{"ha":694,"x_min":0,"x_max":521,"o":"m 0 174 l 0 1042 l 174 1042 l 174 174 l 0 174 m 174 0 l 174 174 l 347 174 l 347 0 l 174 0 m 174 1042 l 174 1215 l 347 1215 l 347 1042 l 174 1042 m 347 174 l 347 1042 l 521 1042 l 521 174 l 347 174 z "},"P":{"ha":694,"x_min":0,"x_max":521,"o":"m 0 0 l 0 1215 l 347 1215 l 347 1042 l 174 1042 l 174 694 l 347 694 l 347 521 l 174 521 l 174 0 l 0 0 m 347 694 l 347 1042 l 521 1042 l 521 694 l 347 694 z "},"Q":{"ha":694,"x_min":0,"x_max":521,"o":"m 0 174 l 0 1042 l 174 1042 l 174 521 l 347 521 l 347 1042 l 521 1042 l 521 0 l 174 0 l 174 174 l 0 174 m 174 174 l 347 174 l 347 347 l 174 347 l 174 174 m 174 1042 l 174 1215 l 347 1215 l 347 1042 l 174 1042 z "},"R":{"ha":694,"x_min":0,"x_max":521,"o":"m 0 0 l 0 1215 l 347 1215 l 347 1042 l 174 1042 l 174 694 l 347 694 l 347 521 l 174 521 l 174 0 l 0 0 m 347 0 l 347 521 l 521 521 l 521 0 l 347 0 m 347 694 l 347 1042 l 521 1042 l 521 694 l 347 694 z "},"S":{"ha":694,"x_min":0,"x_max":521,"o":"m 0 174 l 0 347 l 174 347 l 174 174 l 0 174 m 0 694 l 0 1042 l 174 1042 l 174 694 l 0 694 m 174 0 l 174 174 l 347 174 l 347 0 l 174 0 m 174 521 l 174 694 l 347 694 l 347 521 l 174 521 m 174 1042 l 174 1215 l 347 1215 l 347 1042 l 174 1042 m 347 174 l 347 521 l 521 521 l 521 174 l 347 174 m 347 868 l 347 1042 l 521 1042 l 521 868 l 347 868 z "},"T":{"ha":694,"x_min":0,"x_max":521,"o":"m 0 1042 l 0 1215 l 521 1215 l 521 1042 l 347 1042 l 347 0 l 174 0 l 174 1042 l 0 1042 z "},"U":{"ha":694,"x_min":0,"x_max":521,"o":"m 0 0 l 0 1215 l 174 1215 l 174 174 l 347 174 l 347 1215 l 521 1215 l 521 0 l 0 0 z "},"V":{"ha":694,"x_min":0,"x_max":521,"o":"m 0 347 l 0 1215 l 174 1215 l 174 347 l 0 347 m 174 0 l 174 347 l 347 347 l 347 0 l 174 0 m 347 347 l 347 1215 l 521 1215 l 521 347 l 347 347 z "},"W":{"ha":694,"x_min":0,"x_max":521,"o":"m 0 0 l 0 1215 l 174 1215 l 174 694 l 347 694 l 347 1215 l 521 1215 l 521 0 l 347 0 l 347 174 l 174 174 l 174 0 l 0 0 z "},"X":{"ha":694,"x_min":0,"x_max":521,"o":"m 0 0 l 0 347 l 174 347 l 174 868 l 347 868 l 347 347 l 174 347 l 174 0 l 0 0 m 0 868 l 0 1215 l 174 1215 l 174 868 l 0 868 m 347 0 l 347 347 l 521 347 l 521 0 l 347 0 m 347 868 l 347 1215 l 521 1215 l 521 868 l 347 868 z "},"Y":{"ha":694,"x_min":0,"x_max":521,"o":"m 0 694 l 0 1215 l 174 1215 l 174 694 l 0 694 m 174 0 l 174 694 l 347 694 l 347 0 l 174 0 m 347 694 l 347 1215 l 521 1215 l 521 694 l 347 694 z "},"Z":{"ha":694,"x_min":0,"x_max":521,"o":"m 0 0 l 0 347 l 174 347 l 174 174 l 521 174 l 521 0 l 0 0 m 0 1042 l 0 1215 l 521 1215 l 521 868 l 347 868 l 347 1042 l 0 1042 m 174 347 l 174 868 l 347 868 l 347 347 l 174 347 z "},"[":{"ha":694,"x_min":174,"x_max":521,"o":"m 174 0 l 174 1215 l 521 1215 l 521 1042 l 347 1042 l 347 174 l 521 174 l 521 0 l 174 0 z "},"\\":{"ha":694,"x_min":0,"x_max":521,"o":"m 0 694 l 0 868 l 174 868 l 174 694 l 0 694 m 174 521 l 174 694 l 347 694 l 347 521 l 174 521 m 347 347 l 347 521 l 521 521 l 521 347 l 347 347 z "},"]":{"ha":694,"x_min":0,"x_max":347,"o":"m 0 0 l 0 174 l 174 174 l 174 1042 l 0 1042 l 0 1215 l 347 1215 l 347 0 l 0 0 z "},"^":{"ha":694,"x_min":0,"x_max":521,"o":"m 0 868 l 0 1042 l 174 1042 l 174 868 l 0 868 m 174 1042 l 174 1215 l 347 1215 l 347 1042 l 174 1042 m 347 868 l 347 1042 l 521 1042 l 521 868 l 347 868 z "},"_":{"ha":694,"x_min":0,"x_max":521,"o":"m 0 0 l 0 174 l 521 174 l 521 0 l 0 0 z "},"`":{"ha":694,"x_min":174,"x_max":521,"o":"m 174 1042 l 174 1215 l 347 1215 l 347 1042 l 174 1042 m 347 868 l 347 1042 l 521 1042 l 521 868 l 347 868 z "},"a":{"ha":694,"x_min":0,"x_max":521,"o":"m 0 174 l 0 347 l 174 347 l 174 521 l 347 521 l 347 694 l 521 694 l 521 0 l 174 0 l 174 174 l 347 174 l 347 347 l 174 347 l 174 174 l 0 174 m 0 694 l 0 868 l 347 868 l 347 694 l 0 694 z "},"b":{"ha":694,"x_min":0,"x_max":521,"o":"m 0 0 l 0 1215 l 174 1215 l 174 868 l 347 868 l 347 694 l 174 694 l 174 174 l 347 174 l 347 0 l 0 0 m 347 174 l 347 694 l 521 694 l 521 174 l 347 174 z "},"c":{"ha":694,"x_min":0,"x_max":521,"o":"m 0 174 l 0 694 l 174 694 l 174 174 l 0 174 m 174 0 l 174 174 l 521 174 l 521 0 l 174 0 m 174 694 l 174 868 l 521 868 l 521 694 l 174 694 z "},"d":{"ha":694,"x_min":0,"x_max":521,"o":"m 0 174 l 0 694 l 174 694 l 174 174 l 0 174 m 174 0 l 174 174 l 347 174 l 347 694 l 174 694 l 174 868 l 347 868 l 347 1215 l 521 1215 l 521 0 l 174 0 z "},"e":{"ha":694,"x_min":0,"x_max":521,"o":"m 0 174 l 0 694 l 174 694 l 174 521 l 347 521 l 347 694 l 521 694 l 521 347 l 174 347 l 174 174 l 0 174 m 174 0 l 174 174 l 521 174 l 521 0 l 174 0 m 174 694 l 174 868 l 347 868 l 347 694 l 174 694 z "},"f":{"ha":694,"x_min":0,"x_max":521,"o":"m 0 694 l 0 868 l 174 868 l 174 1215 l 521 1215 l 521 1042 l 347 1042 l 347 868 l 521 868 l 521 694 l 347 694 l 347 0 l 174 0 l 174 694 l 0 694 z "},"g":{"ha":694,"x_min":0,"x_max":521,"o":"m 0 0 l 0 174 l 347 174 l 347 0 l 0 0 m 0 521 l 0 694 l 174 694 l 174 521 l 0 521 m 174 347 l 174 521 l 347 521 l 347 694 l 174 694 l 174 868 l 521 868 l 521 174 l 347 174 l 347 347 l 174 347 z "},"h":{"ha":694,"x_min":0,"x_max":521,"o":"m 0 0 l 0 1215 l 174 1215 l 174 868 l 347 868 l 347 694 l 174 694 l 174 0 l 0 0 m 347 0 l 347 694 l 521 694 l 521 0 l 347 0 z "},"i":{"ha":694,"x_min":174,"x_max":347,"o":"m 174 0 l 174 868 l 347 868 l 347 0 l 174 0 m 174 1042 l 174 1215 l 347 1215 l 347 1042 l 174 1042 z "},"j":{"ha":694,"x_min":0,"x_max":521,"o":"m 0 174 l 0 347 l 174 347 l 174 174 l 0 174 m 174 0 l 174 174 l 347 174 l 347 0 l 174 0 m 347 174 l 347 868 l 521 868 l 521 174 l 347 174 m 347 1042 l 347 1215 l 521 1215 l 521 1042 l 347 1042 z "},"k":{"ha":694,"x_min":0,"x_max":521,"o":"m 0 0 l 0 1215 l 174 1215 l 174 521 l 347 521 l 347 347 l 174 347 l 174 0 l 0 0 m 347 0 l 347 347 l 521 347 l 521 0 l 347 0 m 347 521 l 347 868 l 521 868 l 521 521 l 347 521 z "},"l":{"ha":694,"x_min":0,"x_max":347,"o":"m 0 1042 l 0 1215 l 347 1215 l 347 0 l 174 0 l 174 1042 l 0 1042 z "},"m":{"ha":694,"x_min":0,"x_max":521,"o":"m 0 0 l 0 868 l 347 868 l 347 694 l 521 694 l 521 0 l 347 0 l 347 174 l 174 174 l 174 0 l 0 0 z "},"n":{"ha":694,"x_min":0,"x_max":521,"o":"m 0 0 l 0 868 l 347 868 l 347 694 l 174 694 l 174 0 l 0 0 m 347 0 l 347 694 l 521 694 l 521 0 l 347 0 z "},"o":{"ha":694,"x_min":0,"x_max":521,"o":"m 0 174 l 0 694 l 174 694 l 174 174 l 0 174 m 174 0 l 174 174 l 347 174 l 347 0 l 174 0 m 174 694 l 174 868 l 347 868 l 347 694 l 174 694 m 347 174 l 347 694 l 521 694 l 521 174 l 347 174 z "},"p":{"ha":694,"x_min":0,"x_max":521,"o":"m 0 0 l 0 868 l 347 868 l 347 694 l 174 694 l 174 347 l 347 347 l 347 174 l 174 174 l 174 0 l 0 0 m 347 347 l 347 694 l 521 694 l 521 347 l 347 347 z "},"q":{"ha":694,"x_min":0,"x_max":521,"o":"m 0 347 l 0 694 l 174 694 l 174 347 l 0 347 m 174 174 l 174 347 l 347 347 l 347 694 l 174 694 l 174 868 l 521 868 l 521 0 l 347 0 l 347 174 l 174 174 z "},"r":{"ha":694,"x_min":0,"x_max":521,"o":"m 0 0 l 0 868 l 174 868 l 174 694 l 347 694 l 347 521 l 174 521 l 174 0 l 0 0 m 347 694 l 347 868 l 521 868 l 521 694 l 347 694 z "},"s":{"ha":694,"x_min":0,"x_max":521,"o":"m 0 0 l 0 174 l 347 174 l 347 347 l 174 347 l 174 521 l 347 521 l 347 347 l 521 347 l 521 174 l 347 174 l 347 0 l 0 0 m 0 521 l 0 694 l 174 694 l 174 521 l 0 521 m 174 694 l 174 868 l 521 868 l 521 694 l 174 694 z "},"t":{"ha":694,"x_min":0,"x_max":521,"o":"m 0 694 l 0 868 l 174 868 l 174 1042 l 347 1042 l 347 868 l 521 868 l 521 694 l 347 694 l 347 174 l 521 174 l 521 0 l 174 0 l 174 694 l 0 694 z "},"u":{"ha":694,"x_min":0,"x_max":521,"o":"m 0 0 l 0 868 l 174 868 l 174 174 l 347 174 l 347 868 l 521 868 l 521 0 l 0 0 z "},"v":{"ha":694,"x_min":0,"x_max":521,"o":"m 0 347 l 0 868 l 174 868 l 174 347 l 0 347 m 174 0 l 174 347 l 347 347 l 347 0 l 174 0 m 347 347 l 347 868 l 521 868 l 521 347 l 347 347 z "},"w":{"ha":694,"x_min":0,"x_max":521,"o":"m 0 0 l 0 868 l 174 868 l 174 521 l 347 521 l 347 868 l 521 868 l 521 0 l 347 0 l 347 174 l 174 174 l 174 0 l 0 0 z "},"x":{"ha":694,"x_min":0,"x_max":521,"o":"m 0 0 l 0 347 l 174 347 l 174 521 l 347 521 l 347 347 l 174 347 l 174 0 l 0 0 m 0 521 l 0 868 l 174 868 l 174 521 l 0 521 m 347 0 l 347 347 l 521 347 l 521 0 l 347 0 m 347 521 l 347 868 l 521 868 l 521 521 l 347 521 z "},"y":{"ha":694,"x_min":0,"x_max":521,"o":"m 0 0 l 0 174 l 347 174 l 347 0 l 0 0 m 0 521 l 0 868 l 174 868 l 174 521 l 0 521 m 174 347 l 174 521 l 347 521 l 347 868 l 521 868 l 521 174 l 347 174 l 347 347 l 174 347 z "},"z":{"ha":694,"x_min":0,"x_max":521,"o":"m 0 0 l 0 347 l 174 347 l 174 174 l 521 174 l 521 0 l 0 0 m 0 694 l 0 868 l 521 868 l 521 521 l 347 521 l 347 694 l 0 694 m 174 347 l 174 521 l 347 521 l 347 347 l 174 347 z "},"{":{"ha":694,"x_min":0,"x_max":521,"o":"m 0 521 l 0 694 l 174 694 l 174 521 l 0 521 m 174 174 l 174 521 l 347 521 l 347 174 l 174 174 m 174 694 l 174 1042 l 347 1042 l 347 694 l 174 694 m 347 0 l 347 174 l 521 174 l 521 0 l 347 0 m 347 1042 l 347 1215 l 521 1215 l 521 1042 l 347 1042 z "},"|":{"ha":694,"x_min":174,"x_max":347,"o":"m 174 0 l 174 1215 l 347 1215 l 347 0 l 174 0 z "},"}":{"ha":694,"x_min":0,"x_max":521,"o":"m 0 0 l 0 174 l 174 174 l 174 0 l 0 0 m 0 1042 l 0 1215 l 174 1215 l 174 1042 l 0 1042 m 174 174 l 174 521 l 347 521 l 347 694 l 174 694 l 174 1042 l 347 1042 l 347 694 l 521 694 l 521 521 l 347 521 l 347 174 l 174 174 z "},"~":{"ha":694,"x_min":0,"x_max":521,"o":"m 0 694 l 0 868 l 347 868 l 347 694 l 521 694 l 521 521 l 174 521 l 174 694 l 0 694 z "},"¢":{"ha":694,"x_min":0,"x_max":521,"o":"m 0 347 l 0 868 l 174 868 l 174 1215 l 347 1215 l 347 868 l 521 868 l 521 694 l 174 694 l 174 521 l 521 521 l 521 347 l 347 347 l 347 0 l 174 0 l 174 347 l 0 347 z "},"£":{"ha":694,"x_min":0,"x_max":521,"o":"m 0 0 l 0 347 l 174 347 l 174 174 l 521 174 l 521 0 l 0 0 m 0 694 l 0 868 l 174 868 l 174 1215 l 521 1215 l 521 1042 l 347 1042 l 347 868 l 521 868 l 521 694 l 347 694 l 347 347 l 174 347 l 174 694 l 0 694 z "},"¥":{"ha":694,"x_min":0,"x_max":521,"o":"m 0 347 l 0 521 l 174 521 l 174 694 l 0 694 l 0 868 l 174 868 l 174 1042 l 347 1042 l 347 868 l 521 868 l 521 694 l 347 694 l 347 521 l 521 521 l 521 347 l 347 347 l 347 0 l 174 0 l 174 347 l 0 347 m 0 1042 l 0 1215 l 174 1215 l 174 1042 l 0 1042 m 347 1042 l 347 1215 l 521 1215 l 521 1042 l 347 1042 z "},"¦":{"ha":694,"x_min":174,"x_max":347,"o":"m 174 0 l 174 521 l 347 521 l 347 0 l 174 0 m 174 694 l 174 1215 l 347 1215 l 347 694 l 174 694 z "},"§":{"ha":1389,"x_min":347,"x_max":1042,"o":"m 347 0 l 347 174 l 868 174 l 868 347 l 521 347 l 521 521 l 868 521 l 868 694 l 1042 694 l 1042 521 l 868 521 l 868 347 l 1042 347 l 1042 174 l 868 174 l 868 0 l 347 0 m 347 521 l 347 694 l 521 694 l 521 868 l 868 868 l 868 694 l 521 694 l 521 521 l 347 521 m 347 868 l 347 1042 l 521 1042 l 521 868 l 347 868 m 521 1042 l 521 1215 l 1042 1215 l 1042 1042 l 521 1042 z "},"¨":{"ha":1389,"x_min":347,"x_max":868,"o":"m 347 1042 l 347 1215 l 521 1215 l 521 1042 l 347 1042 m 694 1042 l 694 1215 l 868 1215 l 868 1042 l 694 1042 z "},"¬":{"ha":694,"x_min":0,"x_max":521,"o":"m 0 521 l 0 694 l 521 694 l 521 347 l 347 347 l 347 521 l 0 521 z "},"­":{"ha":1389,"x_min":521,"x_max":868,"o":"m 521 521 l 521 694 l 868 694 l 868 521 l 521 521 z "},"¯":{"ha":694,"x_min":0,"x_max":521,"o":"m 0 1042 l 0 1215 l 521 1215 l 521 1042 l 0 1042 z "},"°":{"ha":1389,"x_min":0,"x_max":694,"o":"m 0 694 l 0 1042 l 174 1042 l 174 694 l 0 694 m 174 521 l 174 694 l 521 694 l 521 521 l 174 521 m 174 1042 l 174 1215 l 521 1215 l 521 1042 l 174 1042 m 521 694 l 521 1042 l 694 1042 l 694 694 l 521 694 z "},"±":{"ha":1389,"x_min":0,"x_max":1215,"o":"m 0 0 l 0 174 l 1215 174 l 1215 0 l 0 0 m 0 694 l 0 868 l 521 868 l 521 1215 l 694 1215 l 694 868 l 1215 868 l 1215 694 l 694 694 l 694 347 l 521 347 l 521 694 l 0 694 z "},"´":{"ha":1389,"x_min":521,"x_max":868,"o":"m 521 868 l 521 1042 l 694 1042 l 694 868 l 521 868 m 694 1042 l 694 1215 l 868 1215 l 868 1042 l 694 1042 z "},"¶":{"ha":1389,"x_min":174,"x_max":1042,"o":"m 174 694 l 174 1042 l 347 1042 l 347 1215 l 1042 1215 l 1042 0 l 868 0 l 868 1042 l 694 1042 l 694 0 l 521 0 l 521 521 l 347 521 l 347 694 l 174 694 z "},"×":{"ha":1389,"x_min":0,"x_max":1215,"o":"m 0 0 l 0 174 l 174 174 l 174 0 l 0 0 m 0 1042 l 0 1215 l 174 1215 l 174 1042 l 0 1042 m 174 174 l 174 347 l 347 347 l 347 174 l 174 174 m 174 868 l 174 1042 l 347 1042 l 347 868 l 521 868 l 521 694 l 694 694 l 694 521 l 521 521 l 521 347 l 347 347 l 347 521 l 521 521 l 521 694 l 347 694 l 347 868 l 174 868 m 694 347 l 694 521 l 868 521 l 868 347 l 694 347 m 694 694 l 694 868 l 868 868 l 868 694 l 694 694 m 868 174 l 868 347 l 1042 347 l 1042 174 l 868 174 m 868 868 l 868 1042 l 1042 1042 l 1042 868 l 868 868 m 1042 0 l 1042 174 l 1215 174 l 1215 0 l 1042 0 m 1042 1042 l 1042 1215 l 1215 1215 l 1215 1042 l 1042 1042 z "},"÷":{"ha":1389,"x_min":0,"x_max":1215,"o":"m 0 521 l 0 694 l 1215 694 l 1215 521 l 0 521 m 521 174 l 521 347 l 694 347 l 694 174 l 521 174 m 521 868 l 521 1042 l 694 1042 l 694 868 l 521 868 z "},"Α":{"ha":1389,"x_min":0,"x_max":1215,"o":"m 0 0 l 0 347 l 174 347 l 174 0 l 0 0 m 174 347 l 174 694 l 347 694 l 347 521 l 868 521 l 868 694 l 694 694 l 694 1042 l 868 1042 l 868 694 l 1042 694 l 1042 347 l 174 347 m 347 694 l 347 1042 l 521 1042 l 521 694 l 347 694 m 521 1042 l 521 1215 l 694 1215 l 694 1042 l 521 1042 m 1042 0 l 1042 347 l 1215 347 l 1215 0 l 1042 0 z "},"Β":{"ha":1389,"x_min":174,"x_max":1215,"o":"m 174 0 l 174 1215 l 1042 1215 l 1042 1042 l 347 1042 l 347 694 l 1042 694 l 1042 521 l 347 521 l 347 174 l 1042 174 l 1042 0 l 174 0 m 1042 174 l 1042 521 l 1215 521 l 1215 174 l 1042 174 m 1042 694 l 1042 1042 l 1215 1042 l 1215 694 l 1042 694 z "},"Γ":{"ha":1389,"x_min":174,"x_max":1215,"o":"m 174 0 l 174 1215 l 1215 1215 l 1215 1042 l 347 1042 l 347 0 l 174 0 z "},"Δ":{"ha":1389,"x_min":0,"x_max":1215,"o":"m 0 0 l 0 347 l 174 347 l 174 174 l 1042 174 l 1042 347 l 868 347 l 868 694 l 694 694 l 694 1042 l 868 1042 l 868 694 l 1042 694 l 1042 347 l 1215 347 l 1215 0 l 0 0 m 174 347 l 174 694 l 347 694 l 347 347 l 174 347 m 347 694 l 347 1042 l 521 1042 l 521 694 l 347 694 m 521 1042 l 521 1215 l 694 1215 l 694 1042 l 521 1042 z "},"Ε":{"ha":1389,"x_min":174,"x_max":1215,"o":"m 174 0 l 174 1215 l 1215 1215 l 1215 1042 l 347 1042 l 347 694 l 1042 694 l 1042 521 l 347 521 l 347 174 l 1215 174 l 1215 0 l 174 0 z "},"Ζ":{"ha":1389,"x_min":174,"x_max":1215,"o":"m 174 0 l 174 174 l 347 174 l 347 347 l 521 347 l 521 174 l 1215 174 l 1215 0 l 174 0 m 174 1042 l 174 1215 l 1215 1215 l 1215 868 l 1042 868 l 1042 1042 l 174 1042 m 521 347 l 521 521 l 694 521 l 694 347 l 521 347 m 694 521 l 694 694 l 868 694 l 868 521 l 694 521 m 868 694 l 868 868 l 1042 868 l 1042 694 l 868 694 z "},"Η":{"ha":1389,"x_min":174,"x_max":1215,"o":"m 174 0 l 174 1215 l 347 1215 l 347 694 l 1042 694 l 1042 1215 l 1215 1215 l 1215 0 l 1042 0 l 1042 521 l 347 521 l 347 0 l 174 0 z "},"Θ":{"ha":1389,"x_min":0,"x_max":1215,"o":"m 0 347 l 0 868 l 174 868 l 174 347 l 0 347 m 174 174 l 174 347 l 347 347 l 347 174 l 174 174 m 174 868 l 174 1042 l 347 1042 l 347 868 l 174 868 m 347 0 l 347 174 l 868 174 l 868 0 l 347 0 m 347 521 l 347 694 l 868 694 l 868 521 l 347 521 m 347 1042 l 347 1215 l 868 1215 l 868 1042 l 347 1042 m 868 174 l 868 347 l 1042 347 l 1042 868 l 868 868 l 868 1042 l 1042 1042 l 1042 868 l 1215 868 l 1215 347 l 1042 347 l 1042 174 l 868 174 z "},"Ι":{"ha":1389,"x_min":347,"x_max":868,"o":"m 347 0 l 347 174 l 521 174 l 521 1042 l 347 1042 l 347 1215 l 868 1215 l 868 1042 l 694 1042 l 694 174 l 868 174 l 868 0 l 347 0 z "},"Κ":{"ha":1389,"x_min":174,"x_max":1215,"o":"m 174 0 l 174 1215 l 347 1215 l 347 521 l 521 521 l 521 347 l 347 347 l 347 0 l 174 0 m 521 521 l 521 694 l 694 694 l 694 521 l 521 521 m 694 347 l 694 521 l 868 521 l 868 347 l 694 347 m 694 694 l 694 868 l 868 868 l 868 694 l 694 694 m 868 174 l 868 347 l 1042 347 l 1042 174 l 868 174 m 868 868 l 868 1042 l 1042 1042 l 1042 868 l 868 868 m 1042 0 l 1042 174 l 1215 174 l 1215 0 l 1042 0 m 1042 1042 l 1042 1215 l 1215 1215 l 1215 1042 l 1042 1042 z "},"Λ":{"ha":1389,"x_min":0,"x_max":1215,"o":"m 0 0 l 0 347 l 174 347 l 174 0 l 0 0 m 174 347 l 174 694 l 347 694 l 347 347 l 174 347 m 347 694 l 347 1042 l 521 1042 l 521 694 l 347 694 m 521 1042 l 521 1215 l 694 1215 l 694 1042 l 521 1042 m 694 694 l 694 1042 l 868 1042 l 868 694 l 694 694 m 868 347 l 868 694 l 1042 694 l 1042 347 l 868 347 m 1042 0 l 1042 347 l 1215 347 l 1215 0 l 1042 0 z "},"Μ":{"ha":1389,"x_min":0,"x_max":1215,"o":"m 0 0 l 0 1215 l 174 1215 l 174 1042 l 347 1042 l 347 868 l 174 868 l 174 0 l 0 0 m 347 521 l 347 868 l 521 868 l 521 521 l 347 521 m 521 174 l 521 521 l 694 521 l 694 174 l 521 174 m 694 521 l 694 868 l 868 868 l 868 521 l 694 521 m 868 868 l 868 1042 l 1042 1042 l 1042 1215 l 1215 1215 l 1215 0 l 1042 0 l 1042 868 l 868 868 z "},"Ν":{"ha":1389,"x_min":174,"x_max":1215,"o":"m 174 0 l 174 1215 l 347 1215 l 347 1042 l 521 1042 l 521 868 l 347 868 l 347 0 l 174 0 m 521 694 l 521 868 l 694 868 l 694 694 l 521 694 m 694 521 l 694 694 l 868 694 l 868 521 l 694 521 m 868 347 l 868 521 l 1042 521 l 1042 1215 l 1215 1215 l 1215 0 l 1042 0 l 1042 347 l 868 347 z "},"Ξ":{"ha":1389,"x_min":174,"x_max":1215,"o":"m 174 0 l 174 174 l 1215 174 l 1215 0 l 174 0 m 174 1042 l 174 1215 l 1215 1215 l 1215 1042 l 174 1042 m 347 521 l 347 694 l 1042 694 l 1042 521 l 347 521 z "},"Ο":{"ha":1389,"x_min":174,"x_max":1215,"o":"m 174 174 l 174 1042 l 347 1042 l 347 174 l 174 174 m 347 0 l 347 174 l 1042 174 l 1042 0 l 347 0 m 347 1042 l 347 1215 l 1042 1215 l 1042 1042 l 347 1042 m 1042 174 l 1042 1042 l 1215 1042 l 1215 174 l 1042 174 z "},"Π":{"ha":1389,"x_min":174,"x_max":1215,"o":"m 174 0 l 174 1215 l 1215 1215 l 1215 0 l 1042 0 l 1042 1042 l 347 1042 l 347 0 l 174 0 z "},"Ρ":{"ha":1389,"x_min":174,"x_max":1215,"o":"m 174 0 l 174 1215 l 1042 1215 l 1042 1042 l 347 1042 l 347 694 l 1042 694 l 1042 521 l 347 521 l 347 0 l 174 0 m 1042 694 l 1042 1042 l 1215 1042 l 1215 694 l 1042 694 z "},"Σ":{"ha":1389,"x_min":174,"x_max":1215,"o":"m 174 0 l 174 174 l 347 174 l 347 347 l 521 347 l 521 174 l 1215 174 l 1215 0 l 174 0 m 174 1042 l 174 1215 l 1215 1215 l 1215 1042 l 521 1042 l 521 868 l 347 868 l 347 1042 l 174 1042 m 521 347 l 521 521 l 694 521 l 694 694 l 521 694 l 521 868 l 694 868 l 694 694 l 868 694 l 868 521 l 694 521 l 694 347 l 521 347 z "},"Τ":{"ha":1389,"x_min":0,"x_max":1215,"o":"m 0 1042 l 0 1215 l 1215 1215 l 1215 1042 l 694 1042 l 694 0 l 521 0 l 521 1042 l 0 1042 z "},"Υ":{"ha":1389,"x_min":0,"x_max":1215,"o":"m 0 1042 l 0 1215 l 174 1215 l 174 1042 l 0 1042 m 174 868 l 174 1042 l 347 1042 l 347 868 l 174 868 m 347 694 l 347 868 l 521 868 l 521 694 l 347 694 m 521 0 l 521 694 l 694 694 l 694 0 l 521 0 m 694 694 l 694 868 l 868 868 l 868 694 l 694 694 m 868 868 l 868 1042 l 1042 1042 l 1042 868 l 868 868 m 1042 1042 l 1042 1215 l 1215 1215 l 1215 1042 l 1042 1042 z "},"Φ":{"ha":1389,"x_min":0,"x_max":1215,"o":"m 0 347 l 0 868 l 174 868 l 174 347 l 0 347 m 174 174 l 174 347 l 521 347 l 521 868 l 174 868 l 174 1042 l 521 1042 l 521 1215 l 694 1215 l 694 1042 l 1042 1042 l 1042 868 l 694 868 l 694 347 l 1042 347 l 1042 174 l 694 174 l 694 0 l 521 0 l 521 174 l 174 174 m 1042 347 l 1042 868 l 1215 868 l 1215 347 l 1042 347 z "},"Χ":{"ha":1389,"x_min":0,"x_max":1215,"o":"m 0 0 l 0 174 l 174 174 l 174 0 l 0 0 m 0 1042 l 0 1215 l 174 1215 l 174 1042 l 0 1042 m 174 174 l 174 347 l 347 347 l 347 174 l 174 174 m 174 868 l 174 1042 l 347 1042 l 347 868 l 521 868 l 521 694 l 694 694 l 694 521 l 521 521 l 521 347 l 347 347 l 347 521 l 521 521 l 521 694 l 347 694 l 347 868 l 174 868 m 694 347 l 694 521 l 868 521 l 868 347 l 694 347 m 694 694 l 694 868 l 868 868 l 868 694 l 694 694 m 868 174 l 868 347 l 1042 347 l 1042 174 l 868 174 m 868 868 l 868 1042 l 1042 1042 l 1042 868 l 868 868 m 1042 0 l 1042 174 l 1215 174 l 1215 0 l 1042 0 m 1042 1042 l 1042 1215 l 1215 1215 l 1215 1042 l 1042 1042 z "},"Ψ":{"ha":1389,"x_min":0,"x_max":1215,"o":"m 0 1042 l 0 1215 l 174 1215 l 174 1042 l 0 1042 m 174 694 l 174 1042 l 347 1042 l 347 694 l 174 694 m 347 521 l 347 694 l 521 694 l 521 1215 l 694 1215 l 694 694 l 868 694 l 868 521 l 694 521 l 694 0 l 521 0 l 521 521 l 347 521 m 868 694 l 868 1042 l 1042 1042 l 1042 694 l 868 694 m 1042 1042 l 1042 1215 l 1215 1215 l 1215 1042 l 1042 1042 z "},"Ω":{"ha":1389,"x_min":0,"x_max":1215,"o":"m 0 0 l 0 174 l 347 174 l 347 347 l 521 347 l 521 0 l 0 0 m 0 521 l 0 868 l 174 868 l 174 521 l 0 521 m 174 347 l 174 521 l 347 521 l 347 347 l 174 347 m 174 868 l 174 1042 l 347 1042 l 347 868 l 174 868 m 347 1042 l 347 1215 l 868 1215 l 868 1042 l 347 1042 m 694 0 l 694 347 l 868 347 l 868 174 l 1215 174 l 1215 0 l 694 0 m 868 347 l 868 521 l 1042 521 l 1042 868 l 868 868 l 868 1042 l 1042 1042 l 1042 868 l 1215 868 l 1215 521 l 1042 521 l 1042 347 l 868 347 z "},"α":{"ha":1389,"x_min":174,"x_max":1215,"o":"m 174 174 l 174 521 l 347 521 l 347 174 l 174 174 m 347 0 l 347 174 l 694 174 l 694 0 l 347 0 m 347 521 l 347 694 l 521 694 l 521 521 l 347 521 m 521 694 l 521 868 l 868 868 l 868 694 l 521 694 m 694 174 l 694 521 l 868 521 l 868 694 l 1042 694 l 1042 521 l 868 521 l 868 174 l 694 174 m 868 0 l 868 174 l 1042 174 l 1042 0 l 868 0 m 1042 174 l 1042 347 l 1215 347 l 1215 174 l 1042 174 m 1042 694 l 1042 868 l 1215 868 l 1215 694 l 1042 694 z "},"β":{"ha":1389,"x_min":174,"x_max":1215,"o":"m 174 0 l 174 347 l 347 347 l 347 0 l 174 0 m 347 347 l 347 868 l 521 868 l 521 521 l 694 521 l 694 347 l 347 347 m 521 868 l 521 1042 l 694 1042 l 694 868 l 521 868 m 694 174 l 694 347 l 1042 347 l 1042 174 l 694 174 m 694 694 l 694 868 l 1042 868 l 1042 694 l 694 694 m 694 1042 l 694 1215 l 1042 1215 l 1042 1042 l 694 1042 m 1042 347 l 1042 694 l 1215 694 l 1215 347 l 1042 347 m 1042 868 l 1042 1042 l 1215 1042 l 1215 868 l 1042 868 z "},"γ":{"ha":1389,"x_min":174,"x_max":1042,"o":"m 174 694 l 174 868 l 521 868 l 521 694 l 174 694 m 347 0 l 347 347 l 521 347 l 521 694 l 868 694 l 868 521 l 694 521 l 694 174 l 521 174 l 521 0 l 347 0 m 868 694 l 868 868 l 1042 868 l 1042 694 l 868 694 z "},"δ":{"ha":1389,"x_min":174,"x_max":1042,"o":"m 174 174 l 174 521 l 347 521 l 347 174 l 174 174 m 347 0 l 347 174 l 694 174 l 694 0 l 347 0 m 347 521 l 347 694 l 521 694 l 521 868 l 694 868 l 694 694 l 521 694 l 521 521 l 347 521 m 347 868 l 347 1042 l 521 1042 l 521 868 l 347 868 m 521 1042 l 521 1215 l 868 1215 l 868 1042 l 521 1042 m 694 174 l 694 694 l 868 694 l 868 174 l 694 174 m 868 868 l 868 1042 l 1042 1042 l 1042 868 l 868 868 z "},"ε":{"ha":1389,"x_min":174,"x_max":1042,"o":"m 174 174 l 174 347 l 347 347 l 347 174 l 174 174 m 347 0 l 347 174 l 868 174 l 868 0 l 347 0 m 347 347 l 347 694 l 521 694 l 521 521 l 694 521 l 694 347 l 347 347 m 521 694 l 521 868 l 868 868 l 868 694 l 521 694 m 868 174 l 868 347 l 1042 347 l 1042 174 l 868 174 m 868 521 l 868 694 l 1042 694 l 1042 521 l 868 521 z "},"ζ":{"ha":1389,"x_min":347,"x_max":1042,"o":"m 347 521 l 347 868 l 521 868 l 521 1042 l 694 1042 l 694 868 l 521 868 l 521 521 l 347 521 m 347 1042 l 347 1215 l 521 1215 l 521 1042 l 347 1042 m 521 0 l 521 174 l 868 174 l 868 347 l 521 347 l 521 521 l 868 521 l 868 347 l 1042 347 l 1042 174 l 868 174 l 868 0 l 521 0 m 694 1042 l 694 1215 l 1042 1215 l 1042 1042 l 694 1042 z "},"η":{"ha":1389,"x_min":174,"x_max":1215,"o":"m 174 521 l 174 694 l 347 694 l 347 521 l 174 521 m 347 174 l 347 347 l 521 347 l 521 694 l 694 694 l 694 347 l 521 347 l 521 174 l 347 174 m 347 694 l 347 868 l 521 868 l 521 694 l 347 694 m 694 694 l 694 868 l 1042 868 l 1042 694 l 694 694 m 868 0 l 868 347 l 1042 347 l 1042 694 l 1215 694 l 1215 347 l 1042 347 l 1042 0 l 868 0 z "},"θ":{"ha":1389,"x_min":174,"x_max":1042,"o":"m 174 174 l 174 694 l 347 694 l 347 1042 l 521 1042 l 521 694 l 868 694 l 868 1042 l 1042 1042 l 1042 521 l 868 521 l 868 174 l 694 174 l 694 521 l 347 521 l 347 174 l 174 174 m 347 0 l 347 174 l 694 174 l 694 0 l 347 0 m 521 1042 l 521 1215 l 868 1215 l 868 1042 l 521 1042 z "},"ι":{"ha":1389,"x_min":347,"x_max":868,"o":"m 347 174 l 347 521 l 521 521 l 521 174 l 347 174 m 521 0 l 521 174 l 694 174 l 694 0 l 521 0 m 521 521 l 521 868 l 694 868 l 694 521 l 521 521 m 694 174 l 694 347 l 868 347 l 868 174 l 694 174 z "},"κ":{"ha":1389,"x_min":174,"x_max":1042,"o":"m 174 0 l 174 347 l 347 347 l 347 0 l 174 0 m 347 347 l 347 868 l 521 868 l 521 521 l 694 521 l 694 174 l 521 174 l 521 347 l 347 347 m 694 0 l 694 174 l 1042 174 l 1042 0 l 694 0 m 694 521 l 694 694 l 868 694 l 868 521 l 694 521 m 868 694 l 868 868 l 1042 868 l 1042 694 l 868 694 z "},"λ":{"ha":1389,"x_min":174,"x_max":1042,"o":"m 174 0 l 174 174 l 347 174 l 347 0 l 174 0 m 347 174 l 347 521 l 521 521 l 521 694 l 694 694 l 694 1042 l 868 1042 l 868 174 l 694 174 l 694 521 l 521 521 l 521 174 l 347 174 m 521 1042 l 521 1215 l 694 1215 l 694 1042 l 521 1042 m 868 0 l 868 174 l 1042 174 l 1042 0 l 868 0 z "},"μ":{"ha":1389,"x_min":174,"x_max":1215,"o":"m 174 0 l 174 174 l 347 174 l 347 0 l 174 0 m 347 174 l 347 521 l 521 521 l 521 347 l 868 347 l 868 174 l 347 174 m 521 521 l 521 868 l 694 868 l 694 521 l 521 521 m 868 347 l 868 521 l 1042 521 l 1042 347 l 868 347 m 1042 174 l 1042 347 l 1215 347 l 1215 174 l 1042 174 m 1042 521 l 1042 868 l 1215 868 l 1215 521 l 1042 521 z "},"ν":{"ha":1389,"x_min":174,"x_max":1042,"o":"m 174 694 l 174 868 l 347 868 l 347 694 l 174 694 m 347 0 l 347 694 l 521 694 l 521 347 l 694 347 l 694 521 l 868 521 l 868 347 l 694 347 l 694 174 l 521 174 l 521 0 l 347 0 m 868 521 l 868 868 l 1042 868 l 1042 521 l 868 521 z "},"ξ":{"ha":1389,"x_min":174,"x_max":1042,"o":"m 174 521 l 174 694 l 347 694 l 347 521 l 174 521 m 347 347 l 347 521 l 868 521 l 868 347 l 1042 347 l 1042 174 l 868 174 l 868 0 l 521 0 l 521 174 l 868 174 l 868 347 l 347 347 m 347 694 l 347 1042 l 521 1042 l 521 868 l 1042 868 l 1042 694 l 347 694 m 521 1042 l 521 1215 l 1042 1215 l 1042 1042 l 521 1042 z "},"ο":{"ha":1389,"x_min":174,"x_max":1042,"o":"m 174 174 l 174 521 l 347 521 l 347 174 l 174 174 m 347 0 l 347 174 l 694 174 l 694 0 l 347 0 m 347 521 l 347 694 l 521 694 l 521 521 l 347 521 m 521 694 l 521 868 l 868 868 l 868 694 l 521 694 m 694 174 l 694 347 l 868 347 l 868 694 l 1042 694 l 1042 347 l 868 347 l 868 174 l 694 174 z "},"π":{"ha":1389,"x_min":174,"x_max":1215,"o":"m 174 0 l 174 174 l 347 174 l 347 0 l 174 0 m 174 521 l 174 694 l 347 694 l 347 521 l 174 521 m 347 174 l 347 347 l 521 347 l 521 174 l 347 174 m 347 694 l 347 868 l 1215 868 l 1215 694 l 1042 694 l 1042 174 l 1215 174 l 1215 0 l 868 0 l 868 694 l 694 694 l 694 347 l 521 347 l 521 694 l 347 694 z "},"ρ":{"ha":1389,"x_min":174,"x_max":1215,"o":"m 174 0 l 174 347 l 347 347 l 347 0 l 174 0 m 347 347 l 347 694 l 521 694 l 521 347 l 347 347 m 521 174 l 521 347 l 1042 347 l 1042 174 l 521 174 m 521 694 l 521 868 l 1042 868 l 1042 694 l 521 694 m 1042 347 l 1042 694 l 1215 694 l 1215 347 l 1042 347 z "},"σ":{"ha":1389,"x_min":174,"x_max":1215,"o":"m 174 174 l 174 521 l 347 521 l 347 174 l 174 174 m 347 0 l 347 174 l 694 174 l 694 0 l 347 0 m 347 521 l 347 694 l 521 694 l 521 521 l 347 521 m 521 694 l 521 868 l 1215 868 l 1215 694 l 1042 694 l 1042 347 l 868 347 l 868 694 l 521 694 m 694 174 l 694 347 l 868 347 l 868 174 l 694 174 z "},"τ":{"ha":1389,"x_min":174,"x_max":1215,"o":"m 174 521 l 174 694 l 347 694 l 347 521 l 174 521 m 347 694 l 347 868 l 1215 868 l 1215 694 l 868 694 l 868 521 l 694 521 l 694 694 l 347 694 m 521 174 l 521 521 l 694 521 l 694 174 l 521 174 m 694 0 l 694 174 l 868 174 l 868 0 l 694 0 m 868 174 l 868 347 l 1042 347 l 1042 174 l 868 174 z "},"υ":{"ha":1389,"x_min":174,"x_max":1215,"o":"m 174 521 l 174 694 l 347 694 l 347 521 l 174 521 m 347 174 l 347 521 l 521 521 l 521 174 l 347 174 m 347 694 l 347 868 l 694 868 l 694 521 l 521 521 l 521 694 l 347 694 m 521 0 l 521 174 l 868 174 l 868 0 l 521 0 m 868 174 l 868 347 l 1042 347 l 1042 174 l 868 174 m 1042 347 l 1042 868 l 1215 868 l 1215 347 l 1042 347 z "},"φ":{"ha":1389,"x_min":174,"x_max":1215,"o":"m 174 347 l 174 694 l 347 694 l 347 347 l 174 347 m 347 174 l 347 347 l 694 347 l 694 694 l 347 694 l 347 868 l 868 868 l 868 1215 l 1042 1215 l 1042 694 l 868 694 l 868 347 l 1042 347 l 1042 174 l 694 174 l 694 0 l 521 0 l 521 174 l 347 174 m 1042 347 l 1042 694 l 1215 694 l 1215 347 l 1042 347 z "},"χ":{"ha":1389,"x_min":174,"x_max":1042,"o":"m 174 0 l 174 174 l 347 174 l 347 0 l 174 0 m 347 174 l 347 347 l 521 347 l 521 521 l 694 521 l 694 694 l 868 694 l 868 521 l 694 521 l 694 174 l 347 174 m 347 694 l 347 868 l 694 868 l 694 694 l 347 694 m 694 0 l 694 174 l 1042 174 l 1042 0 l 694 0 m 868 694 l 868 868 l 1042 868 l 1042 694 l 868 694 z "},"ψ":{"ha":1389,"x_min":174,"x_max":1215,"o":"m 174 347 l 174 521 l 347 521 l 347 347 l 174 347 m 174 694 l 174 868 l 521 868 l 521 521 l 347 521 l 347 694 l 174 694 m 347 174 l 347 347 l 694 347 l 694 868 l 868 868 l 868 347 l 1042 347 l 1042 174 l 694 174 l 694 0 l 521 0 l 521 174 l 347 174 m 868 868 l 868 1215 l 1042 1215 l 1042 868 l 868 868 m 1042 347 l 1042 694 l 1215 694 l 1215 347 l 1042 347 z "},"ω":{"ha":1389,"x_min":174,"x_max":1215,"o":"m 174 174 l 174 694 l 347 694 l 347 174 l 174 174 m 347 0 l 347 174 l 521 174 l 521 0 l 347 0 m 347 694 l 347 868 l 521 868 l 521 694 l 347 694 m 521 174 l 521 347 l 694 347 l 694 694 l 868 694 l 868 174 l 521 174 m 868 0 l 868 174 l 1042 174 l 1042 0 l 868 0 m 1042 174 l 1042 868 l 1215 868 l 1215 174 l 1042 174 z "},"Ё":{"ha":1389,"x_min":174,"x_max":1215,"o":"m 174 0 l 174 1042 l 347 1042 l 347 1215 l 521 1215 l 521 1042 l 868 1042 l 868 1215 l 1042 1215 l 1042 1042 l 1215 1042 l 1215 868 l 347 868 l 347 694 l 1042 694 l 1042 521 l 347 521 l 347 174 l 1215 174 l 1215 0 l 174 0 z "},"А":{"ha":1389,"x_min":0,"x_max":1215,"o":"m 0 0 l 0 347 l 174 347 l 174 0 l 0 0 m 174 347 l 174 694 l 347 694 l 347 521 l 868 521 l 868 694 l 694 694 l 694 1042 l 868 1042 l 868 694 l 1042 694 l 1042 347 l 174 347 m 347 694 l 347 1042 l 521 1042 l 521 694 l 347 694 m 521 1042 l 521 1215 l 694 1215 l 694 1042 l 521 1042 m 1042 0 l 1042 347 l 1215 347 l 1215 0 l 1042 0 z "},"Б":{"ha":1389,"x_min":174,"x_max":1215,"o":"m 174 0 l 174 1215 l 1215 1215 l 1215 1042 l 347 1042 l 347 694 l 1042 694 l 1042 521 l 347 521 l 347 174 l 1042 174 l 1042 0 l 174 0 m 1042 174 l 1042 521 l 1215 521 l 1215 174 l 1042 174 z "},"В":{"ha":1389,"x_min":174,"x_max":1215,"o":"m 174 0 l 174 1215 l 1042 1215 l 1042 1042 l 347 1042 l 347 694 l 1042 694 l 1042 521 l 347 521 l 347 174 l 1042 174 l 1042 0 l 174 0 m 1042 174 l 1042 521 l 1215 521 l 1215 174 l 1042 174 m 1042 694 l 1042 1042 l 1215 1042 l 1215 694 l 1042 694 z "},"Г":{"ha":1389,"x_min":174,"x_max":1215,"o":"m 174 0 l 174 1215 l 1215 1215 l 1215 1042 l 347 1042 l 347 0 l 174 0 z "},"Д":{"ha":1389,"x_min":0,"x_max":1215,"o":"m 0 0 l 0 347 l 174 347 l 174 521 l 347 521 l 347 1215 l 1042 1215 l 1042 347 l 1215 347 l 1215 0 l 1042 0 l 1042 174 l 174 174 l 174 0 l 0 0 m 347 347 l 868 347 l 868 1042 l 521 1042 l 521 521 l 347 521 l 347 347 z "},"Е":{"ha":1389,"x_min":174,"x_max":1215,"o":"m 174 0 l 174 1215 l 1215 1215 l 1215 1042 l 347 1042 l 347 694 l 1042 694 l 1042 521 l 347 521 l 347 174 l 1215 174 l 1215 0 l 174 0 z "},"Ж":{"ha":1389,"x_min":0,"x_max":1215,"o":"m 0 0 l 0 174 l 174 174 l 174 0 l 0 0 m 0 1042 l 0 1215 l 174 1215 l 174 1042 l 0 1042 m 174 174 l 174 521 l 347 521 l 347 174 l 174 174 m 174 694 l 174 1042 l 347 1042 l 347 694 l 174 694 m 347 521 l 347 694 l 521 694 l 521 1215 l 694 1215 l 694 694 l 868 694 l 868 521 l 694 521 l 694 0 l 521 0 l 521 521 l 347 521 m 868 174 l 868 521 l 1042 521 l 1042 174 l 868 174 m 868 694 l 868 1042 l 1042 1042 l 1042 694 l 868 694 m 1042 0 l 1042 174 l 1215 174 l 1215 0 l 1042 0 m 1042 1042 l 1042 1215 l 1215 1215 l 1215 1042 l 1042 1042 z "},"З":{"ha":1389,"x_min":174,"x_max":1215,"o":"m 174 174 l 174 347 l 347 347 l 347 174 l 174 174 m 174 868 l 174 1042 l 347 1042 l 347 868 l 174 868 m 347 0 l 347 174 l 1042 174 l 1042 0 l 347 0 m 347 1042 l 347 1215 l 1042 1215 l 1042 1042 l 347 1042 m 521 521 l 521 694 l 1042 694 l 1042 1042 l 1215 1042 l 1215 694 l 1042 694 l 1042 521 l 521 521 m 1042 174 l 1042 521 l 1215 521 l 1215 174 l 1042 174 z "},"И":{"ha":1389,"x_min":174,"x_max":1215,"o":"m 174 0 l 174 1215 l 347 1215 l 347 347 l 521 347 l 521 174 l 347 174 l 347 0 l 174 0 m 521 347 l 521 521 l 694 521 l 694 347 l 521 347 m 694 521 l 694 694 l 868 694 l 868 521 l 694 521 m 868 694 l 868 868 l 1042 868 l 1042 1215 l 1215 1215 l 1215 0 l 1042 0 l 1042 694 l 868 694 z "},"Й":{"ha":1389,"x_min":174,"x_max":1215,"o":"m 174 0 l 174 1042 l 347 1042 l 347 347 l 521 347 l 521 174 l 347 174 l 347 0 l 174 0 m 347 1042 l 347 1215 l 521 1215 l 521 1042 l 347 1042 m 521 347 l 521 521 l 694 521 l 694 347 l 521 347 m 521 868 l 521 1042 l 868 1042 l 868 868 l 1042 868 l 1042 1042 l 1215 1042 l 1215 0 l 1042 0 l 1042 694 l 868 694 l 868 521 l 694 521 l 694 694 l 868 694 l 868 868 l 521 868 m 868 1042 l 868 1215 l 1042 1215 l 1042 1042 l 868 1042 z "},"К":{"ha":1389,"x_min":174,"x_max":1215,"o":"m 174 0 l 174 1215 l 347 1215 l 347 694 l 694 694 l 694 521 l 347 521 l 347 0 l 174 0 m 694 347 l 694 521 l 868 521 l 868 347 l 694 347 m 694 694 l 694 1042 l 868 1042 l 868 694 l 694 694 m 868 174 l 868 347 l 1042 347 l 1042 174 l 868 174 m 868 1042 l 868 1215 l 1215 1215 l 1215 1042 l 868 1042 m 1042 0 l 1042 174 l 1215 174 l 1215 0 l 1042 0 z "},"Л":{"ha":1389,"x_min":0,"x_max":1215,"o":"m 0 0 l 0 174 l 347 174 l 347 0 l 0 0 m 347 174 l 347 1215 l 1215 1215 l 1215 0 l 1042 0 l 1042 1042 l 521 1042 l 521 174 l 347 174 z "},"М":{"ha":1389,"x_min":0,"x_max":1215,"o":"m 0 0 l 0 694 l 174 694 l 174 0 l 0 0 m 174 694 l 174 1215 l 347 1215 l 347 694 l 174 694 m 347 347 l 347 694 l 521 694 l 521 347 l 347 347 m 521 0 l 521 347 l 694 347 l 694 0 l 521 0 m 694 347 l 694 694 l 868 694 l 868 347 l 694 347 m 868 694 l 868 1215 l 1042 1215 l 1042 694 l 868 694 m 1042 0 l 1042 694 l 1215 694 l 1215 0 l 1042 0 z "},"Н":{"ha":1389,"x_min":174,"x_max":1215,"o":"m 174 0 l 174 1215 l 347 1215 l 347 694 l 1042 694 l 1042 1215 l 1215 1215 l 1215 0 l 1042 0 l 1042 521 l 347 521 l 347 0 l 174 0 z "},"О":{"ha":1389,"x_min":174,"x_max":1215,"o":"m 174 174 l 174 1042 l 347 1042 l 347 174 l 174 174 m 347 0 l 347 174 l 1042 174 l 1042 0 l 347 0 m 347 1042 l 347 1215 l 1042 1215 l 1042 1042 l 347 1042 m 1042 174 l 1042 1042 l 1215 1042 l 1215 174 l 1042 174 z "},"П":{"ha":1389,"x_min":174,"x_max":1215,"o":"m 174 0 l 174 1215 l 1215 1215 l 1215 0 l 1042 0 l 1042 1042 l 347 1042 l 347 0 l 174 0 z "},"Р":{"ha":1389,"x_min":174,"x_max":1215,"o":"m 174 0 l 174 1215 l 1042 1215 l 1042 1042 l 347 1042 l 347 694 l 1042 694 l 1042 521 l 347 521 l 347 0 l 174 0 m 1042 694 l 1042 1042 l 1215 1042 l 1215 694 l 1042 694 z "},"С":{"ha":1389,"x_min":174,"x_max":1215,"o":"m 174 174 l 174 1042 l 347 1042 l 347 174 l 174 174 m 347 0 l 347 174 l 1042 174 l 1042 0 l 347 0 m 347 1042 l 347 1215 l 1042 1215 l 1042 1042 l 347 1042 m 1042 174 l 1042 347 l 1215 347 l 1215 174 l 1042 174 m 1042 868 l 1042 1042 l 1215 1042 l 1215 868 l 1042 868 z "},"Т":{"ha":1389,"x_min":0,"x_max":1215,"o":"m 0 1042 l 0 1215 l 1215 1215 l 1215 1042 l 694 1042 l 694 0 l 521 0 l 521 1042 l 0 1042 z "},"У":{"ha":1389,"x_min":174,"x_max":1215,"o":"m 174 0 l 174 174 l 521 174 l 521 0 l 174 0 m 174 1042 l 174 1215 l 347 1215 l 347 1042 l 174 1042 m 347 694 l 347 1042 l 521 1042 l 521 694 l 868 694 l 868 347 l 694 347 l 694 174 l 521 174 l 521 347 l 694 347 l 694 521 l 521 521 l 521 694 l 347 694 m 868 694 l 868 1042 l 1042 1042 l 1042 694 l 868 694 m 1042 1042 l 1042 1215 l 1215 1215 l 1215 1042 l 1042 1042 z "},"Ф":{"ha":1389,"x_min":0,"x_max":1215,"o":"m 0 347 l 0 868 l 174 868 l 174 347 l 0 347 m 174 174 l 174 347 l 521 347 l 521 868 l 174 868 l 174 1042 l 521 1042 l 521 1215 l 694 1215 l 694 1042 l 1042 1042 l 1042 868 l 694 868 l 694 347 l 1042 347 l 1042 174 l 694 174 l 694 0 l 521 0 l 521 174 l 174 174 m 1042 347 l 1042 868 l 1215 868 l 1215 347 l 1042 347 z "},"Х":{"ha":1389,"x_min":0,"x_max":1215,"o":"m 0 0 l 0 174 l 174 174 l 174 0 l 0 0 m 0 1042 l 0 1215 l 174 1215 l 174 1042 l 0 1042 m 174 174 l 174 347 l 347 347 l 347 174 l 174 174 m 174 868 l 174 1042 l 347 1042 l 347 868 l 521 868 l 521 694 l 694 694 l 694 521 l 521 521 l 521 347 l 347 347 l 347 521 l 521 521 l 521 694 l 347 694 l 347 868 l 174 868 m 694 347 l 694 521 l 868 521 l 868 347 l 694 347 m 694 694 l 694 868 l 868 868 l 868 694 l 694 694 m 868 174 l 868 347 l 1042 347 l 1042 174 l 868 174 m 868 868 l 868 1042 l 1042 1042 l 1042 868 l 868 868 m 1042 0 l 1042 174 l 1215 174 l 1215 0 l 1042 0 m 1042 1042 l 1042 1215 l 1215 1215 l 1215 1042 l 1042 1042 z "},"Ц":{"ha":1389,"x_min":174,"x_max":1215,"o":"m 174 174 l 174 1215 l 347 1215 l 347 347 l 868 347 l 868 1215 l 1042 1215 l 1042 347 l 1215 347 l 1215 0 l 1042 0 l 1042 174 l 174 174 z "},"Ч":{"ha":1389,"x_min":174,"x_max":1215,"o":"m 174 521 l 174 1215 l 347 1215 l 347 521 l 174 521 m 347 347 l 347 521 l 1042 521 l 1042 1215 l 1215 1215 l 1215 0 l 1042 0 l 1042 347 l 347 347 z "},"Ш":{"ha":1389,"x_min":0,"x_max":1215,"o":"m 0 0 l 0 1215 l 174 1215 l 174 174 l 521 174 l 521 1215 l 694 1215 l 694 174 l 1042 174 l 1042 1215 l 1215 1215 l 1215 0 l 0 0 z "},"Щ":{"ha":1389,"x_min":0,"x_max":1215,"o":"m 0 174 l 0 1215 l 174 1215 l 174 347 l 521 347 l 521 1215 l 694 1215 l 694 347 l 1042 347 l 1042 1215 l 1215 1215 l 1215 0 l 1042 0 l 1042 174 l 0 174 z "},"Ъ":{"ha":1389,"x_min":174,"x_max":1215,"o":"m 174 1042 l 174 1215 l 521 1215 l 521 694 l 1042 694 l 1042 521 l 521 521 l 521 174 l 1042 174 l 1042 0 l 347 0 l 347 1042 l 174 1042 m 1042 174 l 1042 521 l 1215 521 l 1215 174 l 1042 174 z "},"Ы":{"ha":1389,"x_min":174,"x_max":1215,"o":"m 174 0 l 174 1215 l 347 1215 l 347 694 l 694 694 l 694 521 l 347 521 l 347 174 l 694 174 l 694 0 l 174 0 m 694 174 l 694 521 l 868 521 l 868 174 l 694 174 m 1042 0 l 1042 1215 l 1215 1215 l 1215 0 l 1042 0 z "},"Ь":{"ha":1389,"x_min":347,"x_max":1215,"o":"m 347 0 l 347 1215 l 521 1215 l 521 694 l 1042 694 l 1042 521 l 521 521 l 521 174 l 1042 174 l 1042 0 l 347 0 m 1042 174 l 1042 521 l 1215 521 l 1215 174 l 1042 174 z "},"Э":{"ha":1389,"x_min":174,"x_max":1215,"o":"m 174 174 l 174 347 l 347 347 l 347 174 l 174 174 m 174 868 l 174 1042 l 347 1042 l 347 868 l 174 868 m 347 0 l 347 174 l 1042 174 l 1042 0 l 347 0 m 347 521 l 347 694 l 1042 694 l 1042 1042 l 1215 1042 l 1215 174 l 1042 174 l 1042 521 l 347 521 m 347 1042 l 347 1215 l 1042 1215 l 1042 1042 l 347 1042 z "},"Ю":{"ha":1389,"x_min":0,"x_max":1215,"o":"m 0 0 l 0 1215 l 174 1215 l 174 694 l 347 694 l 347 1042 l 521 1042 l 521 174 l 347 174 l 347 521 l 174 521 l 174 0 l 0 0 m 521 0 l 521 174 l 1042 174 l 1042 0 l 521 0 m 521 1042 l 521 1215 l 1042 1215 l 1042 1042 l 521 1042 m 1042 174 l 1042 1042 l 1215 1042 l 1215 174 l 1042 174 z "},"Я":{"ha":1389,"x_min":174,"x_max":1215,"o":"m 174 0 l 174 174 l 347 174 l 347 0 l 174 0 m 174 694 l 174 1042 l 347 1042 l 347 694 l 174 694 m 347 174 l 347 694 l 1042 694 l 1042 1042 l 347 1042 l 347 1215 l 1215 1215 l 1215 0 l 1042 0 l 1042 521 l 521 521 l 521 174 l 347 174 z "},"а":{"ha":1389,"x_min":174,"x_max":1042,"o":"m 174 174 l 174 347 l 347 347 l 347 521 l 868 521 l 868 694 l 1042 694 l 1042 0 l 347 0 l 347 174 l 868 174 l 868 347 l 347 347 l 347 174 l 174 174 m 347 694 l 347 868 l 868 868 l 868 694 l 347 694 z "},"б":{"ha":1389,"x_min":174,"x_max":1042,"o":"m 174 174 l 174 868 l 347 868 l 347 1042 l 521 1042 l 521 868 l 868 868 l 868 694 l 347 694 l 347 174 l 174 174 m 347 0 l 347 174 l 868 174 l 868 0 l 347 0 m 521 1042 l 521 1215 l 1042 1215 l 1042 1042 l 521 1042 m 868 174 l 868 694 l 1042 694 l 1042 174 l 868 174 z "},"в":{"ha":1389,"x_min":174,"x_max":1042,"o":"m 174 0 l 174 868 l 868 868 l 868 694 l 347 694 l 347 521 l 868 521 l 868 347 l 347 347 l 347 174 l 868 174 l 868 0 l 174 0 m 868 174 l 868 347 l 1042 347 l 1042 174 l 868 174 m 868 521 l 868 694 l 1042 694 l 1042 521 l 868 521 z "},"г":{"ha":1389,"x_min":174,"x_max":1042,"o":"m 174 0 l 174 868 l 1042 868 l 1042 694 l 347 694 l 347 0 l 174 0 z "},"д":{"ha":1389,"x_min":174,"x_max":1042,"o":"m 174 0 l 174 347 l 347 347 l 347 868 l 868 868 l 868 347 l 1042 347 l 1042 0 l 868 0 l 868 174 l 347 174 l 347 0 l 174 0 m 521 347 l 694 347 l 694 694 l 521 694 l 521 347 z "},"е":{"ha":1389,"x_min":174,"x_max":1042,"o":"m 174 174 l 174 694 l 347 694 l 347 521 l 868 521 l 868 694 l 1042 694 l 1042 347 l 347 347 l 347 174 l 174 174 m 347 0 l 347 174 l 868 174 l 868 0 l 347 0 m 347 694 l 347 868 l 868 868 l 868 694 l 347 694 z "},"ж":{"ha":1389,"x_min":0,"x_max":1215,"o":"m 0 0 l 0 174 l 174 174 l 174 0 l 0 0 m 0 694 l 0 868 l 174 868 l 174 694 l 0 694 m 174 174 l 174 347 l 347 347 l 347 174 l 174 174 m 174 521 l 174 694 l 347 694 l 347 521 l 174 521 m 347 347 l 347 521 l 521 521 l 521 868 l 694 868 l 694 521 l 868 521 l 868 347 l 694 347 l 694 0 l 521 0 l 521 347 l 347 347 m 868 174 l 868 347 l 1042 347 l 1042 174 l 868 174 m 868 521 l 868 694 l 1042 694 l 1042 521 l 868 521 m 1042 0 l 1042 174 l 1215 174 l 1215 0 l 1042 0 m 1042 694 l 1042 868 l 1215 868 l 1215 694 l 1042 694 z "},"з":{"ha":1389,"x_min":174,"x_max":1042,"o":"m 174 174 l 174 347 l 347 347 l 347 174 l 174 174 m 174 521 l 174 694 l 347 694 l 347 521 l 174 521 m 347 0 l 347 174 l 868 174 l 868 0 l 347 0 m 347 694 l 347 868 l 868 868 l 868 694 l 347 694 m 521 347 l 521 521 l 868 521 l 868 694 l 1042 694 l 1042 521 l 868 521 l 868 347 l 521 347 m 868 174 l 868 347 l 1042 347 l 1042 174 l 868 174 z "},"и":{"ha":1389,"x_min":174,"x_max":1042,"o":"m 174 0 l 174 868 l 347 868 l 347 347 l 521 347 l 521 174 l 347 174 l 347 0 l 174 0 m 521 347 l 521 521 l 694 521 l 694 347 l 521 347 m 694 521 l 694 694 l 868 694 l 868 868 l 1042 868 l 1042 0 l 868 0 l 868 521 l 694 521 z "},"й":{"ha":1389,"x_min":174,"x_max":1042,"o":"m 174 0 l 174 868 l 347 868 l 347 347 l 521 347 l 521 174 l 347 174 l 347 0 l 174 0 m 347 1042 l 347 1215 l 521 1215 l 521 1042 l 347 1042 m 521 347 l 521 521 l 694 521 l 694 347 l 521 347 m 521 868 l 521 1042 l 694 1042 l 694 868 l 521 868 m 694 521 l 694 694 l 868 694 l 868 868 l 1042 868 l 1042 0 l 868 0 l 868 521 l 694 521 m 694 1042 l 694 1215 l 868 1215 l 868 1042 l 694 1042 z "},"к":{"ha":1389,"x_min":174,"x_max":1042,"o":"m 174 0 l 174 868 l 347 868 l 347 521 l 521 521 l 521 694 l 694 694 l 694 347 l 347 347 l 347 0 l 174 0 m 694 174 l 694 347 l 868 347 l 868 174 l 694 174 m 694 694 l 694 868 l 1042 868 l 1042 694 l 694 694 m 868 0 l 868 174 l 1042 174 l 1042 0 l 868 0 z "},"л":{"ha":1389,"x_min":0,"x_max":1042,"o":"m 0 0 l 0 174 l 347 174 l 347 0 l 0 0 m 347 174 l 347 868 l 1042 868 l 1042 0 l 868 0 l 868 694 l 521 694 l 521 174 l 347 174 z "},"м":{"ha":1389,"x_min":174,"x_max":1042,"o":"m 174 0 l 174 868 l 347 868 l 347 694 l 521 694 l 521 521 l 347 521 l 347 0 l 174 0 m 521 174 l 521 521 l 694 521 l 694 174 l 521 174 m 694 521 l 694 694 l 868 694 l 868 868 l 1042 868 l 1042 0 l 868 0 l 868 521 l 694 521 z "},"н":{"ha":1389,"x_min":174,"x_max":1042,"o":"m 174 0 l 174 868 l 347 868 l 347 521 l 868 521 l 868 868 l 1042 868 l 1042 0 l 868 0 l 868 347 l 347 347 l 347 0 l 174 0 z "},"о":{"ha":1389,"x_min":174,"x_max":1042,"o":"m 174 174 l 174 694 l 347 694 l 347 174 l 174 174 m 347 0 l 347 174 l 868 174 l 868 0 l 347 0 m 347 694 l 347 868 l 868 868 l 868 694 l 347 694 m 868 174 l 868 694 l 1042 694 l 1042 174 l 868 174 z "},"п":{"ha":1389,"x_min":174,"x_max":1042,"o":"m 174 0 l 174 868 l 1042 868 l 1042 0 l 868 0 l 868 694 l 347 694 l 347 0 l 174 0 z "},"р":{"ha":1389,"x_min":174,"x_max":1042,"o":"m 174 0 l 174 868 l 868 868 l 868 694 l 347 694 l 347 347 l 868 347 l 868 174 l 347 174 l 347 0 l 174 0 m 868 347 l 868 694 l 1042 694 l 1042 347 l 868 347 z "},"с":{"ha":1389,"x_min":174,"x_max":1042,"o":"m 174 174 l 174 694 l 347 694 l 347 174 l 174 174 m 347 0 l 347 174 l 868 174 l 868 0 l 347 0 m 347 694 l 347 868 l 868 868 l 868 694 l 347 694 m 868 174 l 868 347 l 1042 347 l 1042 174 l 868 174 m 868 521 l 868 694 l 1042 694 l 1042 521 l 868 521 z "},"т":{"ha":1389,"x_min":174,"x_max":1042,"o":"m 174 694 l 174 868 l 1042 868 l 1042 694 l 694 694 l 694 0 l 521 0 l 521 694 l 174 694 z "},"у":{"ha":1389,"x_min":174,"x_max":1042,"o":"m 174 0 l 174 174 l 521 174 l 521 347 l 347 347 l 347 694 l 521 694 l 521 347 l 694 347 l 694 174 l 521 174 l 521 0 l 174 0 m 174 694 l 174 868 l 347 868 l 347 694 l 174 694 m 694 347 l 694 694 l 868 694 l 868 347 l 694 347 m 868 694 l 868 868 l 1042 868 l 1042 694 l 868 694 z "},"ф":{"ha":1389,"x_min":174,"x_max":1042,"o":"m 174 347 l 174 694 l 347 694 l 347 347 l 174 347 m 347 174 l 347 347 l 521 347 l 521 694 l 347 694 l 347 868 l 521 868 l 521 1215 l 694 1215 l 694 868 l 868 868 l 868 694 l 694 694 l 694 347 l 868 347 l 868 174 l 694 174 l 694 0 l 521 0 l 521 174 l 347 174 m 868 347 l 868 694 l 1042 694 l 1042 347 l 868 347 z "},"х":{"ha":1389,"x_min":174,"x_max":1042,"o":"m 174 0 l 174 174 l 347 174 l 347 0 l 174 0 m 174 694 l 174 868 l 347 868 l 347 694 l 174 694 m 347 174 l 347 347 l 521 347 l 521 521 l 347 521 l 347 694 l 521 694 l 521 521 l 694 521 l 694 347 l 521 347 l 521 174 l 347 174 m 694 174 l 694 347 l 868 347 l 868 174 l 694 174 m 694 521 l 694 694 l 868 694 l 868 521 l 694 521 m 868 0 l 868 174 l 1042 174 l 1042 0 l 868 0 m 868 694 l 868 868 l 1042 868 l 1042 694 l 868 694 z "},"ц":{"ha":1389,"x_min":174,"x_max":1042,"o":"m 174 174 l 174 868 l 347 868 l 347 347 l 694 347 l 694 868 l 868 868 l 868 347 l 1042 347 l 1042 0 l 868 0 l 868 174 l 174 174 z "},"ч":{"ha":1389,"x_min":174,"x_max":1042,"o":"m 174 347 l 174 868 l 347 868 l 347 347 l 174 347 m 347 174 l 347 347 l 868 347 l 868 868 l 1042 868 l 1042 0 l 868 0 l 868 174 l 347 174 z "},"ш":{"ha":1389,"x_min":174,"x_max":1042,"o":"m 174 0 l 174 868 l 347 868 l 347 174 l 521 174 l 521 868 l 694 868 l 694 174 l 868 174 l 868 868 l 1042 868 l 1042 0 l 174 0 z "},"щ":{"ha":1389,"x_min":174,"x_max":1215,"o":"m 174 174 l 174 868 l 347 868 l 347 347 l 521 347 l 521 868 l 694 868 l 694 347 l 868 347 l 868 868 l 1042 868 l 1042 347 l 1215 347 l 1215 0 l 1042 0 l 1042 174 l 174 174 z "},"ъ":{"ha":1389,"x_min":174,"x_max":1215,"o":"m 174 694 l 174 868 l 521 868 l 521 521 l 1042 521 l 1042 347 l 521 347 l 521 174 l 1042 174 l 1042 0 l 347 0 l 347 694 l 174 694 m 1042 174 l 1042 347 l 1215 347 l 1215 174 l 1042 174 z "},"ы":{"ha":1389,"x_min":174,"x_max":1042,"o":"m 174 0 l 174 868 l 347 868 l 347 521 l 694 521 l 694 347 l 347 347 l 347 174 l 694 174 l 694 0 l 174 0 m 694 174 l 694 347 l 868 347 l 868 868 l 1042 868 l 1042 0 l 868 0 l 868 174 l 694 174 z "},"ь":{"ha":1389,"x_min":174,"x_max":1042,"o":"m 174 0 l 174 868 l 347 868 l 347 521 l 868 521 l 868 347 l 347 347 l 347 174 l 868 174 l 868 0 l 174 0 m 868 174 l 868 347 l 1042 347 l 1042 174 l 868 174 z "},"э":{"ha":1389,"x_min":174,"x_max":1042,"o":"m 174 174 l 174 347 l 347 347 l 347 174 l 174 174 m 174 521 l 174 694 l 347 694 l 347 521 l 174 521 m 347 0 l 347 174 l 868 174 l 868 0 l 347 0 m 347 694 l 347 868 l 868 868 l 868 694 l 347 694 m 521 347 l 521 521 l 868 521 l 868 694 l 1042 694 l 1042 174 l 868 174 l 868 347 l 521 347 z "},"ю":{"ha":1389,"x_min":174,"x_max":1215,"o":"m 174 0 l 174 868 l 347 868 l 347 521 l 521 521 l 521 694 l 694 694 l 694 174 l 521 174 l 521 347 l 347 347 l 347 0 l 174 0 m 694 0 l 694 174 l 1042 174 l 1042 0 l 694 0 m 694 694 l 694 868 l 1042 868 l 1042 694 l 694 694 m 1042 174 l 1042 694 l 1215 694 l 1215 174 l 1042 174 z "},"я":{"ha":1389,"x_min":174,"x_max":1042,"o":"m 174 0 l 174 174 l 347 174 l 347 0 l 174 0 m 174 521 l 174 694 l 347 694 l 347 521 l 174 521 m 347 174 l 347 521 l 868 521 l 868 694 l 347 694 l 347 868 l 1042 868 l 1042 0 l 868 0 l 868 347 l 521 347 l 521 174 l 347 174 z "},"ё":{"ha":1389,"x_min":174,"x_max":1042,"o":"m 174 174 l 174 694 l 347 694 l 347 521 l 868 521 l 868 694 l 1042 694 l 1042 347 l 347 347 l 347 174 l 174 174 m 347 0 l 347 174 l 868 174 l 868 0 l 347 0 m 347 694 l 347 868 l 868 868 l 868 694 l 347 694 m 347 1042 l 347 1215 l 521 1215 l 521 1042 l 347 1042 m 694 1042 l 694 1215 l 868 1215 l 868 1042 l 694 1042 z "},"‐":{"ha":1389,"x_min":521,"x_max":868,"o":"m 521 521 l 521 694 l 868 694 l 868 521 l 521 521 z "},"‑":{"ha":694,"x_min":174,"x_max":521,"o":"m 174 521 l 174 694 l 521 694 l 521 521 l 174 521 z "},"‒":{"ha":694,"x_min":0,"x_max":521,"o":"m 0 521 l 0 694 l 521 694 l 521 521 l 0 521 z "},"–":{"ha":1389,"x_min":347,"x_max":1042,"o":"m 347 521 l 347 694 l 1042 694 l 1042 521 l 347 521 z "},"—":{"ha":1389,"x_min":0,"x_max":1215,"o":"m 0 521 l 0 694 l 1215 694 l 1215 521 l 0 521 z "},"―":{"ha":1389,"x_min":0,"x_max":1389,"o":"m 0 521 l 0 694 l 1389 694 l 1389 521 l 0 521 z "},"‖":{"ha":1389,"x_min":347,"x_max":868,"o":"m 347 0 l 347 1215 l 521 1215 l 521 0 l 347 0 m 694 0 l 694 1215 l 868 1215 l 868 0 l 694 0 z "},"‘":{"ha":1389,"x_min":694,"x_max":1042,"o":"m 694 694 l 694 1042 l 868 1042 l 868 868 l 1042 868 l 1042 694 l 694 694 m 868 1042 l 868 1215 l 1042 1215 l 1042 1042 l 868 1042 z "},"’":{"ha":1389,"x_min":174,"x_max":521,"o":"m 174 694 l 174 868 l 347 868 l 347 694 l 174 694 m 174 1042 l 174 1215 l 521 1215 l 521 868 l 347 868 l 347 1042 l 174 1042 z "},"“":{"ha":1389,"x_min":174,"x_max":1042,"o":"m 174 694 l 174 1042 l 347 1042 l 347 868 l 521 868 l 521 694 l 174 694 m 347 1042 l 347 1215 l 521 1215 l 521 1042 l 347 1042 m 694 694 l 694 1042 l 868 1042 l 868 868 l 1042 868 l 1042 694 l 694 694 m 868 1042 l 868 1215 l 1042 1215 l 1042 1042 l 868 1042 z "},"”":{"ha":1389,"x_min":174,"x_max":1042,"o":"m 174 694 l 174 868 l 347 868 l 347 694 l 174 694 m 174 1042 l 174 1215 l 521 1215 l 521 868 l 347 868 l 347 1042 l 174 1042 m 694 694 l 694 868 l 868 868 l 868 694 l 694 694 m 694 1042 l 694 1215 l 1042 1215 l 1042 868 l 868 868 l 868 1042 l 694 1042 z "},"†":{"ha":1389,"x_min":347,"x_max":868,"o":"m 347 868 l 347 1042 l 521 1042 l 521 1215 l 694 1215 l 694 1042 l 868 1042 l 868 868 l 694 868 l 694 0 l 521 0 l 521 868 l 347 868 z "},"‡":{"ha":1389,"x_min":347,"x_max":868,"o":"m 347 174 l 347 347 l 521 347 l 521 868 l 347 868 l 347 1042 l 521 1042 l 521 1215 l 694 1215 l 694 1042 l 868 1042 l 868 868 l 694 868 l 694 347 l 868 347 l 868 174 l 694 174 l 694 0 l 521 0 l 521 174 l 347 174 z "},"‥":{"ha":1389,"x_min":174,"x_max":1042,"o":"m 174 521 l 174 694 l 347 694 l 347 521 l 174 521 m 868 521 l 868 694 l 1042 694 l 1042 521 l 868 521 z "},"…":{"ha":1389,"x_min":0,"x_max":1215,"o":"m 0 521 l 0 694 l 174 694 l 174 521 l 0 521 m 521 521 l 521 694 l 694 694 l 694 521 l 521 521 m 1042 521 l 1042 694 l 1215 694 l 1215 521 l 1042 521 z "},"‰":{"ha":1389,"x_min":0,"x_max":1215,"o":"m 0 174 l 0 347 l 174 347 l 174 174 l 0 174 m 0 868 l 0 1042 l 174 1042 l 174 868 l 0 868 m 174 347 l 174 521 l 347 521 l 347 694 l 174 694 l 174 868 l 347 868 l 347 1042 l 521 1042 l 521 868 l 347 868 l 347 694 l 521 694 l 521 868 l 694 868 l 694 694 l 521 694 l 521 521 l 347 521 l 347 347 l 174 347 m 174 1042 l 174 1215 l 347 1215 l 347 1042 l 174 1042 m 347 174 l 347 347 l 521 347 l 521 174 l 347 174 m 521 0 l 521 174 l 694 174 l 694 0 l 521 0 m 521 347 l 521 521 l 694 521 l 694 347 l 521 347 m 694 174 l 694 347 l 868 347 l 868 174 l 694 174 m 694 868 l 694 1042 l 868 1042 l 868 868 l 694 868 m 868 0 l 868 174 l 1042 174 l 1042 0 l 868 0 m 868 347 l 868 521 l 1042 521 l 1042 347 l 868 347 m 868 1042 l 868 1215 l 1042 1215 l 1042 1042 l 868 1042 m 1042 174 l 1042 347 l 1215 347 l 1215 174 l 1042 174 z "},"′":{"ha":1389,"x_min":174,"x_max":521,"o":"m 174 694 l 174 868 l 347 868 l 347 694 l 174 694 m 347 868 l 347 1215 l 521 1215 l 521 868 l 347 868 z "},"″":{"ha":1389,"x_min":174,"x_max":868,"o":"m 174 694 l 174 868 l 347 868 l 347 694 l 174 694 m 347 868 l 347 1215 l 521 1215 l 521 868 l 347 868 m 521 694 l 521 868 l 694 868 l 694 694 l 521 694 m 694 868 l 694 1215 l 868 1215 l 868 868 l 694 868 z "},"※":{"ha":1389,"x_min":0,"x_max":1215,"o":"m 0 0 l 0 174 l 174 174 l 174 0 l 0 0 m 0 521 l 0 694 l 174 694 l 174 521 l 0 521 m 0 1042 l 0 1215 l 174 1215 l 174 1042 l 0 1042 m 174 174 l 174 347 l 347 347 l 347 174 l 174 174 m 174 868 l 174 1042 l 347 1042 l 347 868 l 521 868 l 521 694 l 694 694 l 694 521 l 521 521 l 521 347 l 347 347 l 347 521 l 521 521 l 521 694 l 347 694 l 347 868 l 174 868 m 521 0 l 521 174 l 694 174 l 694 0 l 521 0 m 521 1042 l 521 1215 l 694 1215 l 694 1042 l 521 1042 m 694 347 l 694 521 l 868 521 l 868 347 l 694 347 m 694 694 l 694 868 l 868 868 l 868 694 l 694 694 m 868 174 l 868 347 l 1042 347 l 1042 174 l 868 174 m 868 868 l 868 1042 l 1042 1042 l 1042 868 l 868 868 m 1042 0 l 1042 174 l 1215 174 l 1215 0 l 1042 0 m 1042 521 l 1042 694 l 1215 694 l 1215 521 l 1042 521 m 1042 1042 l 1042 1215 l 1215 1215 l 1215 1042 l 1042 1042 z "},"‾":{"ha":1389,"x_min":0,"x_max":1215,"o":"m 0 1042 l 0 1215 l 1215 1215 l 1215 1042 l 0 1042 z "},"℃":{"ha":1389,"x_min":0,"x_max":1215,"o":"m 0 868 l 0 1042 l 174 1042 l 174 868 l 0 868 m 174 694 l 174 868 l 347 868 l 347 694 l 174 694 m 174 1042 l 174 1215 l 347 1215 l 347 1042 l 174 1042 m 347 868 l 347 1042 l 521 1042 l 521 868 l 347 868 m 521 174 l 521 868 l 694 868 l 694 174 l 521 174 m 694 0 l 694 174 l 1042 174 l 1042 0 l 694 0 m 694 868 l 694 1042 l 1042 1042 l 1042 868 l 694 868 m 1042 174 l 1042 347 l 1215 347 l 1215 174 l 1042 174 m 1042 694 l 1042 868 l 1215 868 l 1215 694 l 1042 694 z "},"№":{"ha":1389,"x_min":0,"x_max":1215,"o":"m 0 0 l 0 1215 l 174 1215 l 174 868 l 347 868 l 347 694 l 174 694 l 174 0 l 0 0 m 347 521 l 347 694 l 521 694 l 521 1215 l 694 1215 l 694 694 l 868 694 l 868 174 l 694 174 l 694 0 l 521 0 l 521 521 l 347 521 m 868 0 l 868 174 l 1042 174 l 1042 0 l 868 0 m 868 694 l 868 868 l 1042 868 l 1042 694 l 868 694 m 1042 174 l 1042 694 l 1215 694 l 1215 174 l 1042 174 z "},"℡":{"ha":1389,"x_min":0,"x_max":1215,"o":"m 0 1042 l 0 1215 l 521 1215 l 521 1042 l 347 1042 l 347 0 l 174 0 l 174 1042 l 0 1042 m 521 174 l 521 694 l 694 694 l 694 521 l 868 521 l 868 347 l 694 347 l 694 174 l 521 174 m 694 0 l 694 174 l 868 174 l 868 0 l 694 0 m 694 694 l 694 868 l 868 868 l 868 694 l 694 694 m 868 521 l 868 694 l 1042 694 l 1042 1215 l 1215 1215 l 1215 0 l 1042 0 l 1042 521 l 868 521 z "},"Å":{"ha":1389,"x_min":0,"x_max":1215,"o":"m 0 0 l 0 174 l 174 174 l 174 0 l 0 0 m 174 174 l 174 521 l 347 521 l 347 347 l 868 347 l 868 521 l 694 521 l 694 694 l 868 694 l 868 521 l 1042 521 l 1042 174 l 174 174 m 347 521 l 347 694 l 521 694 l 521 868 l 694 868 l 694 1042 l 868 1042 l 868 868 l 694 868 l 694 694 l 521 694 l 521 521 l 347 521 m 347 868 l 347 1042 l 521 1042 l 521 868 l 347 868 m 521 1042 l 521 1215 l 694 1215 l 694 1042 l 521 1042 m 1042 0 l 1042 174 l 1215 174 l 1215 0 l 1042 0 z "},"Ⅰ":{"ha":1389,"x_min":521,"x_max":694,"o":"m 521 0 l 521 1215 l 694 1215 l 694 0 l 521 0 z "},"Ⅱ":{"ha":1389,"x_min":347,"x_max":868,"o":"m 347 0 l 347 1215 l 521 1215 l 521 0 l 347 0 m 694 0 l 694 1215 l 868 1215 l 868 0 l 694 0 z "},"Ⅲ":{"ha":1389,"x_min":174,"x_max":1042,"o":"m 174 0 l 174 1215 l 347 1215 l 347 0 l 174 0 m 521 0 l 521 1215 l 694 1215 l 694 0 l 521 0 m 868 0 l 868 1215 l 1042 1215 l 1042 0 l 868 0 z "},"Ⅳ":{"ha":1389,"x_min":0,"x_max":1215,"o":"m 0 0 l 0 1215 l 174 1215 l 174 0 l 0 0 m 347 868 l 347 1215 l 521 1215 l 521 868 l 347 868 m 521 347 l 521 868 l 694 868 l 694 347 l 521 347 m 694 0 l 694 347 l 868 347 l 868 0 l 694 0 m 868 347 l 868 868 l 1042 868 l 1042 347 l 868 347 m 1042 868 l 1042 1215 l 1215 1215 l 1215 868 l 1042 868 z "},"Ⅴ":{"ha":1389,"x_min":174,"x_max":1042,"o":"m 174 868 l 174 1215 l 347 1215 l 347 868 l 174 868 m 347 347 l 347 868 l 521 868 l 521 347 l 347 347 m 521 0 l 521 347 l 694 347 l 694 0 l 521 0 m 694 347 l 694 868 l 868 868 l 868 347 l 694 347 m 868 868 l 868 1215 l 1042 1215 l 1042 868 l 868 868 z "},"Ⅵ":{"ha":1389,"x_min":0,"x_max":1215,"o":"m 0 868 l 0 1215 l 174 1215 l 174 868 l 0 868 m 174 347 l 174 868 l 347 868 l 347 347 l 174 347 m 347 0 l 347 347 l 521 347 l 521 0 l 347 0 m 521 347 l 521 868 l 694 868 l 694 347 l 521 347 m 694 868 l 694 1215 l 868 1215 l 868 868 l 694 868 m 1042 0 l 1042 1215 l 1215 1215 l 1215 0 l 1042 0 z "},"Ⅶ":{"ha":1389,"x_min":0,"x_max":1215,"o":"m 0 347 l 0 1215 l 174 1215 l 174 347 l 0 347 m 174 0 l 174 347 l 347 347 l 347 0 l 174 0 m 347 347 l 347 1215 l 521 1215 l 521 347 l 347 347 m 694 0 l 694 1215 l 868 1215 l 868 0 l 694 0 m 1042 0 l 1042 1215 l 1215 1215 l 1215 0 l 1042 0 z "},"Ⅷ":{"ha":1389,"x_min":0,"x_max":1215,"o":"m 0 521 l 0 1215 l 174 1215 l 174 521 l 0 521 m 174 0 l 174 521 l 347 521 l 347 0 l 174 0 m 347 521 l 347 1215 l 868 1215 l 868 0 l 521 0 l 521 521 l 347 521 m 1042 0 l 1042 1215 l 1215 1215 l 1215 0 l 1042 0 z "},"Ⅸ":{"ha":1389,"x_min":0,"x_max":1215,"o":"m 0 0 l 0 1215 l 174 1215 l 174 0 l 0 0 m 347 0 l 347 174 l 521 174 l 521 0 l 347 0 m 347 1042 l 347 1215 l 521 1215 l 521 1042 l 347 1042 m 521 174 l 521 521 l 694 521 l 694 694 l 521 694 l 521 1042 l 694 1042 l 694 694 l 868 694 l 868 521 l 694 521 l 694 174 l 521 174 m 868 174 l 868 521 l 1042 521 l 1042 174 l 868 174 m 868 694 l 868 1042 l 1042 1042 l 1042 694 l 868 694 m 1042 0 l 1042 174 l 1215 174 l 1215 0 l 1042 0 m 1042 1042 l 1042 1215 l 1215 1215 l 1215 1042 l 1042 1042 z "},"Ⅹ":{"ha":1389,"x_min":174,"x_max":1042,"o":"m 174 0 l 174 174 l 347 174 l 347 0 l 174 0 m 174 1042 l 174 1215 l 347 1215 l 347 1042 l 174 1042 m 347 174 l 347 521 l 521 521 l 521 694 l 347 694 l 347 1042 l 521 1042 l 521 694 l 694 694 l 694 521 l 521 521 l 521 174 l 347 174 m 694 174 l 694 521 l 868 521 l 868 174 l 694 174 m 694 694 l 694 1042 l 868 1042 l 868 694 l 694 694 m 868 0 l 868 174 l 1042 174 l 1042 0 l 868 0 m 868 1042 l 868 1215 l 1042 1215 l 1042 1042 l 868 1042 z "},"←":{"ha":1389,"x_min":0,"x_max":1215,"o":"m 0 521 l 0 694 l 174 694 l 174 868 l 347 868 l 347 694 l 1215 694 l 1215 521 l 347 521 l 347 347 l 174 347 l 174 521 l 0 521 m 347 174 l 347 347 l 521 347 l 521 174 l 347 174 m 347 868 l 347 1042 l 521 1042 l 521 868 l 347 868 z "},"↑":{"ha":1389,"x_min":174,"x_max":1042,"o":"m 174 694 l 174 868 l 347 868 l 347 694 l 174 694 m 347 868 l 347 1042 l 521 1042 l 521 1215 l 694 1215 l 694 1042 l 868 1042 l 868 868 l 694 868 l 694 0 l 521 0 l 521 868 l 347 868 m 868 694 l 868 868 l 1042 868 l 1042 694 l 868 694 z "},"→":{"ha":1389,"x_min":0,"x_max":1215,"o":"m 0 521 l 0 694 l 868 694 l 868 868 l 1042 868 l 1042 694 l 1215 694 l 1215 521 l 1042 521 l 1042 347 l 868 347 l 868 174 l 694 174 l 694 347 l 868 347 l 868 521 l 0 521 m 694 868 l 694 1042 l 868 1042 l 868 868 l 694 868 z "},"↓":{"ha":1389,"x_min":174,"x_max":1042,"o":"m 174 347 l 174 521 l 347 521 l 347 347 l 174 347 m 347 174 l 347 347 l 521 347 l 521 1215 l 694 1215 l 694 347 l 868 347 l 868 174 l 694 174 l 694 0 l 521 0 l 521 174 l 347 174 m 868 347 l 868 521 l 1042 521 l 1042 347 l 868 347 z "},"⇒":{"ha":1389,"x_min":0,"x_max":1215,"o":"m 0 347 l 0 521 l 1042 521 l 1042 694 l 1215 694 l 1215 521 l 1042 521 l 1042 347 l 868 347 l 868 174 l 694 174 l 694 347 l 0 347 m 0 694 l 0 868 l 694 868 l 694 1042 l 868 1042 l 868 868 l 1042 868 l 1042 694 l 0 694 z "},"⇔":{"ha":1389,"x_min":0,"x_max":1215,"o":"m 0 521 l 0 694 l 174 694 l 174 521 l 0 521 m 174 347 l 174 521 l 1042 521 l 1042 347 l 868 347 l 868 174 l 694 174 l 694 347 l 521 347 l 521 174 l 347 174 l 347 347 l 174 347 m 174 694 l 174 868 l 347 868 l 347 1042 l 521 1042 l 521 868 l 694 868 l 694 1042 l 868 1042 l 868 868 l 1042 868 l 1042 694 l 174 694 m 1042 521 l 1042 694 l 1215 694 l 1215 521 l 1042 521 z "},"∀":{"ha":1389,"x_min":0,"x_max":1215,"o":"m 0 868 l 0 1215 l 174 1215 l 174 868 l 0 868 m 174 521 l 174 868 l 1042 868 l 1042 521 l 868 521 l 868 174 l 694 174 l 694 521 l 868 521 l 868 694 l 347 694 l 347 521 l 174 521 m 347 174 l 347 521 l 521 521 l 521 174 l 347 174 m 521 0 l 521 174 l 694 174 l 694 0 l 521 0 m 1042 868 l 1042 1215 l 1215 1215 l 1215 868 l 1042 868 z "},"∂":{"ha":1389,"x_min":174,"x_max":1042,"o":"m 174 174 l 174 521 l 347 521 l 347 174 l 174 174 m 347 0 l 347 174 l 694 174 l 694 0 l 347 0 m 347 521 l 347 694 l 694 694 l 694 521 l 347 521 m 347 868 l 347 1042 l 521 1042 l 521 868 l 347 868 m 521 1042 l 521 1215 l 868 1215 l 868 1042 l 521 1042 m 694 174 l 694 521 l 868 521 l 868 174 l 694 174 m 868 521 l 868 1042 l 1042 1042 l 1042 521 l 868 521 z "},"∃":{"ha":1389,"x_min":174,"x_max":1215,"o":"m 174 0 l 174 174 l 1042 174 l 1042 521 l 174 521 l 174 694 l 1042 694 l 1042 1042 l 174 1042 l 174 1215 l 1215 1215 l 1215 0 l 174 0 z "},"∇":{"ha":1389,"x_min":0,"x_max":1215,"o":"m 0 868 l 0 1215 l 1215 1215 l 1215 868 l 1042 868 l 1042 1042 l 174 1042 l 174 868 l 0 868 m 174 521 l 174 868 l 347 868 l 347 521 l 174 521 m 347 174 l 347 521 l 521 521 l 521 174 l 347 174 m 521 0 l 521 174 l 694 174 l 694 0 l 521 0 m 694 174 l 694 521 l 868 521 l 868 174 l 694 174 m 868 521 l 868 868 l 1042 868 l 1042 521 l 868 521 z "},"∈":{"ha":1389,"x_min":174,"x_max":1215,"o":"m 174 347 l 174 868 l 347 868 l 347 694 l 1215 694 l 1215 521 l 347 521 l 347 347 l 174 347 m 347 174 l 347 347 l 1215 347 l 1215 174 l 347 174 m 347 868 l 347 1042 l 1215 1042 l 1215 868 l 347 868 z "},"∋":{"ha":1389,"x_min":174,"x_max":1215,"o":"m 174 174 l 174 347 l 1042 347 l 1042 521 l 174 521 l 174 694 l 1042 694 l 1042 868 l 1215 868 l 1215 347 l 1042 347 l 1042 174 l 174 174 m 174 868 l 174 1042 l 1042 1042 l 1042 868 l 174 868 z "},"∑":{"ha":1389,"x_min":174,"x_max":1215,"o":"m 174 0 l 174 174 l 347 174 l 347 347 l 521 347 l 521 174 l 1215 174 l 1215 0 l 174 0 m 174 1042 l 174 1215 l 1215 1215 l 1215 1042 l 521 1042 l 521 868 l 347 868 l 347 1042 l 174 1042 m 521 347 l 521 521 l 694 521 l 694 694 l 521 694 l 521 868 l 694 868 l 694 694 l 868 694 l 868 521 l 694 521 l 694 347 l 521 347 z "},"−":{"ha":694,"x_min":0,"x_max":521,"o":"m 0 521 l 0 694 l 521 694 l 521 521 l 0 521 z "},"√":{"ha":1389,"x_min":0,"x_max":1215,"o":"m 0 347 l 0 521 l 347 521 l 347 868 l 521 868 l 521 347 l 347 347 l 347 0 l 174 0 l 174 347 l 0 347 m 521 868 l 521 1215 l 1215 1215 l 1215 1042 l 694 1042 l 694 868 l 521 868 z "},"∝":{"ha":1389,"x_min":0,"x_max":1215,"o":"m 0 347 l 0 868 l 174 868 l 174 347 l 0 347 m 174 174 l 174 347 l 521 347 l 521 174 l 174 174 m 174 868 l 174 1042 l 521 1042 l 521 868 l 174 868 m 521 347 l 521 868 l 694 868 l 694 347 l 521 347 m 694 174 l 694 347 l 1042 347 l 1042 174 l 694 174 m 694 868 l 694 1042 l 1042 1042 l 1042 868 l 694 868 m 1042 347 l 1042 521 l 1215 521 l 1215 347 l 1042 347 m 1042 694 l 1042 868 l 1215 868 l 1215 694 l 1042 694 z "},"∞":{"ha":1389,"x_min":0,"x_max":1215,"o":"m 0 347 l 0 868 l 174 868 l 174 347 l 0 347 m 174 174 l 174 347 l 521 347 l 521 174 l 174 174 m 174 868 l 174 1042 l 521 1042 l 521 868 l 174 868 m 521 347 l 521 868 l 694 868 l 694 347 l 521 347 m 694 174 l 694 347 l 1042 347 l 1042 174 l 694 174 m 694 868 l 694 1042 l 1042 1042 l 1042 868 l 694 868 m 1042 347 l 1042 868 l 1215 868 l 1215 347 l 1042 347 z "},"∟":{"ha":1389,"x_min":174,"x_max":1215,"o":"m 174 0 l 174 1042 l 347 1042 l 347 174 l 1215 174 l 1215 0 l 174 0 z "},"∠":{"ha":1389,"x_min":174,"x_max":1215,"o":"m 174 0 l 174 174 l 347 174 l 347 347 l 521 347 l 521 174 l 1215 174 l 1215 0 l 174 0 m 521 347 l 521 521 l 694 521 l 694 347 l 521 347 m 694 521 l 694 694 l 868 694 l 868 521 l 694 521 m 868 694 l 868 868 l 1042 868 l 1042 694 l 868 694 m 1042 868 l 1042 1042 l 1215 1042 l 1215 868 l 1042 868 z "},"∥":{"ha":1389,"x_min":174,"x_max":1042,"o":"m 174 0 l 174 347 l 347 347 l 347 0 l 174 0 m 347 347 l 347 868 l 521 868 l 521 347 l 347 347 m 521 0 l 521 347 l 694 347 l 694 0 l 521 0 m 521 868 l 521 1215 l 694 1215 l 694 868 l 521 868 m 694 347 l 694 868 l 868 868 l 868 347 l 694 347 m 868 868 l 868 1215 l 1042 1215 l 1042 868 l 868 868 z "},"∧":{"ha":1389,"x_min":0,"x_max":1215,"o":"m 0 0 l 0 174 l 174 174 l 174 0 l 0 0 m 174 174 l 174 521 l 347 521 l 347 174 l 174 174 m 347 521 l 347 868 l 521 868 l 521 521 l 347 521 m 521 868 l 521 1215 l 694 1215 l 694 868 l 521 868 m 694 521 l 694 868 l 868 868 l 868 521 l 694 521 m 868 174 l 868 521 l 1042 521 l 1042 174 l 868 174 m 1042 0 l 1042 174 l 1215 174 l 1215 0 l 1042 0 z "},"∨":{"ha":1389,"x_min":0,"x_max":1215,"o":"m 0 1042 l 0 1215 l 174 1215 l 174 1042 l 0 1042 m 174 694 l 174 1042 l 347 1042 l 347 694 l 174 694 m 347 347 l 347 694 l 521 694 l 521 347 l 347 347 m 521 0 l 521 347 l 694 347 l 694 0 l 521 0 m 694 347 l 694 694 l 868 694 l 868 347 l 694 347 m 868 694 l 868 1042 l 1042 1042 l 1042 694 l 868 694 m 1042 1042 l 1042 1215 l 1215 1215 l 1215 1042 l 1042 1042 z "},"∩":{"ha":1389,"x_min":174,"x_max":1215,"o":"m 174 0 l 174 868 l 347 868 l 347 0 l 174 0 m 347 868 l 347 1042 l 1042 1042 l 1042 868 l 347 868 m 1042 0 l 1042 868 l 1215 868 l 1215 0 l 1042 0 z "},"∪":{"ha":1389,"x_min":174,"x_max":1215,"o":"m 174 347 l 174 1215 l 347 1215 l 347 347 l 174 347 m 347 174 l 347 347 l 1042 347 l 1042 174 l 347 174 m 1042 347 l 1042 1215 l 1215 1215 l 1215 347 l 1042 347 z "},"∫":{"ha":1389,"x_min":347,"x_max":868,"o":"m 347 0 l 347 174 l 694 174 l 694 521 l 521 521 l 521 694 l 694 694 l 694 521 l 868 521 l 868 174 l 694 174 l 694 0 l 347 0 m 347 694 l 347 1042 l 521 1042 l 521 694 l 347 694 m 521 1042 l 521 1215 l 868 1215 l 868 1042 l 521 1042 z "},"∬":{"ha":1389,"x_min":174,"x_max":1215,"o":"m 174 0 l 174 174 l 521 174 l 521 521 l 347 521 l 347 694 l 521 694 l 521 521 l 694 521 l 694 174 l 521 174 l 521 0 l 174 0 m 174 694 l 174 1042 l 347 1042 l 347 694 l 174 694 m 347 1042 l 347 1215 l 694 1215 l 694 1042 l 347 1042 m 694 0 l 694 174 l 1042 174 l 1042 0 l 694 0 m 694 694 l 694 1042 l 868 1042 l 868 694 l 694 694 m 868 521 l 868 694 l 1042 694 l 1042 521 l 868 521 m 868 1042 l 868 1215 l 1215 1215 l 1215 1042 l 868 1042 m 1042 174 l 1042 521 l 1215 521 l 1215 174 l 1042 174 z "},"∮":{"ha":1389,"x_min":174,"x_max":1042,"o":"m 174 521 l 174 694 l 347 694 l 347 521 l 174 521 m 347 0 l 347 174 l 694 174 l 694 0 l 347 0 m 347 347 l 347 521 l 521 521 l 521 694 l 347 694 l 347 1042 l 521 1042 l 521 868 l 868 868 l 868 694 l 694 694 l 694 521 l 868 521 l 868 174 l 694 174 l 694 347 l 347 347 m 521 1042 l 521 1215 l 868 1215 l 868 1042 l 521 1042 m 868 521 l 868 694 l 1042 694 l 1042 521 l 868 521 z "},"∴":{"ha":1389,"x_min":174,"x_max":1042,"o":"m 174 174 l 174 347 l 347 347 l 347 174 l 174 174 m 521 868 l 521 1042 l 694 1042 l 694 868 l 521 868 m 868 174 l 868 347 l 1042 347 l 1042 174 l 868 174 z "},"∵":{"ha":1389,"x_min":174,"x_max":1042,"o":"m 174 868 l 174 1042 l 347 1042 l 347 868 l 174 868 m 521 174 l 521 347 l 694 347 l 694 174 l 521 174 m 868 868 l 868 1042 l 1042 1042 l 1042 868 l 868 868 z "},"∽":{"ha":1389,"x_min":0,"x_max":1215,"o":"m 0 347 l 0 868 l 174 868 l 174 347 l 0 347 m 174 174 l 174 347 l 521 347 l 521 174 l 174 174 m 174 868 l 174 1042 l 347 1042 l 347 868 l 174 868 m 521 347 l 521 868 l 694 868 l 694 347 l 521 347 m 694 868 l 694 1042 l 1042 1042 l 1042 868 l 694 868 m 868 174 l 868 347 l 1042 347 l 1042 868 l 1215 868 l 1215 347 l 1042 347 l 1042 174 l 868 174 z "},"≒":{"ha":1389,"x_min":0,"x_max":1215,"o":"m 0 347 l 0 521 l 1215 521 l 1215 347 l 0 347 m 0 694 l 0 868 l 1215 868 l 1215 694 l 0 694 m 174 1042 l 174 1215 l 347 1215 l 347 1042 l 174 1042 m 868 0 l 868 174 l 1042 174 l 1042 0 l 868 0 z "},"≠":{"ha":1389,"x_min":0,"x_max":1215,"o":"m 0 347 l 0 521 l 521 521 l 521 694 l 0 694 l 0 868 l 868 868 l 868 1042 l 1042 1042 l 1042 868 l 1215 868 l 1215 694 l 694 694 l 694 521 l 1215 521 l 1215 347 l 347 347 l 347 174 l 174 174 l 174 347 l 0 347 z "},"≡":{"ha":1389,"x_min":174,"x_max":1215,"o":"m 174 174 l 174 347 l 1215 347 l 1215 174 l 174 174 m 174 521 l 174 694 l 1215 694 l 1215 521 l 174 521 m 174 868 l 174 1042 l 1215 1042 l 1215 868 l 174 868 z "},"≦":{"ha":1389,"x_min":0,"x_max":1215,"o":"m 0 0 l 0 174 l 1215 174 l 1215 0 l 0 0 m 0 694 l 0 868 l 347 868 l 347 694 l 0 694 m 347 521 l 347 694 l 868 694 l 868 521 l 347 521 m 347 868 l 347 1042 l 868 1042 l 868 868 l 347 868 m 868 347 l 868 521 l 1215 521 l 1215 347 l 868 347 m 868 1042 l 868 1215 l 1215 1215 l 1215 1042 l 868 1042 z "},"≧":{"ha":1389,"x_min":0,"x_max":1215,"o":"m 0 0 l 0 174 l 1215 174 l 1215 0 l 0 0 m 0 347 l 0 521 l 347 521 l 347 347 l 0 347 m 0 1042 l 0 1215 l 347 1215 l 347 1042 l 0 1042 m 347 521 l 347 694 l 868 694 l 868 868 l 347 868 l 347 1042 l 868 1042 l 868 868 l 1215 868 l 1215 694 l 868 694 l 868 521 l 347 521 z "},"≪":{"ha":1389,"x_min":0,"x_max":1042,"o":"m 0 521 l 0 694 l 174 694 l 174 521 l 0 521 m 174 347 l 174 521 l 347 521 l 347 347 l 174 347 m 174 694 l 174 868 l 347 868 l 347 694 l 174 694 m 347 174 l 347 347 l 521 347 l 521 174 l 347 174 m 347 868 l 347 1042 l 521 1042 l 521 868 l 347 868 m 521 521 l 521 694 l 694 694 l 694 521 l 521 521 m 694 347 l 694 521 l 868 521 l 868 347 l 694 347 m 694 694 l 694 868 l 868 868 l 868 694 l 694 694 m 868 174 l 868 347 l 1042 347 l 1042 174 l 868 174 m 868 868 l 868 1042 l 1042 1042 l 1042 868 l 868 868 z "},"≫":{"ha":1389,"x_min":174,"x_max":1215,"o":"m 174 174 l 174 347 l 347 347 l 347 174 l 174 174 m 174 868 l 174 1042 l 347 1042 l 347 868 l 174 868 m 347 347 l 347 521 l 521 521 l 521 694 l 347 694 l 347 868 l 521 868 l 521 694 l 694 694 l 694 521 l 521 521 l 521 347 l 347 347 m 694 174 l 694 347 l 868 347 l 868 174 l 694 174 m 694 868 l 694 1042 l 868 1042 l 868 868 l 694 868 m 868 347 l 868 521 l 1042 521 l 1042 694 l 868 694 l 868 868 l 1042 868 l 1042 694 l 1215 694 l 1215 521 l 1042 521 l 1042 347 l 868 347 z "},"⊂":{"ha":1389,"x_min":174,"x_max":1215,"o":"m 174 347 l 174 868 l 347 868 l 347 347 l 174 347 m 347 174 l 347 347 l 1215 347 l 1215 174 l 347 174 m 347 868 l 347 1042 l 1215 1042 l 1215 868 l 347 868 z "},"⊃":{"ha":1389,"x_min":174,"x_max":1215,"o":"m 174 174 l 174 347 l 1042 347 l 1042 868 l 1215 868 l 1215 347 l 1042 347 l 1042 174 l 174 174 m 174 868 l 174 1042 l 1042 1042 l 1042 868 l 174 868 z "},"⊆":{"ha":1389,"x_min":174,"x_max":1215,"o":"m 174 0 l 174 174 l 1215 174 l 1215 0 l 174 0 m 174 521 l 174 1042 l 347 1042 l 347 521 l 174 521 m 347 347 l 347 521 l 1215 521 l 1215 347 l 347 347 m 347 1042 l 347 1215 l 1215 1215 l 1215 1042 l 347 1042 z "},"⊇":{"ha":1389,"x_min":174,"x_max":1215,"o":"m 174 0 l 174 174 l 1215 174 l 1215 0 l 174 0 m 174 347 l 174 521 l 1042 521 l 1042 1042 l 1215 1042 l 1215 521 l 1042 521 l 1042 347 l 174 347 m 174 1042 l 174 1215 l 1042 1215 l 1042 1042 l 174 1042 z "},"⊥":{"ha":1389,"x_min":0,"x_max":1215,"o":"m 0 0 l 0 174 l 521 174 l 521 1042 l 694 1042 l 694 174 l 1215 174 l 1215 0 l 0 0 z "},"⊿":{"ha":1389,"x_min":174,"x_max":1215,"o":"m 174 0 l 174 174 l 347 174 l 347 347 l 521 347 l 521 174 l 1042 174 l 1042 694 l 868 694 l 868 868 l 1042 868 l 1042 1042 l 1215 1042 l 1215 0 l 174 0 m 521 347 l 521 521 l 694 521 l 694 347 l 521 347 m 694 521 l 694 694 l 868 694 l 868 521 l 694 521 z "},"⌒":{"ha":1389,"x_min":0,"x_max":1215,"o":"m 0 868 l 0 1042 l 174 1042 l 174 868 l 0 868 m 174 1042 l 174 1215 l 1042 1215 l 1042 1042 l 174 1042 m 1042 868 l 1042 1042 l 1215 1042 l 1215 868 l 1042 868 z "},"①":{"ha":1389,"x_min":0,"x_max":1215,"o":"m 0 174 l 0 1042 l 174 1042 l 174 174 l 0 174 m 174 0 l 174 174 l 521 174 l 521 694 l 347 694 l 347 868 l 521 868 l 521 1042 l 174 1042 l 174 1215 l 1042 1215 l 1042 1042 l 694 1042 l 694 174 l 1042 174 l 1042 0 l 174 0 m 1042 174 l 1042 1042 l 1215 1042 l 1215 174 l 1042 174 z "},"②":{"ha":1389,"x_min":0,"x_max":1215,"o":"m 0 174 l 0 1042 l 174 1042 l 174 174 l 0 174 m 174 0 l 174 174 l 347 174 l 347 521 l 521 521 l 521 347 l 868 347 l 868 174 l 1042 174 l 1042 1042 l 1215 1042 l 1215 174 l 1042 174 l 1042 0 l 174 0 m 174 1042 l 174 1215 l 1042 1215 l 1042 1042 l 694 1042 l 694 868 l 347 868 l 347 1042 l 174 1042 m 521 521 l 521 694 l 694 694 l 694 868 l 868 868 l 868 694 l 694 694 l 694 521 l 521 521 z "},"③":{"ha":1389,"x_min":0,"x_max":1215,"o":"m 0 174 l 0 1042 l 174 1042 l 174 174 l 0 174 m 174 0 l 174 174 l 347 174 l 347 347 l 694 347 l 694 521 l 868 521 l 868 347 l 694 347 l 694 174 l 1042 174 l 1042 1042 l 1215 1042 l 1215 174 l 1042 174 l 1042 0 l 174 0 m 174 1042 l 174 1215 l 1042 1215 l 1042 1042 l 694 1042 l 694 868 l 347 868 l 347 1042 l 174 1042 m 521 521 l 521 694 l 694 694 l 694 868 l 868 868 l 868 694 l 694 694 l 694 521 l 521 521 z "},"④":{"ha":1389,"x_min":0,"x_max":1215,"o":"m 0 174 l 0 1042 l 174 1042 l 174 174 l 0 174 m 174 0 l 174 174 l 694 174 l 694 347 l 347 347 l 347 694 l 521 694 l 521 868 l 694 868 l 694 1042 l 174 1042 l 174 1215 l 1042 1215 l 1042 1042 l 868 1042 l 868 174 l 1042 174 l 1042 0 l 174 0 m 521 521 l 694 521 l 694 694 l 521 694 l 521 521 m 1042 174 l 1042 1042 l 1215 1042 l 1215 174 l 1042 174 z "},"⑤":{"ha":1389,"x_min":0,"x_max":1215,"o":"m 0 174 l 0 1042 l 174 1042 l 174 174 l 0 174 m 174 0 l 174 174 l 347 174 l 347 347 l 694 347 l 694 521 l 868 521 l 868 347 l 694 347 l 694 174 l 1042 174 l 1042 1042 l 1215 1042 l 1215 174 l 1042 174 l 1042 0 l 174 0 m 174 1042 l 174 1215 l 1042 1215 l 1042 1042 l 868 1042 l 868 868 l 521 868 l 521 694 l 694 694 l 694 521 l 347 521 l 347 1042 l 174 1042 z "},"⑥":{"ha":1389,"x_min":0,"x_max":1215,"o":"m 0 174 l 0 1042 l 174 1042 l 174 174 l 0 174 m 174 0 l 174 174 l 521 174 l 521 347 l 694 347 l 694 174 l 1042 174 l 1042 0 l 174 0 m 174 1042 l 174 1215 l 1042 1215 l 1042 1042 l 868 1042 l 868 868 l 521 868 l 521 1042 l 174 1042 m 347 347 l 347 868 l 521 868 l 521 694 l 694 694 l 694 521 l 521 521 l 521 347 l 347 347 m 694 347 l 694 521 l 868 521 l 868 347 l 694 347 m 1042 174 l 1042 1042 l 1215 1042 l 1215 174 l 1042 174 z "},"⑦":{"ha":1389,"x_min":0,"x_max":1215,"o":"m 0 174 l 0 1042 l 174 1042 l 174 174 l 0 174 m 174 0 l 174 174 l 521 174 l 521 694 l 694 694 l 694 174 l 1042 174 l 1042 1042 l 1215 1042 l 1215 174 l 1042 174 l 1042 0 l 174 0 m 174 1042 l 174 1215 l 1042 1215 l 1042 1042 l 868 1042 l 868 694 l 694 694 l 694 868 l 347 868 l 347 1042 l 174 1042 z "},"⑧":{"ha":1389,"x_min":0,"x_max":1215,"o":"m 0 174 l 0 1042 l 174 1042 l 174 174 l 0 174 m 174 0 l 174 174 l 521 174 l 521 347 l 694 347 l 694 174 l 1042 174 l 1042 0 l 174 0 m 174 1042 l 174 1215 l 1042 1215 l 1042 1042 l 694 1042 l 694 868 l 521 868 l 521 1042 l 174 1042 m 347 347 l 347 521 l 521 521 l 521 694 l 694 694 l 694 868 l 868 868 l 868 694 l 694 694 l 694 521 l 521 521 l 521 347 l 347 347 m 347 694 l 347 868 l 521 868 l 521 694 l 347 694 m 694 347 l 694 521 l 868 521 l 868 347 l 694 347 m 1042 174 l 1042 1042 l 1215 1042 l 1215 174 l 1042 174 z "},"⑨":{"ha":1389,"x_min":0,"x_max":1215,"o":"m 0 174 l 0 1042 l 174 1042 l 174 174 l 0 174 m 174 0 l 174 174 l 347 174 l 347 347 l 694 347 l 694 521 l 521 521 l 521 694 l 694 694 l 694 868 l 868 868 l 868 347 l 694 347 l 694 174 l 1042 174 l 1042 1042 l 1215 1042 l 1215 174 l 1042 174 l 1042 0 l 174 0 m 174 1042 l 174 1215 l 1042 1215 l 1042 1042 l 694 1042 l 694 868 l 521 868 l 521 1042 l 174 1042 m 347 694 l 347 868 l 521 868 l 521 694 l 347 694 z "},"⑩":{"ha":1389,"x_min":0,"x_max":1215,"o":"m 0 174 l 0 1042 l 174 1042 l 174 1215 l 1042 1215 l 1042 1042 l 521 1042 l 521 174 l 1042 174 l 1042 0 l 174 0 l 174 174 l 0 174 m 174 174 l 347 174 l 347 694 l 174 694 l 174 174 m 174 868 l 347 868 l 347 1042 l 174 1042 l 174 868 m 694 347 l 694 868 l 1042 868 l 1042 1042 l 1215 1042 l 1215 174 l 1042 174 l 1042 347 l 694 347 m 868 521 l 1042 521 l 1042 694 l 868 694 l 868 521 z "},"⑪":{"ha":1389,"x_min":0,"x_max":1215,"o":"m 0 174 l 0 1042 l 174 1042 l 174 1215 l 1042 1215 l 1042 1042 l 1215 1042 l 1215 174 l 1042 174 l 1042 0 l 174 0 l 174 174 l 0 174 m 174 174 l 347 174 l 347 694 l 174 694 l 174 174 m 174 868 l 347 868 l 347 1042 l 174 1042 l 174 868 m 521 174 l 868 174 l 868 694 l 694 694 l 694 868 l 868 868 l 868 1042 l 521 1042 l 521 174 z "},"⑫":{"ha":1389,"x_min":0,"x_max":1215,"o":"m 0 174 l 0 1042 l 174 1042 l 174 1215 l 1042 1215 l 1042 1042 l 1215 1042 l 1215 174 l 1042 174 l 1042 0 l 174 0 l 174 174 l 0 174 m 174 174 l 347 174 l 347 694 l 174 694 l 174 174 m 174 868 l 347 868 l 347 1042 l 174 1042 l 174 868 m 521 174 l 694 174 l 694 694 l 868 694 l 868 868 l 694 868 l 694 1042 l 521 1042 l 521 174 m 868 347 l 1042 347 l 1042 521 l 868 521 l 868 347 m 868 868 l 1042 868 l 1042 1042 l 868 1042 l 868 868 z "},"⑬":{"ha":1389,"x_min":0,"x_max":1215,"o":"m 0 174 l 0 1042 l 174 1042 l 174 1215 l 1042 1215 l 1042 1042 l 868 1042 l 868 868 l 694 868 l 694 1042 l 521 1042 l 521 174 l 694 174 l 694 347 l 868 347 l 868 174 l 1042 174 l 1042 0 l 174 0 l 174 174 l 0 174 m 174 174 l 347 174 l 347 694 l 174 694 l 174 174 m 174 868 l 347 868 l 347 1042 l 174 1042 l 174 868 m 694 521 l 694 694 l 868 694 l 868 868 l 1042 868 l 1042 1042 l 1215 1042 l 1215 174 l 1042 174 l 1042 347 l 868 347 l 868 521 l 1042 521 l 1042 694 l 868 694 l 868 521 l 694 521 z "},"⑭":{"ha":1389,"x_min":0,"x_max":1215,"o":"m 0 174 l 0 1042 l 174 1042 l 174 1215 l 1042 1215 l 1042 1042 l 1215 1042 l 1215 174 l 1042 174 l 1042 0 l 174 0 l 174 174 l 0 174 m 174 174 l 347 174 l 347 694 l 174 694 l 174 174 m 174 868 l 347 868 l 347 1042 l 174 1042 l 174 868 m 521 174 l 868 174 l 868 347 l 694 347 l 694 1042 l 521 1042 l 521 174 m 868 694 l 1042 694 l 1042 1042 l 868 1042 l 868 694 z "},"⑮":{"ha":1389,"x_min":0,"x_max":1215,"o":"m 0 174 l 0 1042 l 174 1042 l 174 1215 l 1042 1215 l 1042 1042 l 1215 1042 l 1215 174 l 1042 174 l 1042 0 l 174 0 l 174 174 l 0 174 m 174 174 l 347 174 l 347 694 l 174 694 l 174 174 m 174 868 l 347 868 l 347 1042 l 174 1042 l 174 868 m 521 174 l 694 174 l 694 347 l 868 347 l 868 521 l 694 521 l 694 1042 l 521 1042 l 521 174 m 868 174 l 1042 174 l 1042 347 l 868 347 l 868 174 m 868 694 l 1042 694 l 1042 868 l 868 868 l 868 694 z "},"⑯":{"ha":1389,"x_min":0,"x_max":1215,"o":"m 0 174 l 0 1042 l 174 1042 l 174 1215 l 1042 1215 l 1042 1042 l 1215 1042 l 1215 174 l 1042 174 l 1042 0 l 174 0 l 174 174 l 0 174 m 174 174 l 347 174 l 347 694 l 174 694 l 174 174 m 174 868 l 347 868 l 347 1042 l 174 1042 l 174 868 m 521 174 l 694 174 l 694 868 l 868 868 l 868 1042 l 521 1042 l 521 174 m 868 694 l 1042 694 l 1042 868 l 868 868 l 868 694 z "},"⑰":{"ha":1389,"x_min":0,"x_max":1215,"o":"m 0 174 l 0 1042 l 174 1042 l 174 1215 l 1042 1215 l 1042 1042 l 1215 1042 l 1215 174 l 1042 174 l 1042 0 l 174 0 l 174 174 l 0 174 m 174 174 l 347 174 l 347 694 l 174 694 l 174 174 m 174 868 l 347 868 l 347 1042 l 174 1042 l 174 868 m 521 174 l 694 174 l 694 694 l 868 694 l 868 868 l 694 868 l 694 1042 l 521 1042 l 521 174 m 868 174 l 1042 174 l 1042 694 l 868 694 l 868 174 z "},"⑱":{"ha":1389,"x_min":0,"x_max":1215,"o":"m 0 174 l 0 1042 l 174 1042 l 174 1215 l 1042 1215 l 1042 1042 l 1215 1042 l 1215 174 l 1042 174 l 1042 0 l 174 0 l 174 174 l 0 174 m 174 174 l 347 174 l 347 694 l 174 694 l 174 174 m 174 868 l 347 868 l 347 1042 l 174 1042 l 174 868 m 521 174 l 694 174 l 694 521 l 1042 521 l 1042 694 l 694 694 l 694 1042 l 521 1042 l 521 174 z "},"⑲":{"ha":1389,"x_min":0,"x_max":1215,"o":"m 0 174 l 0 1042 l 174 1042 l 174 1215 l 1042 1215 l 1042 1042 l 1215 1042 l 1215 174 l 1042 174 l 1042 0 l 174 0 l 174 174 l 0 174 m 174 174 l 347 174 l 347 694 l 174 694 l 174 174 m 174 868 l 347 868 l 347 1042 l 174 1042 l 174 868 m 521 174 l 694 174 l 694 347 l 868 347 l 868 521 l 694 521 l 694 1042 l 521 1042 l 521 174 m 868 174 l 1042 174 l 1042 347 l 868 347 l 868 174 z "},"⑳":{"ha":1389,"x_min":0,"x_max":1215,"o":"m 0 174 l 0 1042 l 174 1042 l 174 1215 l 1042 1215 l 1042 1042 l 521 1042 l 521 521 l 347 521 l 347 347 l 521 347 l 521 174 l 1042 174 l 1042 0 l 174 0 l 174 174 l 0 174 m 174 694 l 347 694 l 347 868 l 174 868 l 174 694 m 694 347 l 694 868 l 1042 868 l 1042 1042 l 1215 1042 l 1215 174 l 1042 174 l 1042 347 l 694 347 m 868 521 l 1042 521 l 1042 694 l 868 694 l 868 521 z "},"─":{"ha":1389,"x_min":0,"x_max":1389,"o":"m 0 521 l 0 694 l 1389 694 l 1389 521 l 0 521 z "},"━":{"ha":1389,"x_min":0,"x_max":1389,"o":"m 0 347 l 0 694 l 1389 694 l 1389 347 l 0 347 z "},"│":{"ha":1389,"x_min":521,"x_max":694,"o":"m 521 -174 l 521 1215 l 694 1215 l 694 -174 l 521 -174 z "},"┃":{"ha":1389,"x_min":521,"x_max":868,"o":"m 521 -174 l 521 1215 l 868 1215 l 868 -174 l 521 -174 z "},"┌":{"ha":1389,"x_min":521,"x_max":1389,"o":"m 521 -174 l 521 694 l 1389 694 l 1389 521 l 694 521 l 694 -174 l 521 -174 z "},"┏":{"ha":1389,"x_min":521,"x_max":1389,"o":"m 521 -174 l 521 694 l 1389 694 l 1389 347 l 868 347 l 868 -174 l 521 -174 z "},"┐":{"ha":1389,"x_min":0,"x_max":694,"o":"m 0 521 l 0 694 l 694 694 l 694 -174 l 521 -174 l 521 521 l 0 521 z "},"┓":{"ha":1389,"x_min":0,"x_max":868,"o":"m 0 347 l 0 694 l 868 694 l 868 -174 l 521 -174 l 521 347 l 0 347 z "},"└":{"ha":1389,"x_min":521,"x_max":1389,"o":"m 521 521 l 521 1215 l 694 1215 l 694 694 l 1389 694 l 1389 521 l 521 521 z "},"┗":{"ha":1389,"x_min":521,"x_max":1389,"o":"m 521 347 l 521 1215 l 868 1215 l 868 694 l 1389 694 l 1389 347 l 521 347 z "},"┘":{"ha":1389,"x_min":0,"x_max":694,"o":"m 0 521 l 0 694 l 521 694 l 521 1215 l 694 1215 l 694 521 l 0 521 z "},"┛":{"ha":1389,"x_min":0,"x_max":868,"o":"m 0 347 l 0 694 l 521 694 l 521 1215 l 868 1215 l 868 347 l 0 347 z "},"├":{"ha":1389,"x_min":521,"x_max":1389,"o":"m 521 -174 l 521 1215 l 694 1215 l 694 694 l 1389 694 l 1389 521 l 694 521 l 694 -174 l 521 -174 z "},"┝":{"ha":1389,"x_min":521,"x_max":1389,"o":"m 521 -174 l 521 1215 l 694 1215 l 694 694 l 1389 694 l 1389 347 l 694 347 l 694 -174 l 521 -174 z "},"┠":{"ha":1389,"x_min":521,"x_max":1389,"o":"m 521 -174 l 521 1215 l 868 1215 l 868 694 l 1389 694 l 1389 521 l 868 521 l 868 -174 l 521 -174 z "},"┣":{"ha":1389,"x_min":521,"x_max":1389,"o":"m 521 -174 l 521 1215 l 868 1215 l 868 694 l 1389 694 l 1389 347 l 868 347 l 868 -174 l 521 -174 z "},"┤":{"ha":1389,"x_min":0,"x_max":694,"o":"m 0 521 l 0 694 l 521 694 l 521 1215 l 694 1215 l 694 -174 l 521 -174 l 521 521 l 0 521 z "},"┥":{"ha":1389,"x_min":0,"x_max":694,"o":"m 0 347 l 0 694 l 521 694 l 521 1215 l 694 1215 l 694 -174 l 521 -174 l 521 347 l 0 347 z "},"┨":{"ha":1389,"x_min":0,"x_max":868,"o":"m 0 521 l 0 694 l 521 694 l 521 1215 l 868 1215 l 868 -174 l 521 -174 l 521 521 l 0 521 z "},"┫":{"ha":1389,"x_min":0,"x_max":868,"o":"m 0 347 l 0 694 l 521 694 l 521 1215 l 868 1215 l 868 -174 l 521 -174 l 521 347 l 0 347 z "},"┬":{"ha":1389,"x_min":0,"x_max":1389,"o":"m 0 521 l 0 694 l 1389 694 l 1389 521 l 694 521 l 694 -174 l 521 -174 l 521 521 l 0 521 z "},"┯":{"ha":1389,"x_min":0,"x_max":1389,"o":"m 0 347 l 0 694 l 1389 694 l 1389 347 l 694 347 l 694 -174 l 521 -174 l 521 347 l 0 347 z "},"┰":{"ha":1389,"x_min":0,"x_max":1389,"o":"m 0 521 l 0 694 l 1389 694 l 1389 521 l 868 521 l 868 -174 l 521 -174 l 521 521 l 0 521 z "},"┳":{"ha":1389,"x_min":0,"x_max":1389,"o":"m 0 347 l 0 694 l 1389 694 l 1389 347 l 868 347 l 868 -174 l 521 -174 l 521 347 l 0 347 z "},"┴":{"ha":1389,"x_min":0,"x_max":1389,"o":"m 0 521 l 0 694 l 521 694 l 521 1215 l 694 1215 l 694 694 l 1389 694 l 1389 521 l 0 521 z "},"┷":{"ha":1389,"x_min":0,"x_max":1389,"o":"m 0 347 l 0 694 l 521 694 l 521 1215 l 694 1215 l 694 694 l 1389 694 l 1389 347 l 0 347 z "},"┸":{"ha":1389,"x_min":0,"x_max":1389,"o":"m 0 521 l 0 694 l 521 694 l 521 1215 l 868 1215 l 868 694 l 1389 694 l 1389 521 l 0 521 z "},"┻":{"ha":1389,"x_min":0,"x_max":1389,"o":"m 0 347 l 0 694 l 521 694 l 521 1215 l 868 1215 l 868 694 l 1389 694 l 1389 347 l 0 347 z "},"┼":{"ha":1389,"x_min":0,"x_max":1389,"o":"m 0 521 l 0 694 l 521 694 l 521 1215 l 694 1215 l 694 694 l 1389 694 l 1389 521 l 694 521 l 694 -174 l 521 -174 l 521 521 l 0 521 z "},"┿":{"ha":1389,"x_min":0,"x_max":1389,"o":"m 0 347 l 0 694 l 521 694 l 521 1215 l 694 1215 l 694 694 l 1389 694 l 1389 347 l 694 347 l 694 -174 l 521 -174 l 521 347 l 0 347 z "},"╂":{"ha":1389,"x_min":0,"x_max":1389,"o":"m 0 521 l 0 694 l 521 694 l 521 1215 l 868 1215 l 868 694 l 1389 694 l 1389 521 l 868 521 l 868 -174 l 521 -174 l 521 521 l 0 521 z "},"╋":{"ha":1389,"x_min":0,"x_max":1389,"o":"m 0 347 l 0 694 l 521 694 l 521 1215 l 868 1215 l 868 694 l 1389 694 l 1389 347 l 868 347 l 868 -174 l 521 -174 l 521 347 l 0 347 z "},"═":{"ha":1389,"x_min":0,"x_max":1389,"o":"m 0 347 l 0 521 l 1389 521 l 1389 347 l 0 347 m 0 694 l 0 868 l 1389 868 l 1389 694 l 0 694 z "},"╞":{"ha":1389,"x_min":521,"x_max":1389,"o":"m 521 -174 l 521 1215 l 694 1215 l 694 868 l 1389 868 l 1389 694 l 694 694 l 694 521 l 1389 521 l 1389 347 l 694 347 l 694 -174 l 521 -174 z "},"╡":{"ha":1389,"x_min":0,"x_max":694,"o":"m 0 347 l 0 521 l 521 521 l 521 694 l 0 694 l 0 868 l 521 868 l 521 1215 l 694 1215 l 694 -174 l 521 -174 l 521 347 l 0 347 z "},"╪":{"ha":1389,"x_min":0,"x_max":1389,"o":"m 0 347 l 0 521 l 521 521 l 521 694 l 0 694 l 0 868 l 521 868 l 521 1215 l 694 1215 l 694 868 l 1389 868 l 1389 694 l 694 694 l 694 521 l 1389 521 l 1389 347 l 694 347 l 694 -174 l 521 -174 l 521 347 l 0 347 z "},"╭":{"ha":1389,"x_min":521,"x_max":1389,"o":"m 521 -174 l 521 347 l 694 347 l 694 -174 l 521 -174 m 694 347 l 694 521 l 868 521 l 868 347 l 694 347 m 868 521 l 868 694 l 1389 694 l 1389 521 l 868 521 z "},"╮":{"ha":1389,"x_min":0,"x_max":694,"o":"m 0 521 l 0 694 l 347 694 l 347 521 l 0 521 m 347 347 l 347 521 l 521 521 l 521 347 l 347 347 m 521 -174 l 521 347 l 694 347 l 694 -174 l 521 -174 z "},"╯":{"ha":1389,"x_min":0,"x_max":694,"o":"m 0 521 l 0 694 l 347 694 l 347 521 l 0 521 m 347 694 l 347 868 l 521 868 l 521 694 l 347 694 m 521 868 l 521 1215 l 694 1215 l 694 868 l 521 868 z "},"╰":{"ha":1389,"x_min":521,"x_max":1389,"o":"m 521 868 l 521 1215 l 694 1215 l 694 868 l 521 868 m 694 694 l 694 868 l 868 868 l 868 694 l 694 694 m 868 521 l 868 694 l 1389 694 l 1389 521 l 868 521 z "},"╱":{"ha":1389,"x_min":0,"x_max":1389,"o":"m 0 0 l 174 0 l 174 -174 l 0 -174 l 0 0 m 174 0 l 174 174 l 347 174 l 347 0 l 174 0 m 347 174 l 347 347 l 521 347 l 521 174 l 347 174 m 521 347 l 521 521 l 694 521 l 694 347 l 521 347 m 694 521 l 694 694 l 868 694 l 868 521 l 694 521 m 868 694 l 868 868 l 1042 868 l 1042 694 l 868 694 m 1042 868 l 1042 1042 l 1215 1042 l 1215 868 l 1042 868 m 1215 1042 l 1215 1215 l 1389 1215 l 1389 1042 l 1215 1042 z "},"╲":{"ha":1389,"x_min":0,"x_max":1389,"o":"m 0 1042 l 0 1215 l 174 1215 l 174 1042 l 0 1042 m 174 868 l 174 1042 l 347 1042 l 347 868 l 174 868 m 347 694 l 347 868 l 521 868 l 521 694 l 347 694 m 521 521 l 521 694 l 694 694 l 694 521 l 521 521 m 694 347 l 694 521 l 868 521 l 868 347 l 694 347 m 868 174 l 868 347 l 1042 347 l 1042 174 l 868 174 m 1042 0 l 1042 174 l 1215 174 l 1215 0 l 1042 0 m 1215 0 l 1389 0 l 1389 -174 l 1215 -174 l 1215 0 z "},"╳":{"ha":1389,"x_min":0,"x_max":1389,"o":"m 0 0 l 174 0 l 174 -174 l 0 -174 l 0 0 m 0 1042 l 0 1215 l 174 1215 l 174 1042 l 0 1042 m 174 0 l 174 174 l 347 174 l 347 0 l 174 0 m 174 868 l 174 1042 l 347 1042 l 347 868 l 521 868 l 521 694 l 868 694 l 868 347 l 521 347 l 521 174 l 347 174 l 347 347 l 521 347 l 521 694 l 347 694 l 347 868 l 174 868 m 868 174 l 868 347 l 1042 347 l 1042 174 l 868 174 m 868 694 l 868 868 l 1042 868 l 1042 694 l 868 694 m 1042 0 l 1042 174 l 1215 174 l 1215 0 l 1042 0 m 1042 868 l 1042 1042 l 1215 1042 l 1215 868 l 1042 868 m 1215 0 l 1389 0 l 1389 -174 l 1215 -174 l 1215 0 m 1215 1042 l 1215 1215 l 1389 1215 l 1389 1042 l 1215 1042 z "},"▁":{"ha":1389,"x_min":0,"x_max":1389,"o":"m 0 0 l 1389 0 l 1389 -174 l 0 -174 l 0 0 z "},"▂":{"ha":1389,"x_min":0,"x_max":1389,"o":"m 0 -174 l 0 174 l 1389 174 l 1389 -174 l 0 -174 z "},"▃":{"ha":1389,"x_min":0,"x_max":1389,"o":"m 0 -174 l 0 347 l 1389 347 l 1389 -174 l 0 -174 z "},"▄":{"ha":1389,"x_min":0,"x_max":1389,"o":"m 0 -174 l 0 521 l 1389 521 l 1389 -174 l 0 -174 z "},"▅":{"ha":1389,"x_min":0,"x_max":1389,"o":"m 0 -174 l 0 694 l 1389 694 l 1389 -174 l 0 -174 z "},"▆":{"ha":1389,"x_min":0,"x_max":1389,"o":"m 0 -174 l 0 868 l 1389 868 l 1389 -174 l 0 -174 z "},"▇":{"ha":1389,"x_min":0,"x_max":1389,"o":"m 0 -174 l 0 1042 l 1389 1042 l 1389 -174 l 0 -174 z "},"█":{"ha":1389,"x_min":0,"x_max":1389,"o":"m 0 -174 l 0 1215 l 1389 1215 l 1389 -174 l 0 -174 z "},"▉":{"ha":1389,"x_min":0,"x_max":1215,"o":"m 0 -174 l 0 1215 l 1215 1215 l 1215 -174 l 0 -174 z "},"▊":{"ha":1389,"x_min":0,"x_max":1042,"o":"m 0 -174 l 0 1215 l 1042 1215 l 1042 -174 l 0 -174 z "},"▋":{"ha":1389,"x_min":0,"x_max":868,"o":"m 0 -174 l 0 1215 l 868 1215 l 868 -174 l 0 -174 z "},"▌":{"ha":1389,"x_min":0,"x_max":694,"o":"m 0 -174 l 0 1215 l 694 1215 l 694 -174 l 0 -174 z "},"▍":{"ha":1389,"x_min":0,"x_max":521,"o":"m 0 -174 l 0 1215 l 521 1215 l 521 -174 l 0 -174 z "},"▎":{"ha":1389,"x_min":0,"x_max":347,"o":"m 0 -174 l 0 1215 l 347 1215 l 347 -174 l 0 -174 z "},"▏":{"ha":1389,"x_min":0,"x_max":174,"o":"m 0 -174 l 0 1215 l 174 1215 l 174 -174 l 0 -174 z "},"▔":{"ha":1389,"x_min":0,"x_max":1389,"o":"m 0 1042 l 0 1215 l 1389 1215 l 1389 1042 l 0 1042 z "},"▕":{"ha":1389,"x_min":1215,"x_max":1389,"o":"m 1215 -174 l 1215 1215 l 1389 1215 l 1389 -174 l 1215 -174 z "},"■":{"ha":1389,"x_min":0,"x_max":1215,"o":"m 0 0 l 0 1215 l 1215 1215 l 1215 0 l 0 0 z "},"□":{"ha":1389,"x_min":0,"x_max":1215,"o":"m 0 0 l 0 1215 l 1215 1215 l 1215 0 l 0 0 m 174 174 l 1042 174 l 1042 1042 l 174 1042 l 174 174 z "},"▲":{"ha":1389,"x_min":0,"x_max":1215,"o":"m 0 0 l 0 174 l 174 174 l 174 521 l 347 521 l 347 868 l 521 868 l 521 1215 l 694 1215 l 694 868 l 868 868 l 868 521 l 1042 521 l 1042 174 l 1215 174 l 1215 0 l 0 0 z "},"△":{"ha":1389,"x_min":0,"x_max":1215,"o":"m 0 0 l 0 174 l 174 174 l 174 521 l 347 521 l 347 174 l 868 174 l 868 521 l 694 521 l 694 868 l 868 868 l 868 521 l 1042 521 l 1042 174 l 1215 174 l 1215 0 l 0 0 m 347 521 l 347 868 l 521 868 l 521 521 l 347 521 m 521 868 l 521 1215 l 694 1215 l 694 868 l 521 868 z "},"▼":{"ha":1389,"x_min":0,"x_max":1215,"o":"m 0 1042 l 0 1215 l 1215 1215 l 1215 1042 l 1042 1042 l 1042 694 l 868 694 l 868 347 l 694 347 l 694 0 l 521 0 l 521 347 l 347 347 l 347 694 l 174 694 l 174 1042 l 0 1042 z "},"▽":{"ha":1389,"x_min":0,"x_max":1215,"o":"m 0 1042 l 0 1215 l 1215 1215 l 1215 1042 l 1042 1042 l 1042 694 l 868 694 l 868 1042 l 347 1042 l 347 694 l 174 694 l 174 1042 l 0 1042 m 347 347 l 347 694 l 521 694 l 521 347 l 347 347 m 521 0 l 521 347 l 694 347 l 694 0 l 521 0 m 694 347 l 694 694 l 868 694 l 868 347 l 694 347 z "},"◆":{"ha":1389,"x_min":0,"x_max":1215,"o":"m 0 521 l 0 694 l 174 694 l 174 868 l 347 868 l 347 1042 l 521 1042 l 521 1215 l 694 1215 l 694 1042 l 868 1042 l 868 868 l 1042 868 l 1042 694 l 1215 694 l 1215 521 l 1042 521 l 1042 347 l 868 347 l 868 174 l 694 174 l 694 0 l 521 0 l 521 174 l 347 174 l 347 347 l 174 347 l 174 521 l 0 521 z "},"◇":{"ha":1389,"x_min":0,"x_max":1215,"o":"m 0 521 l 0 694 l 174 694 l 174 521 l 0 521 m 174 347 l 174 521 l 347 521 l 347 347 l 174 347 m 174 694 l 174 868 l 347 868 l 347 694 l 174 694 m 347 174 l 347 347 l 521 347 l 521 174 l 347 174 m 347 868 l 347 1042 l 521 1042 l 521 868 l 347 868 m 521 0 l 521 174 l 694 174 l 694 0 l 521 0 m 521 1042 l 521 1215 l 694 1215 l 694 1042 l 521 1042 m 694 174 l 694 347 l 868 347 l 868 174 l 694 174 m 694 868 l 694 1042 l 868 1042 l 868 868 l 1042 868 l 1042 694 l 1215 694 l 1215 521 l 1042 521 l 1042 347 l 868 347 l 868 521 l 1042 521 l 1042 694 l 868 694 l 868 868 l 694 868 z "},"○":{"ha":1389,"x_min":0,"x_max":1215,"o":"m 0 347 l 0 868 l 174 868 l 174 347 l 0 347 m 174 174 l 174 347 l 347 347 l 347 174 l 174 174 m 174 868 l 174 1042 l 347 1042 l 347 868 l 174 868 m 347 0 l 347 174 l 868 174 l 868 0 l 347 0 m 347 1042 l 347 1215 l 868 1215 l 868 1042 l 347 1042 m 868 174 l 868 347 l 1042 347 l 1042 868 l 868 868 l 868 1042 l 1042 1042 l 1042 868 l 1215 868 l 1215 347 l 1042 347 l 1042 174 l 868 174 z "},"◎":{"ha":1389,"x_min":0,"x_max":1215,"o":"m 0 347 l 0 868 l 174 868 l 174 347 l 0 347 m 174 174 l 174 347 l 347 347 l 347 174 l 174 174 m 174 868 l 174 1042 l 347 1042 l 347 868 l 174 868 m 347 0 l 347 174 l 868 174 l 868 0 l 347 0 m 347 347 l 347 868 l 868 868 l 868 347 l 347 347 m 347 1042 l 347 1215 l 868 1215 l 868 1042 l 347 1042 m 521 521 l 694 521 l 694 694 l 521 694 l 521 521 m 868 174 l 868 347 l 1042 347 l 1042 174 l 868 174 m 868 868 l 868 1042 l 1042 1042 l 1042 868 l 868 868 m 1042 347 l 1042 868 l 1215 868 l 1215 347 l 1042 347 z "},"●":{"ha":1389,"x_min":0,"x_max":1215,"o":"m 0 347 l 0 868 l 174 868 l 174 1042 l 347 1042 l 347 1215 l 868 1215 l 868 1042 l 1042 1042 l 1042 868 l 1215 868 l 1215 347 l 1042 347 l 1042 174 l 868 174 l 868 0 l 347 0 l 347 174 l 174 174 l 174 347 l 0 347 z "},"◢":{"ha":1389,"x_min":0,"x_max":1389,"o":"m 0 0 l 174 0 l 174 174 l 347 174 l 347 347 l 521 347 l 521 521 l 694 521 l 694 694 l 868 694 l 868 868 l 1042 868 l 1042 1042 l 1215 1042 l 1215 1215 l 1389 1215 l 1389 -174 l 0 -174 l 0 0 z "},"◣":{"ha":1389,"x_min":0,"x_max":1389,"o":"m 0 -174 l 0 1215 l 174 1215 l 174 1042 l 347 1042 l 347 868 l 521 868 l 521 694 l 694 694 l 694 521 l 868 521 l 868 347 l 1042 347 l 1042 174 l 1215 174 l 1215 0 l 1389 0 l 1389 -174 l 0 -174 z "},"◤":{"ha":1389,"x_min":0,"x_max":1389,"o":"m 0 -174 l 0 1215 l 1389 1215 l 1389 1042 l 1215 1042 l 1215 868 l 1042 868 l 1042 694 l 868 694 l 868 521 l 694 521 l 694 347 l 521 347 l 521 174 l 347 174 l 347 0 l 174 0 l 174 -174 l 0 -174 z "},"◥":{"ha":1389,"x_min":0,"x_max":1389,"o":"m 0 1042 l 0 1215 l 1389 1215 l 1389 -174 l 1215 -174 l 1215 0 l 1042 0 l 1042 174 l 868 174 l 868 347 l 694 347 l 694 521 l 521 521 l 521 694 l 347 694 l 347 868 l 174 868 l 174 1042 l 0 1042 z "},"◯":{"ha":1389,"x_min":0,"x_max":1215,"o":"m 0 174 l 0 1042 l 174 1042 l 174 174 l 0 174 m 174 0 l 174 174 l 1042 174 l 1042 0 l 174 0 m 174 1042 l 174 1215 l 1042 1215 l 1042 1042 l 174 1042 m 1042 174 l 1042 1042 l 1215 1042 l 1215 174 l 1042 174 z "},"★":{"ha":1389,"x_min":0,"x_max":1215,"o":"m 0 694 l 0 868 l 521 868 l 521 1215 l 694 1215 l 694 868 l 1215 868 l 1215 694 l 1042 694 l 1042 521 l 868 521 l 868 347 l 1042 347 l 1042 0 l 868 0 l 868 174 l 347 174 l 347 0 l 174 0 l 174 347 l 347 347 l 347 521 l 174 521 l 174 694 l 0 694 z "},"☆":{"ha":1389,"x_min":0,"x_max":1215,"o":"m 0 694 l 0 868 l 521 868 l 521 694 l 347 694 l 347 521 l 174 521 l 174 694 l 0 694 m 174 0 l 174 347 l 347 347 l 347 521 l 521 521 l 521 347 l 694 347 l 694 521 l 868 521 l 868 347 l 1042 347 l 1042 0 l 868 0 l 868 174 l 347 174 l 347 0 l 174 0 m 521 868 l 521 1215 l 694 1215 l 694 868 l 521 868 m 694 694 l 694 868 l 1215 868 l 1215 694 l 1042 694 l 1042 521 l 868 521 l 868 694 l 694 694 z "},"♀":{"ha":1389,"x_min":174,"x_max":1042,"o":"m 174 174 l 174 347 l 521 347 l 521 521 l 347 521 l 347 694 l 868 694 l 868 521 l 694 521 l 694 347 l 1042 347 l 1042 174 l 694 174 l 694 0 l 521 0 l 521 174 l 174 174 m 174 694 l 174 1042 l 347 1042 l 347 694 l 174 694 m 347 1042 l 347 1215 l 868 1215 l 868 1042 l 347 1042 m 868 694 l 868 1042 l 1042 1042 l 1042 694 l 868 694 z "},"♂":{"ha":1389,"x_min":0,"x_max":1215,"o":"m 0 174 l 0 521 l 174 521 l 174 174 l 0 174 m 174 0 l 174 174 l 521 174 l 521 0 l 174 0 m 174 521 l 174 694 l 694 694 l 694 174 l 521 174 l 521 521 l 174 521 m 521 1042 l 521 1215 l 1215 1215 l 1215 521 l 1042 521 l 1042 868 l 868 868 l 868 1042 l 521 1042 m 694 694 l 694 868 l 868 868 l 868 694 l 694 694 z "},"♠":{"ha":1389,"x_min":0,"x_max":1215,"o":"m 0 347 l 0 694 l 174 694 l 174 868 l 347 868 l 347 1042 l 521 1042 l 521 1215 l 694 1215 l 694 1042 l 868 1042 l 868 868 l 1042 868 l 1042 694 l 1215 694 l 1215 347 l 694 347 l 694 174 l 868 174 l 868 0 l 347 0 l 347 174 l 521 174 l 521 347 l 0 347 z "},"♡":{"ha":1389,"x_min":0,"x_max":1215,"o":"m 0 521 l 0 1042 l 174 1042 l 174 521 l 0 521 m 174 347 l 174 521 l 347 521 l 347 347 l 174 347 m 174 1042 l 174 1215 l 521 1215 l 521 1042 l 174 1042 m 347 174 l 347 347 l 521 347 l 521 174 l 347 174 m 521 0 l 521 174 l 694 174 l 694 0 l 521 0 m 521 868 l 521 1042 l 694 1042 l 694 868 l 521 868 m 694 174 l 694 347 l 868 347 l 868 174 l 694 174 m 694 1042 l 694 1215 l 1042 1215 l 1042 1042 l 694 1042 m 868 347 l 868 521 l 1042 521 l 1042 1042 l 1215 1042 l 1215 521 l 1042 521 l 1042 347 l 868 347 z "},"♢":{"ha":1389,"x_min":0,"x_max":1215,"o":"m 0 521 l 0 694 l 174 694 l 174 521 l 0 521 m 174 347 l 174 521 l 347 521 l 347 347 l 174 347 m 174 694 l 174 868 l 347 868 l 347 694 l 174 694 m 347 174 l 347 347 l 521 347 l 521 174 l 347 174 m 347 868 l 347 1042 l 521 1042 l 521 868 l 347 868 m 521 0 l 521 174 l 694 174 l 694 0 l 521 0 m 521 1042 l 521 1215 l 694 1215 l 694 1042 l 521 1042 m 694 174 l 694 347 l 868 347 l 868 174 l 694 174 m 694 868 l 694 1042 l 868 1042 l 868 868 l 1042 868 l 1042 694 l 1215 694 l 1215 521 l 1042 521 l 1042 347 l 868 347 l 868 521 l 1042 521 l 1042 694 l 868 694 l 868 868 l 694 868 z "},"♣":{"ha":1389,"x_min":0,"x_max":1215,"o":"m 0 347 l 0 868 l 347 868 l 347 1215 l 868 1215 l 868 868 l 1215 868 l 1215 347 l 868 347 l 868 521 l 694 521 l 694 174 l 868 174 l 868 0 l 347 0 l 347 174 l 521 174 l 521 521 l 347 521 l 347 347 l 0 347 z "},"♤":{"ha":1389,"x_min":0,"x_max":1215,"o":"m 0 347 l 0 694 l 174 694 l 174 521 l 521 521 l 521 347 l 0 347 m 174 694 l 174 868 l 347 868 l 347 694 l 174 694 m 347 0 l 347 174 l 521 174 l 521 347 l 694 347 l 694 174 l 868 174 l 868 0 l 347 0 m 347 868 l 347 1042 l 521 1042 l 521 868 l 347 868 m 521 1042 l 521 1215 l 694 1215 l 694 1042 l 521 1042 m 694 347 l 694 521 l 1042 521 l 1042 694 l 1215 694 l 1215 347 l 694 347 m 694 868 l 694 1042 l 868 1042 l 868 868 l 694 868 m 868 694 l 868 868 l 1042 868 l 1042 694 l 868 694 z "},"♥":{"ha":1389,"x_min":0,"x_max":1215,"o":"m 0 521 l 0 1042 l 174 1042 l 174 1215 l 521 1215 l 521 1042 l 694 1042 l 694 1215 l 1042 1215 l 1042 1042 l 1215 1042 l 1215 521 l 1042 521 l 1042 347 l 868 347 l 868 174 l 694 174 l 694 0 l 521 0 l 521 174 l 347 174 l 347 347 l 174 347 l 174 521 l 0 521 z "},"♦":{"ha":1389,"x_min":0,"x_max":1215,"o":"m 0 521 l 0 694 l 174 694 l 174 868 l 347 868 l 347 1042 l 521 1042 l 521 1215 l 694 1215 l 694 1042 l 868 1042 l 868 868 l 1042 868 l 1042 694 l 1215 694 l 1215 521 l 1042 521 l 1042 347 l 868 347 l 868 174 l 694 174 l 694 0 l 521 0 l 521 174 l 347 174 l 347 347 l 174 347 l 174 521 l 0 521 z "},"♧":{"ha":1389,"x_min":0,"x_max":1215,"o":"m 0 347 l 0 868 l 347 868 l 347 694 l 174 694 l 174 521 l 347 521 l 347 347 l 0 347 m 347 0 l 347 174 l 521 174 l 521 521 l 347 521 l 347 694 l 521 694 l 521 868 l 694 868 l 694 694 l 868 694 l 868 521 l 694 521 l 694 174 l 868 174 l 868 0 l 347 0 m 347 868 l 347 1215 l 868 1215 l 868 868 l 694 868 l 694 1042 l 521 1042 l 521 868 l 347 868 m 868 347 l 868 521 l 1042 521 l 1042 694 l 868 694 l 868 868 l 1215 868 l 1215 347 l 868 347 z "},"♪":{"ha":1389,"x_min":174,"x_max":1215,"o":"m 174 0 l 174 347 l 521 347 l 521 1215 l 694 1215 l 694 1042 l 1042 1042 l 1042 868 l 1215 868 l 1215 521 l 1042 521 l 1042 694 l 868 694 l 868 868 l 694 868 l 694 174 l 521 174 l 521 0 l 174 0 m 868 347 l 868 521 l 1042 521 l 1042 347 l 868 347 z "},"♭":{"ha":1389,"x_min":347,"x_max":1042,"o":"m 347 0 l 347 1215 l 521 1215 l 521 694 l 694 694 l 694 521 l 521 521 l 521 174 l 694 174 l 694 0 l 347 0 m 694 174 l 694 347 l 868 347 l 868 694 l 1042 694 l 1042 347 l 868 347 l 868 174 l 694 174 m 694 694 l 694 868 l 868 868 l 868 694 l 694 694 z "},"♯":{"ha":1389,"x_min":174,"x_max":1215,"o":"m 174 174 l 174 347 l 347 347 l 347 521 l 174 521 l 174 694 l 347 694 l 347 1042 l 521 1042 l 521 868 l 868 868 l 868 1215 l 1042 1215 l 1042 1042 l 1215 1042 l 1215 868 l 1042 868 l 1042 694 l 1215 694 l 1215 521 l 1042 521 l 1042 174 l 868 174 l 868 347 l 521 347 l 521 0 l 347 0 l 347 174 l 174 174 m 521 521 l 868 521 l 868 694 l 521 694 l 521 521 z "},"　":{"ha":1389,"x_min":0,"x_max":0,"o":""},"、":{"ha":1389,"x_min":0,"x_max":347,"o":"m 0 174 l 0 347 l 174 347 l 174 174 l 0 174 m 174 0 l 174 174 l 347 174 l 347 0 l 174 0 z "},"。":{"ha":1389,"x_min":0,"x_max":521,"o":"m 0 174 l 0 347 l 174 347 l 174 174 l 0 174 m 174 0 l 174 174 l 347 174 l 347 0 l 174 0 m 174 347 l 174 521 l 347 521 l 347 347 l 174 347 m 347 174 l 347 347 l 521 347 l 521 174 l 347 174 z "},"〃":{"ha":1389,"x_min":174,"x_max":1042,"o":"m 174 174 l 174 347 l 347 347 l 347 174 l 174 174 m 347 347 l 347 868 l 521 868 l 521 347 l 347 347 m 694 174 l 694 347 l 868 347 l 868 174 l 694 174 m 868 347 l 868 868 l 1042 868 l 1042 347 l 868 347 z "},"々":{"ha":1389,"x_min":0,"x_max":1042,"o":"m 0 347 l 0 521 l 174 521 l 174 347 l 0 347 m 174 521 l 174 694 l 347 694 l 347 521 l 174 521 m 347 347 l 347 521 l 521 521 l 521 347 l 347 347 m 347 694 l 347 1042 l 521 1042 l 521 868 l 1042 868 l 1042 521 l 868 521 l 868 694 l 347 694 m 521 174 l 521 347 l 694 347 l 694 174 l 521 174 m 694 0 l 694 174 l 868 174 l 868 0 l 694 0 m 694 347 l 694 521 l 868 521 l 868 347 l 694 347 z "},"〆":{"ha":1389,"x_min":0,"x_max":1215,"o":"m 0 0 l 0 694 l 174 694 l 174 347 l 347 347 l 347 174 l 174 174 l 174 0 l 0 0 m 174 694 l 174 868 l 521 868 l 521 694 l 174 694 m 347 347 l 347 521 l 521 521 l 521 694 l 694 694 l 694 521 l 521 521 l 521 347 l 347 347 m 694 347 l 694 521 l 868 521 l 868 347 l 694 347 m 694 694 l 694 868 l 868 868 l 868 694 l 694 694 m 868 174 l 868 347 l 1042 347 l 1042 174 l 868 174 m 868 868 l 868 1042 l 1042 1042 l 1042 868 l 868 868 m 1042 1042 l 1042 1215 l 1215 1215 l 1215 1042 l 1042 1042 z "},"〇":{"ha":1389,"x_min":0,"x_max":1215,"o":"m 0 347 l 0 694 l 174 694 l 174 347 l 0 347 m 174 174 l 174 347 l 347 347 l 347 174 l 174 174 m 174 694 l 174 868 l 347 868 l 347 694 l 174 694 m 347 0 l 347 174 l 868 174 l 868 0 l 347 0 m 347 868 l 347 1042 l 868 1042 l 868 868 l 347 868 m 868 174 l 868 347 l 1042 347 l 1042 694 l 868 694 l 868 868 l 1042 868 l 1042 694 l 1215 694 l 1215 347 l 1042 347 l 1042 174 l 868 174 z "},"〈":{"ha":1389,"x_min":347,"x_max":1042,"o":"m 347 521 l 347 694 l 521 694 l 521 521 l 347 521 m 521 347 l 521 521 l 694 521 l 694 347 l 521 347 m 521 694 l 521 868 l 694 868 l 694 694 l 521 694 m 694 174 l 694 347 l 868 347 l 868 174 l 694 174 m 694 868 l 694 1042 l 868 1042 l 868 868 l 694 868 m 868 0 l 868 174 l 1042 174 l 1042 0 l 868 0 m 868 1042 l 868 1215 l 1042 1215 l 1042 1042 l 868 1042 z "},"〉":{"ha":1389,"x_min":174,"x_max":868,"o":"m 174 0 l 174 174 l 347 174 l 347 0 l 174 0 m 174 1042 l 174 1215 l 347 1215 l 347 1042 l 174 1042 m 347 174 l 347 347 l 521 347 l 521 174 l 347 174 m 347 868 l 347 1042 l 521 1042 l 521 868 l 694 868 l 694 694 l 868 694 l 868 521 l 694 521 l 694 347 l 521 347 l 521 521 l 694 521 l 694 694 l 521 694 l 521 868 l 347 868 z "},"《":{"ha":1389,"x_min":174,"x_max":1215,"o":"m 174 521 l 174 694 l 347 694 l 347 521 l 174 521 m 347 347 l 347 521 l 521 521 l 521 347 l 347 347 m 347 694 l 347 868 l 521 868 l 521 694 l 347 694 m 521 174 l 521 347 l 694 347 l 694 174 l 521 174 m 521 521 l 521 694 l 694 694 l 694 521 l 521 521 m 521 868 l 521 1042 l 694 1042 l 694 868 l 521 868 m 694 0 l 694 174 l 868 174 l 868 0 l 694 0 m 694 347 l 694 521 l 868 521 l 868 347 l 694 347 m 694 694 l 694 868 l 868 868 l 868 694 l 694 694 m 694 1042 l 694 1215 l 868 1215 l 868 1042 l 694 1042 m 868 174 l 868 347 l 1042 347 l 1042 174 l 868 174 m 868 868 l 868 1042 l 1042 1042 l 1042 868 l 868 868 m 1042 0 l 1042 174 l 1215 174 l 1215 0 l 1042 0 m 1042 1042 l 1042 1215 l 1215 1215 l 1215 1042 l 1042 1042 z "},"》":{"ha":1389,"x_min":0,"x_max":1042,"o":"m 0 0 l 0 174 l 174 174 l 174 0 l 0 0 m 0 1042 l 0 1215 l 174 1215 l 174 1042 l 0 1042 m 174 174 l 174 347 l 347 347 l 347 174 l 174 174 m 174 868 l 174 1042 l 347 1042 l 347 868 l 521 868 l 521 1042 l 694 1042 l 694 868 l 521 868 l 521 694 l 694 694 l 694 868 l 868 868 l 868 694 l 694 694 l 694 521 l 521 521 l 521 347 l 347 347 l 347 521 l 521 521 l 521 694 l 347 694 l 347 868 l 174 868 m 347 0 l 347 174 l 521 174 l 521 0 l 347 0 m 347 1042 l 347 1215 l 521 1215 l 521 1042 l 347 1042 m 521 174 l 521 347 l 694 347 l 694 174 l 521 174 m 694 347 l 694 521 l 868 521 l 868 347 l 694 347 m 868 521 l 868 694 l 1042 694 l 1042 521 l 868 521 z "},"「":{"ha":1389,"x_min":521,"x_max":1215,"o":"m 521 174 l 521 1215 l 1215 1215 l 1215 1042 l 694 1042 l 694 174 l 521 174 z "},"」":{"ha":1389,"x_min":0,"x_max":694,"o":"m 0 0 l 0 174 l 521 174 l 521 1042 l 694 1042 l 694 0 l 0 0 z "},"『":{"ha":1389,"x_min":347,"x_max":1215,"o":"m 347 174 l 347 1215 l 1215 1215 l 1215 694 l 868 694 l 868 174 l 347 174 m 521 347 l 694 347 l 694 868 l 1042 868 l 1042 1042 l 521 1042 l 521 347 z "},"』":{"ha":1389,"x_min":0,"x_max":868,"o":"m 0 0 l 0 521 l 347 521 l 347 1042 l 868 1042 l 868 0 l 0 0 m 174 174 l 694 174 l 694 868 l 521 868 l 521 347 l 174 347 l 174 174 z "},"【":{"ha":1389,"x_min":521,"x_max":1042,"o":"m 521 0 l 521 1215 l 1042 1215 l 1042 1042 l 868 1042 l 868 868 l 694 868 l 694 347 l 868 347 l 868 174 l 1042 174 l 1042 0 l 521 0 z "},"】":{"ha":1389,"x_min":174,"x_max":694,"o":"m 174 0 l 174 174 l 347 174 l 347 347 l 521 347 l 521 868 l 347 868 l 347 1042 l 174 1042 l 174 1215 l 694 1215 l 694 0 l 174 0 z "},"〒":{"ha":1389,"x_min":0,"x_max":1215,"o":"m 0 694 l 0 868 l 1215 868 l 1215 694 l 694 694 l 694 0 l 521 0 l 521 694 l 0 694 m 0 1042 l 0 1215 l 1215 1215 l 1215 1042 l 0 1042 z "},"〓":{"ha":1389,"x_min":0,"x_max":1215,"o":"m 0 174 l 0 521 l 1215 521 l 1215 174 l 0 174 m 0 694 l 0 1042 l 1215 1042 l 1215 694 l 0 694 z "},"〔":{"ha":1389,"x_min":347,"x_max":1042,"o":"m 347 174 l 347 1042 l 694 1042 l 694 868 l 521 868 l 521 347 l 694 347 l 694 174 l 347 174 m 694 0 l 694 174 l 1042 174 l 1042 0 l 694 0 m 694 1042 l 694 1215 l 1042 1215 l 1042 1042 l 694 1042 z "},"〕":{"ha":1389,"x_min":174,"x_max":868,"o":"m 174 0 l 174 174 l 521 174 l 521 347 l 694 347 l 694 868 l 521 868 l 521 1042 l 868 1042 l 868 174 l 521 174 l 521 0 l 174 0 m 174 1042 l 174 1215 l 521 1215 l 521 1042 l 174 1042 z "},"〜":{"ha":1389,"x_min":0,"x_max":1215,"o":"m 0 521 l 0 694 l 174 694 l 174 521 l 0 521 m 174 694 l 174 868 l 521 868 l 521 694 l 174 694 m 521 521 l 521 694 l 694 694 l 694 521 l 521 521 m 694 347 l 694 521 l 1042 521 l 1042 347 l 694 347 m 1042 521 l 1042 694 l 1215 694 l 1215 521 l 1042 521 z "},"〝":{"ha":1389,"x_min":521,"x_max":1215,"o":"m 521 868 l 521 1215 l 694 1215 l 694 868 l 521 868 m 694 694 l 694 868 l 868 868 l 868 694 l 694 694 m 868 868 l 868 1215 l 1042 1215 l 1042 868 l 868 868 m 1042 694 l 1042 868 l 1215 868 l 1215 694 l 1042 694 z "},"〟":{"ha":1389,"x_min":0,"x_max":694,"o":"m 0 347 l 0 521 l 174 521 l 174 347 l 0 347 m 174 0 l 174 347 l 347 347 l 347 0 l 174 0 m 347 347 l 347 521 l 521 521 l 521 347 l 347 347 m 521 0 l 521 347 l 694 347 l 694 0 l 521 0 z "},"ぁ":{"ha":1389,"x_min":0,"x_max":1042,"o":"m 0 174 l 0 347 l 174 347 l 174 174 l 0 174 m 174 0 l 174 174 l 347 174 l 347 347 l 174 347 l 174 521 l 347 521 l 347 694 l 174 694 l 174 868 l 347 868 l 347 1042 l 521 1042 l 521 868 l 868 868 l 868 694 l 521 694 l 521 521 l 868 521 l 868 347 l 1042 347 l 1042 0 l 868 0 l 868 174 l 694 174 l 694 0 l 174 0 m 521 174 l 694 174 l 694 347 l 521 347 l 521 174 z "},"あ":{"ha":1389,"x_min":0,"x_max":1215,"o":"m 0 174 l 0 521 l 174 521 l 174 174 l 0 174 m 174 0 l 174 174 l 347 174 l 347 521 l 174 521 l 174 694 l 347 694 l 347 868 l 174 868 l 174 1042 l 347 1042 l 347 1215 l 521 1215 l 521 1042 l 1042 1042 l 1042 868 l 521 868 l 521 694 l 1042 694 l 1042 521 l 868 521 l 868 347 l 694 347 l 694 174 l 521 174 l 521 0 l 174 0 m 521 347 l 694 347 l 694 521 l 521 521 l 521 347 m 868 0 l 868 174 l 1042 174 l 1042 521 l 1215 521 l 1215 174 l 1042 174 l 1042 0 l 868 0 z "},"ぃ":{"ha":1389,"x_min":0,"x_max":1042,"o":"m 0 174 l 0 868 l 174 868 l 174 174 l 0 174 m 174 0 l 174 174 l 347 174 l 347 0 l 174 0 m 347 174 l 347 347 l 521 347 l 521 174 l 347 174 m 694 694 l 694 868 l 868 868 l 868 694 l 694 694 m 868 347 l 868 694 l 1042 694 l 1042 347 l 868 347 z "},"い":{"ha":1389,"x_min":0,"x_max":1215,"o":"m 0 174 l 0 1042 l 174 1042 l 174 174 l 0 174 m 174 0 l 174 174 l 347 174 l 347 0 l 174 0 m 347 174 l 347 347 l 521 347 l 521 174 l 347 174 m 868 868 l 868 1042 l 1042 1042 l 1042 868 l 868 868 m 1042 347 l 1042 868 l 1215 868 l 1215 347 l 1042 347 z "},"ぅ":{"ha":1389,"x_min":0,"x_max":1042,"o":"m 0 347 l 0 521 l 174 521 l 174 347 l 0 347 m 174 521 l 174 694 l 868 694 l 868 521 l 174 521 m 174 868 l 174 1042 l 868 1042 l 868 868 l 174 868 m 347 0 l 347 174 l 694 174 l 694 0 l 347 0 m 694 174 l 694 347 l 868 347 l 868 521 l 1042 521 l 1042 347 l 868 347 l 868 174 l 694 174 z "},"う":{"ha":1389,"x_min":0,"x_max":1215,"o":"m 0 521 l 0 694 l 174 694 l 174 521 l 0 521 m 174 694 l 174 868 l 1042 868 l 1042 694 l 174 694 m 174 1042 l 174 1215 l 1042 1215 l 1042 1042 l 174 1042 m 347 0 l 347 174 l 694 174 l 694 0 l 347 0 m 694 174 l 694 347 l 1042 347 l 1042 694 l 1215 694 l 1215 347 l 1042 347 l 1042 174 l 694 174 z "},"ぇ":{"ha":1389,"x_min":0,"x_max":1042,"o":"m 0 0 l 0 174 l 174 174 l 174 0 l 0 0 m 0 521 l 0 694 l 868 694 l 868 521 l 521 521 l 521 347 l 694 347 l 694 174 l 1042 174 l 1042 0 l 521 0 l 521 174 l 174 174 l 174 347 l 347 347 l 347 521 l 0 521 m 174 868 l 174 1042 l 868 1042 l 868 868 l 174 868 z "},"え":{"ha":1389,"x_min":0,"x_max":1215,"o":"m 0 0 l 0 174 l 174 174 l 174 0 l 0 0 m 0 694 l 0 868 l 1042 868 l 1042 694 l 694 694 l 694 521 l 868 521 l 868 174 l 1215 174 l 1215 0 l 694 0 l 694 347 l 347 347 l 347 521 l 521 521 l 521 694 l 0 694 m 174 174 l 174 347 l 347 347 l 347 174 l 174 174 m 174 1042 l 174 1215 l 1042 1215 l 1042 1042 l 174 1042 z "},"ぉ":{"ha":1389,"x_min":0,"x_max":1042,"o":"m 0 174 l 0 347 l 174 347 l 174 174 l 0 174 m 0 694 l 0 868 l 347 868 l 347 1042 l 521 1042 l 521 868 l 694 868 l 694 694 l 521 694 l 521 521 l 868 521 l 868 347 l 521 347 l 521 0 l 174 0 l 174 174 l 347 174 l 347 347 l 174 347 l 174 521 l 347 521 l 347 694 l 0 694 m 694 0 l 694 174 l 868 174 l 868 347 l 1042 347 l 1042 174 l 868 174 l 868 0 l 694 0 m 868 694 l 868 868 l 1042 868 l 1042 694 l 868 694 z "},"お":{"ha":1389,"x_min":0,"x_max":1215,"o":"m 0 174 l 0 347 l 174 347 l 174 174 l 0 174 m 0 868 l 0 1042 l 347 1042 l 347 1215 l 521 1215 l 521 1042 l 694 1042 l 694 868 l 521 868 l 521 694 l 1042 694 l 1042 521 l 521 521 l 521 0 l 174 0 l 174 174 l 347 174 l 347 347 l 174 347 l 174 521 l 347 521 l 347 868 l 0 868 m 694 0 l 694 174 l 1042 174 l 1042 521 l 1215 521 l 1215 174 l 1042 174 l 1042 0 l 694 0 m 868 868 l 868 1042 l 1215 1042 l 1215 868 l 868 868 z "},"か":{"ha":1389,"x_min":0,"x_max":1215,"o":"m 0 0 l 0 347 l 174 347 l 174 0 l 0 0 m 0 868 l 0 1042 l 347 1042 l 347 1215 l 521 1215 l 521 1042 l 694 1042 l 694 868 l 521 868 l 521 694 l 347 694 l 347 868 l 0 868 m 174 347 l 174 694 l 347 694 l 347 347 l 174 347 m 347 0 l 347 174 l 694 174 l 694 868 l 868 868 l 868 174 l 694 174 l 694 0 l 347 0 m 868 868 l 868 1042 l 1042 1042 l 1042 868 l 868 868 m 1042 521 l 1042 868 l 1215 868 l 1215 521 l 1042 521 z "},"が":{"ha":1389,"x_min":0,"x_max":1215,"o":"m 0 0 l 0 347 l 174 347 l 174 0 l 0 0 m 0 868 l 0 1042 l 347 1042 l 347 1215 l 521 1215 l 521 1042 l 694 1042 l 694 868 l 521 868 l 521 694 l 347 694 l 347 868 l 0 868 m 174 347 l 174 694 l 347 694 l 347 347 l 174 347 m 347 0 l 347 174 l 694 174 l 694 868 l 868 868 l 868 174 l 694 174 l 694 0 l 347 0 m 694 1042 l 694 1215 l 868 1215 l 868 1042 l 694 1042 m 1042 521 l 1042 868 l 1215 868 l 1215 521 l 1042 521 m 1042 1042 l 1042 1215 l 1215 1215 l 1215 1042 l 1042 1042 z "},"き":{"ha":1389,"x_min":0,"x_max":1215,"o":"m 0 521 l 0 694 l 694 694 l 694 868 l 174 868 l 174 1042 l 521 1042 l 521 1215 l 694 1215 l 694 1042 l 1042 1042 l 1042 868 l 868 868 l 868 694 l 1215 694 l 1215 521 l 1042 521 l 1042 347 l 868 347 l 868 521 l 521 521 l 521 347 l 347 347 l 347 521 l 0 521 m 174 174 l 174 347 l 347 347 l 347 174 l 174 174 m 347 0 l 347 174 l 1042 174 l 1042 0 l 347 0 z "},"ぎ":{"ha":1389,"x_min":0,"x_max":1215,"o":"m 0 521 l 0 694 l 694 694 l 694 868 l 174 868 l 174 1042 l 521 1042 l 521 1215 l 694 1215 l 694 1042 l 868 1042 l 868 1215 l 1042 1215 l 1042 868 l 868 868 l 868 694 l 1215 694 l 1215 521 l 1042 521 l 1042 347 l 868 347 l 868 521 l 521 521 l 521 347 l 347 347 l 347 521 l 0 521 m 174 174 l 174 347 l 347 347 l 347 174 l 174 174 m 347 0 l 347 174 l 1042 174 l 1042 0 l 347 0 z "},"く":{"ha":1389,"x_min":0,"x_max":1042,"o":"m 0 521 l 0 694 l 174 694 l 174 521 l 0 521 m 174 347 l 174 521 l 521 521 l 521 347 l 174 347 m 174 694 l 174 868 l 521 868 l 521 694 l 174 694 m 521 174 l 521 347 l 868 347 l 868 174 l 521 174 m 521 868 l 521 1042 l 868 1042 l 868 868 l 521 868 m 868 0 l 868 174 l 1042 174 l 1042 0 l 868 0 m 868 1042 l 868 1215 l 1042 1215 l 1042 1042 l 868 1042 z "},"ぐ":{"ha":1389,"x_min":0,"x_max":1215,"o":"m 0 521 l 0 694 l 174 694 l 174 521 l 0 521 m 174 347 l 174 521 l 521 521 l 521 347 l 174 347 m 174 694 l 174 868 l 521 868 l 521 694 l 174 694 m 521 174 l 521 347 l 868 347 l 868 174 l 521 174 m 521 868 l 521 1042 l 868 1042 l 868 694 l 694 694 l 694 868 l 521 868 m 868 0 l 868 174 l 1042 174 l 1042 0 l 868 0 m 868 1042 l 868 1215 l 1042 1215 l 1042 1042 l 868 1042 m 1042 694 l 1042 868 l 1215 868 l 1215 694 l 1042 694 z "},"け":{"ha":1389,"x_min":0,"x_max":1215,"o":"m 0 174 l 0 1215 l 174 1215 l 174 174 l 0 174 m 347 868 l 347 1042 l 694 1042 l 694 1215 l 868 1215 l 868 1042 l 1215 1042 l 1215 868 l 868 868 l 868 174 l 694 174 l 694 868 l 347 868 m 521 0 l 521 174 l 694 174 l 694 0 l 521 0 z "},"げ":{"ha":1389,"x_min":0,"x_max":1215,"o":"m 0 174 l 0 1215 l 174 1215 l 174 174 l 0 174 m 347 868 l 347 1042 l 694 1042 l 694 1215 l 868 1215 l 868 1042 l 1042 1042 l 1042 1215 l 1215 1215 l 1215 868 l 868 868 l 868 174 l 694 174 l 694 868 l 347 868 m 521 0 l 521 174 l 694 174 l 694 0 l 521 0 z "},"こ":{"ha":1389,"x_min":0,"x_max":1215,"o":"m 0 174 l 0 347 l 174 347 l 174 174 l 0 174 m 174 0 l 174 174 l 1215 174 l 1215 0 l 174 0 m 174 347 l 174 521 l 347 521 l 347 347 l 174 347 m 174 868 l 174 1042 l 1042 1042 l 1042 868 l 174 868 z "},"ご":{"ha":1389,"x_min":0,"x_max":1215,"o":"m 0 174 l 0 347 l 174 347 l 174 174 l 0 174 m 174 0 l 174 174 l 1215 174 l 1215 0 l 174 0 m 174 347 l 174 521 l 347 521 l 347 347 l 174 347 m 174 868 l 174 1042 l 694 1042 l 694 1215 l 868 1215 l 868 1042 l 1042 1042 l 1042 868 l 174 868 m 1042 1042 l 1042 1215 l 1215 1215 l 1215 1042 l 1042 1042 z "},"さ":{"ha":1389,"x_min":0,"x_max":1215,"o":"m 0 347 l 0 521 l 174 521 l 174 347 l 0 347 m 0 868 l 0 1042 l 694 1042 l 694 1215 l 868 1215 l 868 1042 l 1215 1042 l 1215 868 l 868 868 l 868 694 l 694 694 l 694 868 l 0 868 m 174 174 l 174 347 l 347 347 l 347 174 l 174 174 m 174 521 l 174 694 l 694 694 l 694 521 l 174 521 m 347 0 l 347 174 l 868 174 l 868 0 l 347 0 m 694 347 l 694 521 l 868 521 l 868 694 l 1042 694 l 1042 347 l 694 347 z "},"ざ":{"ha":1389,"x_min":0,"x_max":1215,"o":"m 0 347 l 0 521 l 174 521 l 174 347 l 0 347 m 0 868 l 0 1042 l 694 1042 l 694 1215 l 868 1215 l 868 1042 l 1042 1042 l 1042 1215 l 1215 1215 l 1215 868 l 868 868 l 868 694 l 694 694 l 694 868 l 0 868 m 174 174 l 174 347 l 347 347 l 347 174 l 174 174 m 174 521 l 174 694 l 694 694 l 694 521 l 174 521 m 347 0 l 347 174 l 868 174 l 868 0 l 347 0 m 694 347 l 694 521 l 868 521 l 868 694 l 1042 694 l 1042 347 l 694 347 z "},"し":{"ha":1389,"x_min":174,"x_max":1215,"o":"m 174 174 l 174 1215 l 347 1215 l 347 174 l 174 174 m 347 0 l 347 174 l 868 174 l 868 0 l 347 0 m 868 174 l 868 347 l 1042 347 l 1042 174 l 868 174 m 1042 347 l 1042 521 l 1215 521 l 1215 347 l 1042 347 z "},"じ":{"ha":1389,"x_min":174,"x_max":1215,"o":"m 174 174 l 174 1215 l 347 1215 l 347 174 l 174 174 m 347 0 l 347 174 l 868 174 l 868 0 l 347 0 m 521 1042 l 521 1215 l 694 1215 l 694 1042 l 521 1042 m 868 174 l 868 347 l 1042 347 l 1042 174 l 868 174 m 868 1042 l 868 1215 l 1042 1215 l 1042 1042 l 868 1042 m 1042 347 l 1042 521 l 1215 521 l 1215 347 l 1042 347 z "},"す":{"ha":1389,"x_min":0,"x_max":1215,"o":"m 0 868 l 0 1042 l 694 1042 l 694 1215 l 868 1215 l 868 1042 l 1215 1042 l 1215 868 l 868 868 l 868 174 l 694 174 l 694 347 l 347 347 l 347 521 l 694 521 l 694 868 l 521 868 l 521 694 l 347 694 l 347 868 l 0 868 m 174 521 l 174 694 l 347 694 l 347 521 l 174 521 m 347 0 l 347 174 l 694 174 l 694 0 l 347 0 z "},"ず":{"ha":1389,"x_min":0,"x_max":1215,"o":"m 0 868 l 0 1042 l 694 1042 l 694 1215 l 868 1215 l 868 1042 l 1042 1042 l 1042 1215 l 1215 1215 l 1215 868 l 868 868 l 868 174 l 694 174 l 694 347 l 347 347 l 347 521 l 694 521 l 694 868 l 521 868 l 521 694 l 347 694 l 347 868 l 0 868 m 174 521 l 174 694 l 347 694 l 347 521 l 174 521 m 347 0 l 347 174 l 694 174 l 694 0 l 347 0 z "},"せ":{"ha":1389,"x_min":0,"x_max":1215,"o":"m 0 694 l 0 868 l 174 868 l 174 1215 l 347 1215 l 347 868 l 868 868 l 868 1215 l 1042 1215 l 1042 868 l 1215 868 l 1215 694 l 1042 694 l 1042 347 l 694 347 l 694 521 l 868 521 l 868 694 l 347 694 l 347 174 l 174 174 l 174 694 l 0 694 m 347 0 l 347 174 l 1042 174 l 1042 0 l 347 0 z "},"ぜ":{"ha":1389,"x_min":0,"x_max":1215,"o":"m 0 694 l 0 868 l 174 868 l 174 1215 l 347 1215 l 347 868 l 868 868 l 868 1042 l 1042 1042 l 1042 868 l 1215 868 l 1215 694 l 1042 694 l 1042 347 l 694 347 l 694 521 l 868 521 l 868 694 l 347 694 l 347 174 l 174 174 l 174 694 l 0 694 m 347 0 l 347 174 l 1042 174 l 1042 0 l 347 0 m 694 1042 l 694 1215 l 868 1215 l 868 1042 l 694 1042 m 1042 1042 l 1042 1215 l 1215 1215 l 1215 1042 l 1042 1042 z "},"そ":{"ha":1389,"x_min":0,"x_max":1215,"o":"m 0 521 l 0 694 l 347 694 l 347 868 l 521 868 l 521 694 l 1215 694 l 1215 521 l 694 521 l 694 347 l 521 347 l 521 521 l 0 521 m 174 1042 l 174 1215 l 1042 1215 l 1042 1042 l 694 1042 l 694 868 l 521 868 l 521 1042 l 174 1042 m 347 174 l 347 347 l 521 347 l 521 174 l 347 174 m 521 0 l 521 174 l 1042 174 l 1042 0 l 521 0 z "},"ぞ":{"ha":1389,"x_min":0,"x_max":1215,"o":"m 0 521 l 0 694 l 347 694 l 347 868 l 521 868 l 521 694 l 1215 694 l 1215 521 l 694 521 l 694 347 l 521 347 l 521 521 l 0 521 m 174 1042 l 174 1215 l 868 1215 l 868 1042 l 694 1042 l 694 868 l 521 868 l 521 1042 l 174 1042 m 347 174 l 347 347 l 521 347 l 521 174 l 347 174 m 521 0 l 521 174 l 1042 174 l 1042 0 l 521 0 m 1042 1042 l 1042 1215 l 1215 1215 l 1215 1042 l 1042 1042 z "},"た":{"ha":1389,"x_min":0,"x_max":1215,"o":"m 0 0 l 0 347 l 174 347 l 174 0 l 0 0 m 0 868 l 0 1042 l 347 1042 l 347 1215 l 521 1215 l 521 1042 l 694 1042 l 694 868 l 521 868 l 521 694 l 347 694 l 347 868 l 0 868 m 174 347 l 174 694 l 347 694 l 347 347 l 174 347 m 521 174 l 521 347 l 694 347 l 694 174 l 521 174 m 694 0 l 694 174 l 1215 174 l 1215 0 l 694 0 m 694 347 l 694 521 l 868 521 l 868 347 l 694 347 m 694 694 l 694 868 l 1215 868 l 1215 694 l 694 694 z "},"だ":{"ha":1389,"x_min":0,"x_max":1215,"o":"m 0 0 l 0 347 l 174 347 l 174 0 l 0 0 m 0 868 l 0 1042 l 347 1042 l 347 1215 l 521 1215 l 521 1042 l 694 1042 l 694 868 l 521 868 l 521 694 l 347 694 l 347 868 l 0 868 m 174 347 l 174 694 l 347 694 l 347 347 l 174 347 m 521 174 l 521 347 l 694 347 l 694 174 l 521 174 m 694 0 l 694 174 l 1215 174 l 1215 0 l 694 0 m 694 347 l 694 521 l 868 521 l 868 347 l 694 347 m 694 694 l 694 868 l 1215 868 l 1215 694 l 694 694 m 694 1042 l 694 1215 l 868 1215 l 868 1042 l 694 1042 m 1042 1042 l 1042 1215 l 1215 1215 l 1215 1042 l 1042 1042 z "},"ち":{"ha":1389,"x_min":0,"x_max":1215,"o":"m 0 868 l 0 1042 l 347 1042 l 347 1215 l 521 1215 l 521 1042 l 1215 1042 l 1215 868 l 521 868 l 521 694 l 347 694 l 347 868 l 0 868 m 174 347 l 174 694 l 347 694 l 347 521 l 521 521 l 521 347 l 174 347 m 347 0 l 347 174 l 868 174 l 868 0 l 347 0 m 521 521 l 521 694 l 1042 694 l 1042 521 l 1215 521 l 1215 347 l 1042 347 l 1042 174 l 868 174 l 868 347 l 1042 347 l 1042 521 l 521 521 z "},"ぢ":{"ha":1389,"x_min":0,"x_max":1215,"o":"m 0 868 l 0 1042 l 347 1042 l 347 1215 l 521 1215 l 521 1042 l 694 1042 l 694 1215 l 868 1215 l 868 1042 l 1042 1042 l 1042 1215 l 1215 1215 l 1215 868 l 521 868 l 521 694 l 347 694 l 347 868 l 0 868 m 174 347 l 174 694 l 347 694 l 347 521 l 521 521 l 521 347 l 174 347 m 347 0 l 347 174 l 868 174 l 868 0 l 347 0 m 521 521 l 521 694 l 1042 694 l 1042 521 l 1215 521 l 1215 347 l 1042 347 l 1042 174 l 868 174 l 868 347 l 1042 347 l 1042 521 l 521 521 z "},"っ":{"ha":1389,"x_min":0,"x_max":1042,"o":"m 0 521 l 0 694 l 347 694 l 347 521 l 0 521 m 347 0 l 347 174 l 694 174 l 694 0 l 347 0 m 347 694 l 347 868 l 868 868 l 868 694 l 347 694 m 694 174 l 694 347 l 868 347 l 868 694 l 1042 694 l 1042 347 l 868 347 l 868 174 l 694 174 z "},"つ":{"ha":1389,"x_min":0,"x_max":1215,"o":"m 0 694 l 0 868 l 347 868 l 347 694 l 0 694 m 347 0 l 347 174 l 868 174 l 868 0 l 347 0 m 347 868 l 347 1042 l 1042 1042 l 1042 868 l 347 868 m 868 174 l 868 347 l 1042 347 l 1042 868 l 1215 868 l 1215 347 l 1042 347 l 1042 174 l 868 174 z "},"づ":{"ha":1389,"x_min":0,"x_max":1215,"o":"m 0 694 l 0 868 l 347 868 l 347 694 l 0 694 m 347 0 l 347 174 l 868 174 l 868 0 l 347 0 m 347 868 l 347 1042 l 694 1042 l 694 1215 l 868 1215 l 868 1042 l 1042 1042 l 1042 868 l 347 868 m 868 174 l 868 347 l 1042 347 l 1042 868 l 1215 868 l 1215 347 l 1042 347 l 1042 174 l 868 174 m 1042 1042 l 1042 1215 l 1215 1215 l 1215 1042 l 1042 1042 z "},"て":{"ha":1389,"x_min":0,"x_max":1215,"o":"m 0 868 l 0 1042 l 1215 1042 l 1215 868 l 694 868 l 694 694 l 521 694 l 521 868 l 0 868 m 347 174 l 347 694 l 521 694 l 521 174 l 347 174 m 521 0 l 521 174 l 1042 174 l 1042 0 l 521 0 z "},"で":{"ha":1389,"x_min":0,"x_max":1215,"o":"m 0 868 l 0 1042 l 1215 1042 l 1215 868 l 694 868 l 694 694 l 521 694 l 521 868 l 0 868 m 347 174 l 347 694 l 521 694 l 521 174 l 347 174 m 521 0 l 521 174 l 1042 174 l 1042 0 l 521 0 m 694 521 l 694 694 l 868 694 l 868 521 l 694 521 m 1042 521 l 1042 694 l 1215 694 l 1215 521 l 1042 521 z "},"と":{"ha":1389,"x_min":0,"x_max":1215,"o":"m 0 174 l 0 347 l 174 347 l 174 174 l 0 174 m 174 0 l 174 174 l 1215 174 l 1215 0 l 174 0 m 174 347 l 174 521 l 347 521 l 347 347 l 174 347 m 347 521 l 347 1215 l 521 1215 l 521 694 l 694 694 l 694 521 l 347 521 m 694 694 l 694 868 l 1042 868 l 1042 694 l 694 694 z "},"ど":{"ha":1389,"x_min":0,"x_max":1215,"o":"m 0 174 l 0 347 l 174 347 l 174 174 l 0 174 m 174 0 l 174 174 l 1215 174 l 1215 0 l 174 0 m 174 347 l 174 521 l 347 521 l 347 347 l 174 347 m 347 521 l 347 1215 l 521 1215 l 521 694 l 694 694 l 694 521 l 347 521 m 694 694 l 694 868 l 1042 868 l 1042 694 l 694 694 m 694 1042 l 694 1215 l 868 1215 l 868 1042 l 694 1042 m 1042 1042 l 1042 1215 l 1215 1215 l 1215 1042 l 1042 1042 z "},"な":{"ha":1389,"x_min":0,"x_max":1215,"o":"m 0 174 l 0 521 l 174 521 l 174 174 l 0 174 m 0 868 l 0 1042 l 347 1042 l 347 1215 l 521 1215 l 521 1042 l 694 1042 l 694 868 l 521 868 l 521 694 l 347 694 l 347 868 l 0 868 m 174 521 l 174 694 l 347 694 l 347 521 l 174 521 m 347 174 l 347 347 l 521 347 l 521 174 l 347 174 m 521 0 l 521 174 l 868 174 l 868 347 l 521 347 l 521 521 l 868 521 l 868 1042 l 1215 1042 l 1215 868 l 1042 868 l 1042 347 l 1215 347 l 1215 174 l 1042 174 l 1042 0 l 521 0 z "},"に":{"ha":1389,"x_min":0,"x_max":1215,"o":"m 0 0 l 0 1215 l 174 1215 l 174 0 l 0 0 m 347 174 l 347 347 l 521 347 l 521 174 l 347 174 m 521 0 l 521 174 l 1215 174 l 1215 0 l 521 0 m 521 347 l 521 521 l 694 521 l 694 347 l 521 347 m 521 868 l 521 1042 l 1042 1042 l 1042 868 l 521 868 z "},"ぬ":{"ha":1389,"x_min":0,"x_max":1215,"o":"m 0 174 l 0 694 l 174 694 l 174 174 l 0 174 m 174 0 l 174 174 l 347 174 l 347 0 l 174 0 m 174 694 l 174 1215 l 347 1215 l 347 868 l 521 868 l 521 521 l 694 521 l 694 347 l 521 347 l 521 174 l 347 174 l 347 694 l 174 694 m 521 868 l 521 1042 l 694 1042 l 694 1215 l 868 1215 l 868 1042 l 1042 1042 l 1042 868 l 868 868 l 868 521 l 694 521 l 694 868 l 521 868 m 694 174 l 694 347 l 868 347 l 868 174 l 694 174 m 868 0 l 868 174 l 1042 174 l 1042 347 l 868 347 l 868 521 l 1042 521 l 1042 868 l 1215 868 l 1215 0 l 868 0 z "},"ね":{"ha":1389,"x_min":0,"x_max":1215,"o":"m 0 174 l 0 347 l 174 347 l 174 174 l 0 174 m 0 868 l 0 1042 l 347 1042 l 347 1215 l 521 1215 l 521 868 l 694 868 l 694 694 l 521 694 l 521 0 l 347 0 l 347 347 l 174 347 l 174 521 l 347 521 l 347 868 l 0 868 m 694 174 l 694 347 l 868 347 l 868 521 l 1042 521 l 1042 868 l 1215 868 l 1215 0 l 868 0 l 868 174 l 1042 174 l 1042 347 l 868 347 l 868 174 l 694 174 m 694 868 l 694 1042 l 1042 1042 l 1042 868 l 694 868 z "},"の":{"ha":1389,"x_min":0,"x_max":1215,"o":"m 0 174 l 0 868 l 174 868 l 174 347 l 347 347 l 347 174 l 0 174 m 174 868 l 174 1042 l 1042 1042 l 1042 868 l 694 868 l 694 521 l 521 521 l 521 868 l 174 868 m 347 347 l 347 521 l 521 521 l 521 347 l 347 347 m 521 0 l 521 174 l 1042 174 l 1042 868 l 1215 868 l 1215 174 l 1042 174 l 1042 0 l 521 0 z "},"は":{"ha":1389,"x_min":0,"x_max":1215,"o":"m 0 0 l 0 1215 l 174 1215 l 174 347 l 347 347 l 347 174 l 174 174 l 174 0 l 0 0 m 347 0 l 347 174 l 694 174 l 694 347 l 347 347 l 347 521 l 694 521 l 694 868 l 347 868 l 347 1042 l 694 1042 l 694 1215 l 868 1215 l 868 1042 l 1215 1042 l 1215 868 l 868 868 l 868 347 l 1042 347 l 1042 174 l 868 174 l 868 0 l 347 0 m 1042 0 l 1042 174 l 1215 174 l 1215 0 l 1042 0 z "},"ば":{"ha":1389,"x_min":0,"x_max":1215,"o":"m 0 0 l 0 1215 l 174 1215 l 174 347 l 347 347 l 347 174 l 174 174 l 174 0 l 0 0 m 347 0 l 347 174 l 694 174 l 694 347 l 347 347 l 347 521 l 694 521 l 694 868 l 347 868 l 347 1042 l 694 1042 l 694 1215 l 868 1215 l 868 1042 l 1042 1042 l 1042 1215 l 1215 1215 l 1215 868 l 868 868 l 868 347 l 1042 347 l 1042 174 l 868 174 l 868 0 l 347 0 m 1042 0 l 1042 174 l 1215 174 l 1215 0 l 1042 0 z "},"ぱ":{"ha":1389,"x_min":0,"x_max":1215,"o":"m 0 0 l 0 1215 l 174 1215 l 174 347 l 347 347 l 347 174 l 174 174 l 174 0 l 0 0 m 347 0 l 347 174 l 694 174 l 694 347 l 347 347 l 347 521 l 694 521 l 694 868 l 347 868 l 347 1042 l 694 1042 l 694 1215 l 1042 1215 l 1042 1042 l 868 1042 l 868 868 l 1042 868 l 1042 694 l 868 694 l 868 347 l 1042 347 l 1042 174 l 868 174 l 868 0 l 347 0 m 1042 0 l 1042 174 l 1215 174 l 1215 0 l 1042 0 m 1042 868 l 1042 1042 l 1215 1042 l 1215 868 l 1042 868 z "},"ひ":{"ha":1389,"x_min":0,"x_max":1215,"o":"m 0 1042 l 0 1215 l 521 1215 l 521 868 l 347 868 l 347 1042 l 0 1042 m 174 174 l 174 868 l 347 868 l 347 174 l 174 174 m 347 0 l 347 174 l 868 174 l 868 0 l 347 0 m 694 1042 l 694 1215 l 868 1215 l 868 1042 l 694 1042 m 868 174 l 868 1042 l 1042 1042 l 1042 868 l 1215 868 l 1215 694 l 1042 694 l 1042 174 l 868 174 z "},"び":{"ha":1389,"x_min":0,"x_max":1215,"o":"m 0 1042 l 0 1215 l 521 1215 l 521 868 l 347 868 l 347 1042 l 0 1042 m 174 174 l 174 868 l 347 868 l 347 174 l 174 174 m 347 0 l 347 174 l 868 174 l 868 0 l 347 0 m 694 1042 l 694 1215 l 868 1215 l 868 1042 l 694 1042 m 868 174 l 868 1042 l 1042 1042 l 1042 868 l 1215 868 l 1215 694 l 1042 694 l 1042 174 l 868 174 m 1042 1042 l 1042 1215 l 1215 1215 l 1215 1042 l 1042 1042 z "},"ぴ":{"ha":1389,"x_min":0,"x_max":1215,"o":"m 0 1042 l 0 1215 l 521 1215 l 521 868 l 347 868 l 347 1042 l 0 1042 m 174 174 l 174 868 l 347 868 l 347 174 l 174 174 m 347 0 l 347 174 l 868 174 l 868 0 l 347 0 m 694 868 l 694 1042 l 868 1042 l 868 868 l 694 868 m 868 174 l 868 868 l 1042 868 l 1042 1042 l 1215 1042 l 1215 694 l 1042 694 l 1042 174 l 868 174 m 868 1042 l 868 1215 l 1042 1215 l 1042 1042 l 868 1042 z "},"ふ":{"ha":1389,"x_min":0,"x_max":1215,"o":"m 0 0 l 0 174 l 174 174 l 174 0 l 0 0 m 174 174 l 174 521 l 347 521 l 347 174 l 174 174 m 347 0 l 347 174 l 694 174 l 694 0 l 347 0 m 347 1042 l 347 1215 l 694 1215 l 694 1042 l 347 1042 m 521 521 l 521 868 l 694 868 l 694 1042 l 868 1042 l 868 868 l 694 868 l 694 521 l 521 521 m 694 174 l 694 521 l 1042 521 l 1042 347 l 868 347 l 868 174 l 694 174 m 1042 0 l 1042 347 l 1215 347 l 1215 0 l 1042 0 z "},"ぶ":{"ha":1389,"x_min":0,"x_max":1215,"o":"m 0 0 l 0 174 l 174 174 l 174 0 l 0 0 m 174 174 l 174 521 l 347 521 l 347 174 l 174 174 m 347 0 l 347 174 l 694 174 l 694 0 l 347 0 m 347 1042 l 347 1215 l 694 1215 l 694 1042 l 347 1042 m 521 521 l 521 868 l 694 868 l 694 1042 l 868 1042 l 868 868 l 694 868 l 694 521 l 521 521 m 694 174 l 694 521 l 1042 521 l 1042 347 l 868 347 l 868 174 l 694 174 m 1042 0 l 1042 347 l 1215 347 l 1215 0 l 1042 0 m 1042 868 l 1042 1042 l 1215 1042 l 1215 868 l 1042 868 z "},"ぷ":{"ha":1389,"x_min":0,"x_max":1215,"o":"m 0 0 l 0 174 l 174 174 l 174 0 l 0 0 m 174 174 l 174 521 l 347 521 l 347 174 l 174 174 m 347 0 l 347 174 l 694 174 l 694 0 l 347 0 m 347 1042 l 347 1215 l 694 1215 l 694 1042 l 347 1042 m 521 521 l 521 868 l 694 868 l 694 1042 l 868 1042 l 868 868 l 694 868 l 694 521 l 521 521 m 694 174 l 694 521 l 1042 521 l 1042 347 l 868 347 l 868 174 l 694 174 m 868 694 l 868 868 l 1042 868 l 1042 694 l 868 694 m 868 1042 l 868 1215 l 1042 1215 l 1042 1042 l 868 1042 m 1042 0 l 1042 347 l 1215 347 l 1215 0 l 1042 0 m 1042 868 l 1042 1042 l 1215 1042 l 1215 868 l 1042 868 z "},"へ":{"ha":1389,"x_min":0,"x_max":1215,"o":"m 0 347 l 0 521 l 174 521 l 174 347 l 0 347 m 174 521 l 174 868 l 347 868 l 347 521 l 174 521 m 347 868 l 347 1042 l 521 1042 l 521 868 l 347 868 m 521 694 l 521 868 l 694 868 l 694 694 l 521 694 m 694 521 l 694 694 l 868 694 l 868 521 l 694 521 m 868 347 l 868 521 l 1042 521 l 1042 347 l 868 347 m 1042 174 l 1042 347 l 1215 347 l 1215 174 l 1042 174 z "},"べ":{"ha":1389,"x_min":0,"x_max":1215,"o":"m 0 347 l 0 521 l 174 521 l 174 347 l 0 347 m 174 521 l 174 868 l 347 868 l 347 521 l 174 521 m 347 868 l 347 1042 l 521 1042 l 521 868 l 347 868 m 521 694 l 521 868 l 694 868 l 694 694 l 521 694 m 694 521 l 694 694 l 868 694 l 868 521 l 694 521 m 694 1042 l 694 1215 l 868 1215 l 868 1042 l 694 1042 m 868 347 l 868 521 l 1042 521 l 1042 347 l 868 347 m 1042 174 l 1042 347 l 1215 347 l 1215 174 l 1042 174 m 1042 1042 l 1042 1215 l 1215 1215 l 1215 1042 l 1042 1042 z "},"ぺ":{"ha":1389,"x_min":0,"x_max":1215,"o":"m 0 347 l 0 521 l 174 521 l 174 347 l 0 347 m 174 521 l 174 868 l 347 868 l 347 521 l 174 521 m 347 868 l 347 1042 l 521 1042 l 521 868 l 347 868 m 521 694 l 521 868 l 694 868 l 694 694 l 521 694 m 694 521 l 694 694 l 868 694 l 868 521 l 694 521 m 694 868 l 694 1042 l 868 1042 l 868 868 l 694 868 m 868 347 l 868 521 l 1042 521 l 1042 347 l 868 347 m 868 694 l 868 868 l 1042 868 l 1042 694 l 868 694 m 868 1042 l 868 1215 l 1042 1215 l 1042 1042 l 868 1042 m 1042 174 l 1042 347 l 1215 347 l 1215 174 l 1042 174 m 1042 868 l 1042 1042 l 1215 1042 l 1215 868 l 1042 868 z "},"ほ":{"ha":1389,"x_min":0,"x_max":1215,"o":"m 0 0 l 0 1215 l 174 1215 l 174 347 l 347 347 l 347 174 l 174 174 l 174 0 l 0 0 m 347 0 l 347 174 l 694 174 l 694 347 l 347 347 l 347 521 l 694 521 l 694 694 l 347 694 l 347 868 l 694 868 l 694 1042 l 347 1042 l 347 1215 l 1215 1215 l 1215 1042 l 868 1042 l 868 868 l 1215 868 l 1215 694 l 868 694 l 868 347 l 1042 347 l 1042 174 l 868 174 l 868 0 l 347 0 m 1042 0 l 1042 174 l 1215 174 l 1215 0 l 1042 0 z "},"ぼ":{"ha":1389,"x_min":0,"x_max":1215,"o":"m 0 0 l 0 1215 l 174 1215 l 174 347 l 347 347 l 347 174 l 174 174 l 174 0 l 0 0 m 347 0 l 347 174 l 694 174 l 694 347 l 347 347 l 347 521 l 694 521 l 694 694 l 347 694 l 347 868 l 694 868 l 694 1042 l 347 1042 l 347 1215 l 868 1215 l 868 868 l 1215 868 l 1215 694 l 868 694 l 868 347 l 1042 347 l 1042 174 l 868 174 l 868 0 l 347 0 m 1042 0 l 1042 174 l 1215 174 l 1215 0 l 1042 0 m 1042 1042 l 1042 1215 l 1215 1215 l 1215 1042 l 1042 1042 z "},"ぽ":{"ha":1389,"x_min":0,"x_max":1215,"o":"m 0 0 l 0 1215 l 174 1215 l 174 347 l 347 347 l 347 174 l 174 174 l 174 0 l 0 0 m 347 0 l 347 174 l 694 174 l 694 347 l 347 347 l 347 521 l 694 521 l 694 694 l 347 694 l 347 868 l 694 868 l 694 1042 l 868 1042 l 868 868 l 1042 868 l 1042 694 l 868 694 l 868 347 l 1042 347 l 1042 174 l 868 174 l 868 0 l 347 0 m 347 1042 l 347 1215 l 694 1215 l 694 1042 l 347 1042 m 868 1042 l 868 1215 l 1042 1215 l 1042 1042 l 868 1042 m 1042 0 l 1042 174 l 1215 174 l 1215 0 l 1042 0 m 1042 868 l 1042 1042 l 1215 1042 l 1215 868 l 1042 868 z "},"ま":{"ha":1389,"x_min":0,"x_max":1215,"o":"m 0 174 l 0 347 l 174 347 l 174 174 l 0 174 m 0 521 l 0 694 l 521 694 l 521 868 l 0 868 l 0 1042 l 521 1042 l 521 1215 l 694 1215 l 694 1042 l 1215 1042 l 1215 868 l 694 868 l 694 694 l 1215 694 l 1215 521 l 694 521 l 694 347 l 868 347 l 868 174 l 694 174 l 694 0 l 174 0 l 174 174 l 521 174 l 521 521 l 347 521 l 347 347 l 174 347 l 174 521 l 0 521 m 868 0 l 868 174 l 1215 174 l 1215 0 l 868 0 z "},"み":{"ha":1389,"x_min":0,"x_max":1215,"o":"m 0 174 l 0 521 l 174 521 l 174 174 l 0 174 m 174 0 l 174 174 l 347 174 l 347 0 l 174 0 m 174 521 l 174 694 l 347 694 l 347 868 l 521 868 l 521 694 l 868 694 l 868 868 l 1042 868 l 1042 694 l 1215 694 l 1215 521 l 1042 521 l 1042 174 l 868 174 l 868 521 l 521 521 l 521 174 l 347 174 l 347 521 l 174 521 m 174 1042 l 174 1215 l 694 1215 l 694 868 l 521 868 l 521 1042 l 174 1042 m 694 0 l 694 174 l 868 174 l 868 0 l 694 0 z "},"む":{"ha":1389,"x_min":0,"x_max":1215,"o":"m 0 174 l 0 521 l 174 521 l 174 694 l 347 694 l 347 868 l 0 868 l 0 1042 l 347 1042 l 347 1215 l 521 1215 l 521 1042 l 694 1042 l 694 868 l 521 868 l 521 174 l 1042 174 l 1042 0 l 347 0 l 347 174 l 0 174 m 174 347 l 347 347 l 347 521 l 174 521 l 174 347 m 868 868 l 868 1042 l 1215 1042 l 1215 868 l 868 868 m 1042 174 l 1042 521 l 1215 521 l 1215 174 l 1042 174 z "},"め":{"ha":1389,"x_min":0,"x_max":1215,"o":"m 0 174 l 0 694 l 174 694 l 174 174 l 0 174 m 174 0 l 174 174 l 347 174 l 347 0 l 174 0 m 174 694 l 174 1215 l 347 1215 l 347 868 l 521 868 l 521 521 l 694 521 l 694 347 l 521 347 l 521 174 l 347 174 l 347 694 l 174 694 m 521 868 l 521 1042 l 694 1042 l 694 1215 l 868 1215 l 868 1042 l 1042 1042 l 1042 868 l 868 868 l 868 521 l 694 521 l 694 868 l 521 868 m 694 0 l 694 174 l 1042 174 l 1042 868 l 1215 868 l 1215 174 l 1042 174 l 1042 0 l 694 0 z "},"も":{"ha":1389,"x_min":0,"x_max":1215,"o":"m 0 521 l 0 694 l 347 694 l 347 868 l 0 868 l 0 1042 l 521 1042 l 521 1215 l 694 1215 l 694 1042 l 1042 1042 l 1042 868 l 521 868 l 521 694 l 1042 694 l 1042 521 l 521 521 l 521 174 l 347 174 l 347 521 l 0 521 m 521 0 l 521 174 l 1042 174 l 1042 0 l 521 0 m 1042 174 l 1042 521 l 1215 521 l 1215 174 l 1042 174 z "},"ゃ":{"ha":1389,"x_min":0,"x_max":1042,"o":"m 0 521 l 0 694 l 174 694 l 174 1042 l 347 1042 l 347 694 l 521 694 l 521 174 l 347 174 l 347 521 l 0 521 m 521 0 l 521 174 l 694 174 l 694 0 l 521 0 m 521 694 l 521 1042 l 694 1042 l 694 868 l 868 868 l 868 694 l 521 694 m 694 347 l 694 521 l 868 521 l 868 694 l 1042 694 l 1042 521 l 868 521 l 868 347 l 694 347 z "},"や":{"ha":1389,"x_min":0,"x_max":1215,"o":"m 0 694 l 0 868 l 174 868 l 174 1215 l 347 1215 l 347 868 l 521 868 l 521 347 l 347 347 l 347 694 l 0 694 m 521 0 l 521 347 l 694 347 l 694 0 l 521 0 m 521 868 l 521 1042 l 694 1042 l 694 1215 l 868 1215 l 868 1042 l 1042 1042 l 1042 868 l 868 868 l 868 694 l 694 694 l 694 868 l 521 868 m 868 347 l 868 521 l 1042 521 l 1042 868 l 1215 868 l 1215 521 l 1042 521 l 1042 347 l 868 347 z "},"ゅ":{"ha":1389,"x_min":0,"x_max":1042,"o":"m 0 174 l 0 868 l 174 868 l 174 694 l 347 694 l 347 521 l 174 521 l 174 174 l 0 174 m 347 0 l 347 347 l 521 347 l 521 694 l 347 694 l 347 1042 l 521 1042 l 521 868 l 868 868 l 868 694 l 694 694 l 694 347 l 868 347 l 868 174 l 521 174 l 521 0 l 347 0 m 868 347 l 868 694 l 1042 694 l 1042 347 l 868 347 z "},"ゆ":{"ha":1389,"x_min":0,"x_max":1215,"o":"m 0 174 l 0 1042 l 174 1042 l 174 868 l 347 868 l 347 694 l 174 694 l 174 174 l 0 174 m 347 0 l 347 174 l 521 174 l 521 0 l 347 0 m 347 347 l 347 521 l 521 521 l 521 347 l 347 347 m 347 868 l 347 1042 l 521 1042 l 521 1215 l 694 1215 l 694 1042 l 1042 1042 l 1042 868 l 868 868 l 868 347 l 1042 347 l 1042 174 l 521 174 l 521 347 l 694 347 l 694 868 l 347 868 m 1042 347 l 1042 868 l 1215 868 l 1215 347 l 1042 347 z "},"ょ":{"ha":1389,"x_min":0,"x_max":1042,"o":"m 0 174 l 0 347 l 174 347 l 174 174 l 0 174 m 174 0 l 174 174 l 521 174 l 521 0 l 174 0 m 174 347 l 174 521 l 521 521 l 521 1042 l 694 1042 l 694 868 l 868 868 l 868 694 l 694 694 l 694 347 l 868 347 l 868 174 l 521 174 l 521 347 l 174 347 m 868 0 l 868 174 l 1042 174 l 1042 0 l 868 0 z "},"よ":{"ha":1389,"x_min":0,"x_max":1215,"o":"m 0 174 l 0 347 l 174 347 l 174 174 l 0 174 m 174 0 l 174 174 l 521 174 l 521 0 l 174 0 m 174 347 l 174 521 l 521 521 l 521 1215 l 694 1215 l 694 1042 l 1042 1042 l 1042 868 l 694 868 l 694 521 l 868 521 l 868 347 l 694 347 l 694 174 l 521 174 l 521 347 l 174 347 m 868 174 l 868 347 l 1042 347 l 1042 174 l 868 174 m 1042 0 l 1042 174 l 1215 174 l 1215 0 l 1042 0 z "},"ら":{"ha":1389,"x_min":0,"x_max":1215,"o":"m 0 347 l 0 694 l 174 694 l 174 521 l 347 521 l 347 347 l 0 347 m 174 694 l 174 868 l 347 868 l 347 694 l 174 694 m 174 1042 l 174 1215 l 694 1215 l 694 1042 l 174 1042 m 347 0 l 347 174 l 868 174 l 868 0 l 347 0 m 347 521 l 347 694 l 1042 694 l 1042 521 l 1215 521 l 1215 347 l 1042 347 l 1042 174 l 868 174 l 868 347 l 1042 347 l 1042 521 l 347 521 m 694 868 l 694 1042 l 868 1042 l 868 868 l 694 868 z "},"り":{"ha":1389,"x_min":174,"x_max":1042,"o":"m 174 521 l 174 1215 l 347 1215 l 347 1042 l 521 1042 l 521 868 l 347 868 l 347 521 l 174 521 m 347 0 l 347 174 l 694 174 l 694 0 l 347 0 m 521 1042 l 521 1215 l 868 1215 l 868 1042 l 521 1042 m 694 174 l 694 347 l 868 347 l 868 1042 l 1042 1042 l 1042 347 l 868 347 l 868 174 l 694 174 z "},"る":{"ha":1389,"x_min":0,"x_max":1215,"o":"m 0 347 l 0 521 l 174 521 l 174 347 l 0 347 m 174 174 l 174 347 l 347 347 l 347 174 l 174 174 m 174 521 l 174 694 l 347 694 l 347 521 l 174 521 m 174 1042 l 174 1215 l 1042 1215 l 1042 1042 l 694 1042 l 694 868 l 1042 868 l 1042 694 l 347 694 l 347 868 l 521 868 l 521 1042 l 174 1042 m 347 0 l 347 174 l 694 174 l 694 347 l 868 347 l 868 174 l 1042 174 l 1042 0 l 347 0 m 347 347 l 347 521 l 694 521 l 694 347 l 347 347 m 1042 174 l 1042 694 l 1215 694 l 1215 174 l 1042 174 z "},"れ":{"ha":1389,"x_min":0,"x_max":1215,"o":"m 0 174 l 0 347 l 174 347 l 174 174 l 0 174 m 0 868 l 0 1042 l 347 1042 l 347 1215 l 521 1215 l 521 868 l 694 868 l 694 694 l 521 694 l 521 0 l 347 0 l 347 347 l 174 347 l 174 521 l 347 521 l 347 868 l 0 868 m 694 868 l 694 1042 l 1042 1042 l 1042 174 l 1215 174 l 1215 0 l 868 0 l 868 868 l 694 868 z "},"ろ":{"ha":1389,"x_min":0,"x_max":1215,"o":"m 0 347 l 0 521 l 174 521 l 174 347 l 0 347 m 174 521 l 174 694 l 347 694 l 347 868 l 521 868 l 521 694 l 1042 694 l 1042 521 l 174 521 m 174 1042 l 174 1215 l 1042 1215 l 1042 1042 l 694 1042 l 694 868 l 521 868 l 521 1042 l 174 1042 m 347 0 l 347 174 l 1042 174 l 1042 521 l 1215 521 l 1215 174 l 1042 174 l 1042 0 l 347 0 z "},"ゎ":{"ha":1389,"x_min":0,"x_max":1042,"o":"m 0 174 l 0 347 l 174 347 l 174 694 l 0 694 l 0 868 l 174 868 l 174 1042 l 347 1042 l 347 694 l 521 694 l 521 521 l 347 521 l 347 0 l 174 0 l 174 174 l 0 174 m 521 0 l 521 174 l 868 174 l 868 694 l 1042 694 l 1042 174 l 868 174 l 868 0 l 521 0 m 521 694 l 521 868 l 868 868 l 868 694 l 521 694 z "},"わ":{"ha":1389,"x_min":0,"x_max":1215,"o":"m 0 174 l 0 347 l 174 347 l 174 174 l 0 174 m 0 868 l 0 1042 l 347 1042 l 347 1215 l 521 1215 l 521 868 l 694 868 l 694 694 l 521 694 l 521 0 l 347 0 l 347 347 l 174 347 l 174 521 l 347 521 l 347 868 l 0 868 m 694 0 l 694 174 l 1042 174 l 1042 868 l 1215 868 l 1215 174 l 1042 174 l 1042 0 l 694 0 m 694 868 l 694 1042 l 1042 1042 l 1042 868 l 694 868 z "},"ゐ":{"ha":1389,"x_min":0,"x_max":1215,"o":"m 0 174 l 0 521 l 174 521 l 174 174 l 0 174 m 174 0 l 174 174 l 347 174 l 347 0 l 174 0 m 174 521 l 174 694 l 347 694 l 347 521 l 174 521 m 174 1042 l 174 1215 l 694 1215 l 694 868 l 1042 868 l 1042 694 l 694 694 l 694 347 l 521 347 l 521 694 l 347 694 l 347 868 l 521 868 l 521 1042 l 174 1042 m 347 174 l 347 347 l 521 347 l 521 174 l 347 174 m 694 174 l 694 347 l 868 347 l 868 174 l 694 174 m 868 0 l 868 174 l 1042 174 l 1042 347 l 868 347 l 868 521 l 1042 521 l 1042 694 l 1215 694 l 1215 0 l 868 0 z "},"ゑ":{"ha":1389,"x_min":0,"x_max":1215,"o":"m 0 0 l 0 174 l 174 174 l 174 0 l 0 0 m 174 174 l 174 347 l 521 347 l 521 174 l 174 174 m 174 521 l 174 694 l 347 694 l 347 521 l 174 521 m 174 1042 l 174 1215 l 1042 1215 l 1042 1042 l 694 1042 l 694 868 l 868 868 l 868 694 l 347 694 l 347 868 l 521 868 l 521 1042 l 174 1042 m 521 0 l 521 174 l 694 174 l 694 0 l 521 0 m 521 347 l 521 521 l 868 521 l 868 694 l 1042 694 l 1042 521 l 868 521 l 868 347 l 1042 347 l 1042 174 l 694 174 l 694 347 l 521 347 m 1042 0 l 1042 174 l 1215 174 l 1215 0 l 1042 0 z "},"を":{"ha":1389,"x_min":0,"x_max":1215,"o":"m 0 347 l 0 521 l 174 521 l 174 347 l 0 347 m 0 868 l 0 1042 l 521 1042 l 521 1215 l 694 1215 l 694 1042 l 1042 1042 l 1042 868 l 521 868 l 521 694 l 694 694 l 694 521 l 868 521 l 868 174 l 1215 174 l 1215 0 l 347 0 l 347 347 l 521 347 l 521 521 l 174 521 l 174 694 l 347 694 l 347 868 l 0 868 m 521 174 l 694 174 l 694 347 l 521 347 l 521 174 m 868 521 l 868 694 l 1215 694 l 1215 521 l 868 521 z "},"ん":{"ha":1389,"x_min":0,"x_max":1215,"o":"m 0 0 l 0 174 l 174 174 l 174 0 l 0 0 m 174 174 l 174 521 l 347 521 l 347 174 l 174 174 m 347 521 l 347 868 l 521 868 l 521 694 l 694 694 l 694 521 l 347 521 m 521 868 l 521 1215 l 694 1215 l 694 868 l 521 868 m 694 174 l 694 521 l 868 521 l 868 174 l 694 174 m 868 0 l 868 174 l 1042 174 l 1042 0 l 868 0 m 1042 174 l 1042 521 l 1215 521 l 1215 174 l 1042 174 z "},"゛":{"ha":1389,"x_min":0,"x_max":694,"o":"m 0 1042 l 0 1215 l 174 1215 l 174 1042 l 0 1042 m 174 868 l 174 1042 l 347 1042 l 347 868 l 174 868 m 347 1042 l 347 1215 l 521 1215 l 521 1042 l 347 1042 m 521 868 l 521 1042 l 694 1042 l 694 868 l 521 868 z "},"゜":{"ha":1389,"x_min":0,"x_max":521,"o":"m 0 868 l 0 1042 l 174 1042 l 174 868 l 0 868 m 174 694 l 174 868 l 347 868 l 347 694 l 174 694 m 174 1042 l 174 1215 l 347 1215 l 347 1042 l 174 1042 m 347 868 l 347 1042 l 521 1042 l 521 868 l 347 868 z "},"ゝ":{"ha":1389,"x_min":174,"x_max":1042,"o":"m 174 868 l 174 1042 l 521 1042 l 521 868 l 174 868 m 347 174 l 347 347 l 694 347 l 694 521 l 868 521 l 868 694 l 521 694 l 521 868 l 868 868 l 868 694 l 1042 694 l 1042 347 l 694 347 l 694 174 l 347 174 z "},"ゞ":{"ha":1389,"x_min":174,"x_max":1215,"o":"m 174 868 l 174 1042 l 521 1042 l 521 868 l 174 868 m 347 174 l 347 347 l 694 347 l 694 521 l 868 521 l 868 694 l 521 694 l 521 868 l 868 868 l 868 694 l 1042 694 l 1042 347 l 694 347 l 694 174 l 347 174 m 694 1042 l 694 1215 l 868 1215 l 868 1042 l 694 1042 m 1042 1042 l 1042 1215 l 1215 1215 l 1215 1042 l 1042 1042 z "},"ァ":{"ha":1389,"x_min":0,"x_max":1042,"o":"m 0 694 l 0 868 l 1042 868 l 1042 521 l 868 521 l 868 347 l 521 347 l 521 174 l 347 174 l 347 694 l 0 694 m 174 0 l 174 174 l 347 174 l 347 0 l 174 0 m 521 521 l 868 521 l 868 694 l 521 694 l 521 521 z "},"ア":{"ha":1389,"x_min":0,"x_max":1215,"o":"m 0 1042 l 0 1215 l 1215 1215 l 1215 868 l 1042 868 l 1042 1042 l 0 1042 m 174 0 l 174 174 l 521 174 l 521 0 l 174 0 m 521 174 l 521 868 l 694 868 l 694 694 l 868 694 l 868 521 l 694 521 l 694 174 l 521 174 m 868 694 l 868 868 l 1042 868 l 1042 694 l 868 694 z "},"ィ":{"ha":1389,"x_min":0,"x_max":1042,"o":"m 0 347 l 0 521 l 347 521 l 347 347 l 0 347 m 347 521 l 347 694 l 694 694 l 694 0 l 521 0 l 521 521 l 347 521 m 694 694 l 694 868 l 868 868 l 868 694 l 694 694 m 868 868 l 868 1042 l 1042 1042 l 1042 868 l 868 868 z "},"イ":{"ha":1389,"x_min":0,"x_max":1215,"o":"m 0 347 l 0 521 l 347 521 l 347 347 l 0 347 m 347 521 l 347 694 l 694 694 l 694 868 l 868 868 l 868 0 l 694 0 l 694 521 l 347 521 m 868 868 l 868 1042 l 1042 1042 l 1042 868 l 868 868 m 1042 1042 l 1042 1215 l 1215 1215 l 1215 1042 l 1042 1042 z "},"ゥ":{"ha":1389,"x_min":0,"x_max":1042,"o":"m 0 521 l 0 868 l 521 868 l 521 1042 l 694 1042 l 694 868 l 1042 868 l 1042 347 l 868 347 l 868 694 l 174 694 l 174 521 l 0 521 m 347 0 l 347 174 l 694 174 l 694 0 l 347 0 m 694 174 l 694 347 l 868 347 l 868 174 l 694 174 z "},"ウ":{"ha":1389,"x_min":0,"x_max":1215,"o":"m 0 521 l 0 1042 l 521 1042 l 521 1215 l 694 1215 l 694 1042 l 1215 1042 l 1215 521 l 1042 521 l 1042 868 l 174 868 l 174 521 l 0 521 m 347 0 l 347 174 l 694 174 l 694 0 l 347 0 m 694 174 l 694 347 l 868 347 l 868 174 l 694 174 m 868 347 l 868 521 l 1042 521 l 1042 347 l 868 347 z "},"ェ":{"ha":1389,"x_min":174,"x_max":1042,"o":"m 174 0 l 174 174 l 521 174 l 521 694 l 174 694 l 174 868 l 1042 868 l 1042 694 l 694 694 l 694 174 l 1042 174 l 1042 0 l 174 0 z "},"エ":{"ha":1389,"x_min":0,"x_max":1215,"o":"m 0 0 l 0 174 l 521 174 l 521 868 l 0 868 l 0 1042 l 1215 1042 l 1215 868 l 694 868 l 694 174 l 1215 174 l 1215 0 l 0 0 z "},"ォ":{"ha":1389,"x_min":0,"x_max":1042,"o":"m 0 174 l 0 347 l 347 347 l 347 174 l 0 174 m 0 694 l 0 868 l 694 868 l 694 1042 l 868 1042 l 868 868 l 1042 868 l 1042 694 l 868 694 l 868 0 l 521 0 l 521 174 l 694 174 l 694 347 l 347 347 l 347 521 l 694 521 l 694 694 l 0 694 z "},"オ":{"ha":1389,"x_min":0,"x_max":1215,"o":"m 0 174 l 0 347 l 347 347 l 347 174 l 0 174 m 0 868 l 0 1042 l 694 1042 l 694 1215 l 868 1215 l 868 1042 l 1215 1042 l 1215 868 l 868 868 l 868 0 l 521 0 l 521 174 l 694 174 l 694 521 l 521 521 l 521 694 l 694 694 l 694 868 l 0 868 m 347 347 l 347 521 l 521 521 l 521 347 l 347 347 z "},"カ":{"ha":1389,"x_min":0,"x_max":1215,"o":"m 0 0 l 0 174 l 174 174 l 174 0 l 0 0 m 0 868 l 0 1042 l 347 1042 l 347 1215 l 521 1215 l 521 1042 l 1215 1042 l 1215 174 l 1042 174 l 1042 868 l 521 868 l 521 347 l 347 347 l 347 868 l 0 868 m 174 174 l 174 347 l 347 347 l 347 174 l 174 174 m 694 0 l 694 174 l 1042 174 l 1042 0 l 694 0 z "},"ガ":{"ha":1389,"x_min":0,"x_max":1215,"o":"m 0 0 l 0 174 l 174 174 l 174 0 l 0 0 m 0 868 l 0 1042 l 347 1042 l 347 1215 l 521 1215 l 521 1042 l 694 1042 l 694 1215 l 868 1215 l 868 1042 l 1042 1042 l 1042 1215 l 1215 1215 l 1215 174 l 1042 174 l 1042 868 l 521 868 l 521 347 l 347 347 l 347 868 l 0 868 m 174 174 l 174 347 l 347 347 l 347 174 l 174 174 m 694 0 l 694 174 l 1042 174 l 1042 0 l 694 0 z "},"キ":{"ha":1389,"x_min":0,"x_max":1215,"o":"m 0 347 l 0 521 l 521 521 l 521 868 l 0 868 l 0 1042 l 521 1042 l 521 1215 l 694 1215 l 694 1042 l 1042 1042 l 1042 868 l 694 868 l 694 521 l 1215 521 l 1215 347 l 868 347 l 868 0 l 694 0 l 694 347 l 0 347 z "},"ギ":{"ha":1389,"x_min":0,"x_max":1215,"o":"m 0 347 l 0 521 l 521 521 l 521 868 l 0 868 l 0 1042 l 521 1042 l 521 1215 l 694 1215 l 694 1042 l 868 1042 l 868 1215 l 1042 1215 l 1042 868 l 694 868 l 694 521 l 1215 521 l 1215 347 l 868 347 l 868 0 l 694 0 l 694 347 l 0 347 z "},"ク":{"ha":1389,"x_min":0,"x_max":1215,"o":"m 0 521 l 0 694 l 174 694 l 174 521 l 0 521 m 174 0 l 174 174 l 521 174 l 521 0 l 174 0 m 174 694 l 174 868 l 347 868 l 347 694 l 174 694 m 347 868 l 347 1215 l 521 1215 l 521 1042 l 1215 1042 l 1215 521 l 1042 521 l 1042 868 l 347 868 m 521 174 l 521 347 l 868 347 l 868 174 l 521 174 m 868 347 l 868 521 l 1042 521 l 1042 347 l 868 347 z "},"グ":{"ha":1389,"x_min":0,"x_max":1215,"o":"m 0 521 l 0 694 l 174 694 l 174 521 l 0 521 m 174 0 l 174 174 l 521 174 l 521 0 l 174 0 m 174 694 l 174 868 l 347 868 l 347 694 l 174 694 m 347 868 l 347 1215 l 521 1215 l 521 1042 l 694 1042 l 694 1215 l 868 1215 l 868 1042 l 1042 1042 l 1042 1215 l 1215 1215 l 1215 521 l 1042 521 l 1042 868 l 347 868 m 521 174 l 521 347 l 868 347 l 868 174 l 521 174 m 868 347 l 868 521 l 1042 521 l 1042 347 l 868 347 z "},"ケ":{"ha":1389,"x_min":0,"x_max":1215,"o":"m 0 521 l 0 694 l 174 694 l 174 521 l 0 521 m 174 694 l 174 1215 l 347 1215 l 347 1042 l 1215 1042 l 1215 868 l 868 868 l 868 347 l 694 347 l 694 868 l 347 868 l 347 694 l 174 694 m 347 0 l 347 174 l 521 174 l 521 0 l 347 0 m 521 174 l 521 347 l 694 347 l 694 174 l 521 174 z "},"ゲ":{"ha":1389,"x_min":0,"x_max":1215,"o":"m 0 521 l 0 694 l 174 694 l 174 521 l 0 521 m 174 694 l 174 1215 l 347 1215 l 347 1042 l 694 1042 l 694 1215 l 868 1215 l 868 1042 l 1042 1042 l 1042 1215 l 1215 1215 l 1215 868 l 868 868 l 868 347 l 694 347 l 694 868 l 347 868 l 347 694 l 174 694 m 347 0 l 347 174 l 521 174 l 521 0 l 347 0 m 521 174 l 521 347 l 694 347 l 694 174 l 521 174 z "},"コ":{"ha":1389,"x_min":0,"x_max":1215,"o":"m 0 0 l 0 174 l 1042 174 l 1042 868 l 0 868 l 0 1042 l 1215 1042 l 1215 0 l 0 0 z "},"ゴ":{"ha":1389,"x_min":0,"x_max":1215,"o":"m 0 0 l 0 174 l 1042 174 l 1042 868 l 0 868 l 0 1042 l 694 1042 l 694 1215 l 868 1215 l 868 1042 l 1042 1042 l 1042 1215 l 1215 1215 l 1215 0 l 0 0 z "},"サ":{"ha":1389,"x_min":0,"x_max":1215,"o":"m 0 868 l 0 1042 l 174 1042 l 174 1215 l 347 1215 l 347 1042 l 868 1042 l 868 1215 l 1042 1215 l 1042 1042 l 1215 1042 l 1215 868 l 1042 868 l 1042 347 l 868 347 l 868 868 l 347 868 l 347 521 l 174 521 l 174 868 l 0 868 m 347 0 l 347 174 l 694 174 l 694 0 l 347 0 m 694 174 l 694 347 l 868 347 l 868 174 l 694 174 z "},"ザ":{"ha":1389,"x_min":0,"x_max":1215,"o":"m 0 868 l 0 1042 l 174 1042 l 174 1215 l 347 1215 l 347 1042 l 694 1042 l 694 1215 l 868 1215 l 868 1042 l 1042 1042 l 1042 1215 l 1215 1215 l 1215 868 l 1042 868 l 1042 347 l 868 347 l 868 868 l 347 868 l 347 521 l 174 521 l 174 868 l 0 868 m 347 0 l 347 174 l 694 174 l 694 0 l 347 0 m 694 174 l 694 347 l 868 347 l 868 174 l 694 174 z "},"シ":{"ha":1389,"x_min":0,"x_max":1215,"o":"m 0 694 l 0 868 l 347 868 l 347 694 l 0 694 m 174 0 l 174 174 l 521 174 l 521 0 l 174 0 m 174 1042 l 174 1215 l 521 1215 l 521 1042 l 174 1042 m 347 521 l 347 694 l 521 694 l 521 521 l 347 521 m 521 174 l 521 347 l 868 347 l 868 174 l 521 174 m 521 868 l 521 1042 l 694 1042 l 694 868 l 521 868 m 868 347 l 868 521 l 1042 521 l 1042 347 l 868 347 m 1042 521 l 1042 694 l 1215 694 l 1215 521 l 1042 521 z "},"ジ":{"ha":1389,"x_min":0,"x_max":1215,"o":"m 0 694 l 0 868 l 347 868 l 347 694 l 0 694 m 174 0 l 174 174 l 521 174 l 521 0 l 174 0 m 174 1042 l 174 1215 l 521 1215 l 521 1042 l 174 1042 m 347 521 l 347 694 l 521 694 l 521 521 l 347 521 m 521 174 l 521 347 l 868 347 l 868 174 l 521 174 m 521 868 l 521 1042 l 694 1042 l 694 868 l 521 868 m 694 1042 l 694 1215 l 868 1215 l 868 1042 l 694 1042 m 868 347 l 868 521 l 1042 521 l 1042 347 l 868 347 m 1042 521 l 1042 694 l 1215 694 l 1215 521 l 1042 521 m 1042 1042 l 1042 1215 l 1215 1215 l 1215 1042 l 1042 1042 z "},"ス":{"ha":1389,"x_min":0,"x_max":1215,"o":"m 0 0 l 0 174 l 347 174 l 347 0 l 0 0 m 174 868 l 174 1042 l 1042 1042 l 1042 521 l 868 521 l 868 868 l 174 868 m 347 174 l 347 347 l 694 347 l 694 174 l 347 174 m 694 347 l 694 521 l 868 521 l 868 347 l 694 347 m 868 174 l 868 347 l 1042 347 l 1042 174 l 868 174 m 1042 0 l 1042 174 l 1215 174 l 1215 0 l 1042 0 z "},"ズ":{"ha":1389,"x_min":0,"x_max":1215,"o":"m 0 0 l 0 174 l 347 174 l 347 0 l 0 0 m 174 868 l 174 1042 l 694 1042 l 694 1215 l 868 1215 l 868 1042 l 1042 1042 l 1042 521 l 868 521 l 868 868 l 174 868 m 347 174 l 347 347 l 694 347 l 694 174 l 347 174 m 694 347 l 694 521 l 868 521 l 868 347 l 694 347 m 868 174 l 868 347 l 1042 347 l 1042 174 l 868 174 m 1042 0 l 1042 174 l 1215 174 l 1215 0 l 1042 0 m 1042 1042 l 1042 1215 l 1215 1215 l 1215 1042 l 1042 1042 z "},"セ":{"ha":1389,"x_min":0,"x_max":1215,"o":"m 0 694 l 0 868 l 347 868 l 347 1215 l 521 1215 l 521 868 l 694 868 l 694 694 l 521 694 l 521 174 l 1215 174 l 1215 0 l 347 0 l 347 694 l 0 694 m 694 868 l 694 1042 l 1215 1042 l 1215 521 l 1042 521 l 1042 868 l 694 868 m 868 347 l 868 521 l 1042 521 l 1042 347 l 868 347 z "},"ゼ":{"ha":1389,"x_min":0,"x_max":1215,"o":"m 0 694 l 0 868 l 347 868 l 347 1215 l 521 1215 l 521 868 l 694 868 l 694 694 l 521 694 l 521 174 l 1215 174 l 1215 0 l 347 0 l 347 694 l 0 694 m 694 868 l 694 1215 l 868 1215 l 868 1042 l 1042 1042 l 1042 1215 l 1215 1215 l 1215 521 l 1042 521 l 1042 868 l 694 868 m 868 347 l 868 521 l 1042 521 l 1042 347 l 868 347 z "},"ソ":{"ha":1389,"x_min":0,"x_max":1215,"o":"m 0 1042 l 0 1215 l 174 1215 l 174 1042 l 0 1042 m 174 694 l 174 1042 l 347 1042 l 347 694 l 174 694 m 347 0 l 347 174 l 521 174 l 521 0 l 347 0 m 521 174 l 521 347 l 694 347 l 694 174 l 521 174 m 694 347 l 694 521 l 868 521 l 868 347 l 694 347 m 868 521 l 868 868 l 1042 868 l 1042 521 l 868 521 m 1042 868 l 1042 1215 l 1215 1215 l 1215 868 l 1042 868 z "},"ゾ":{"ha":1389,"x_min":0,"x_max":1215,"o":"m 0 1042 l 0 1215 l 174 1215 l 174 1042 l 0 1042 m 174 694 l 174 1042 l 347 1042 l 347 694 l 174 694 m 347 0 l 347 174 l 521 174 l 521 0 l 347 0 m 521 174 l 521 347 l 694 347 l 694 174 l 521 174 m 694 347 l 694 521 l 868 521 l 868 347 l 694 347 m 694 1042 l 694 1215 l 868 1215 l 868 1042 l 694 1042 m 868 521 l 868 868 l 1042 868 l 1042 521 l 868 521 m 1042 1042 l 1042 1215 l 1215 1215 l 1215 1042 l 1042 1042 z "},"タ":{"ha":1389,"x_min":0,"x_max":1215,"o":"m 0 521 l 0 694 l 174 694 l 174 521 l 0 521 m 174 0 l 174 174 l 521 174 l 521 0 l 174 0 m 174 694 l 174 868 l 347 868 l 347 694 l 174 694 m 347 521 l 347 694 l 868 694 l 868 521 l 1042 521 l 1042 347 l 868 347 l 868 174 l 521 174 l 521 347 l 868 347 l 868 521 l 347 521 m 347 868 l 347 1215 l 521 1215 l 521 1042 l 1215 1042 l 1215 521 l 1042 521 l 1042 868 l 347 868 z "},"ダ":{"ha":1389,"x_min":0,"x_max":1215,"o":"m 0 521 l 0 694 l 174 694 l 174 521 l 0 521 m 174 0 l 174 174 l 521 174 l 521 0 l 174 0 m 174 694 l 174 868 l 347 868 l 347 694 l 174 694 m 347 521 l 347 694 l 868 694 l 868 521 l 1042 521 l 1042 347 l 868 347 l 868 174 l 521 174 l 521 347 l 868 347 l 868 521 l 347 521 m 347 868 l 347 1215 l 521 1215 l 521 1042 l 694 1042 l 694 1215 l 868 1215 l 868 1042 l 1042 1042 l 1042 1215 l 1215 1215 l 1215 521 l 1042 521 l 1042 868 l 347 868 z "},"チ":{"ha":1389,"x_min":0,"x_max":1215,"o":"m 0 521 l 0 694 l 521 694 l 521 868 l 174 868 l 174 1042 l 694 1042 l 694 694 l 1215 694 l 1215 521 l 694 521 l 694 174 l 521 174 l 521 521 l 0 521 m 174 0 l 174 174 l 521 174 l 521 0 l 174 0 m 694 1042 l 694 1215 l 1042 1215 l 1042 1042 l 694 1042 z "},"ヂ":{"ha":1389,"x_min":0,"x_max":1215,"o":"m 0 521 l 0 694 l 521 694 l 521 868 l 174 868 l 174 1042 l 694 1042 l 694 694 l 1215 694 l 1215 521 l 694 521 l 694 174 l 521 174 l 521 521 l 0 521 m 174 0 l 174 174 l 521 174 l 521 0 l 174 0 m 694 1042 l 694 1215 l 868 1215 l 868 1042 l 694 1042 m 1042 1042 l 1042 1215 l 1215 1215 l 1215 1042 l 1042 1042 z "},"ッ":{"ha":1389,"x_min":0,"x_max":1042,"o":"m 0 694 l 0 868 l 174 868 l 174 694 l 0 694 m 174 347 l 174 694 l 347 694 l 347 347 l 174 347 m 347 0 l 347 174 l 694 174 l 694 347 l 521 347 l 521 694 l 694 694 l 694 347 l 868 347 l 868 174 l 694 174 l 694 0 l 347 0 m 347 694 l 347 868 l 521 868 l 521 694 l 347 694 m 868 347 l 868 868 l 1042 868 l 1042 347 l 868 347 z "},"ツ":{"ha":1389,"x_min":0,"x_max":1215,"o":"m 0 868 l 0 1042 l 174 1042 l 174 868 l 0 868 m 174 521 l 174 868 l 347 868 l 347 521 l 174 521 m 347 0 l 347 174 l 694 174 l 694 0 l 347 0 m 347 868 l 347 1042 l 521 1042 l 521 868 l 347 868 m 521 521 l 521 868 l 694 868 l 694 521 l 521 521 m 694 174 l 694 347 l 868 347 l 868 174 l 694 174 m 868 347 l 868 521 l 1042 521 l 1042 347 l 868 347 m 1042 521 l 1042 1042 l 1215 1042 l 1215 521 l 1042 521 z "},"ヅ":{"ha":1389,"x_min":0,"x_max":1215,"o":"m 0 868 l 0 1042 l 174 1042 l 174 868 l 0 868 m 174 521 l 174 868 l 347 868 l 347 521 l 174 521 m 347 0 l 347 174 l 694 174 l 694 0 l 347 0 m 347 868 l 347 1042 l 521 1042 l 521 868 l 347 868 m 521 521 l 521 868 l 694 868 l 694 521 l 521 521 m 694 174 l 694 347 l 868 347 l 868 174 l 694 174 m 694 1042 l 694 1215 l 868 1215 l 868 1042 l 694 1042 m 868 347 l 868 521 l 1042 521 l 1042 347 l 868 347 m 1042 521 l 1042 868 l 1215 868 l 1215 521 l 1042 521 m 1042 1042 l 1042 1215 l 1215 1215 l 1215 1042 l 1042 1042 z "},"テ":{"ha":1389,"x_min":0,"x_max":1215,"o":"m 0 694 l 0 868 l 1215 868 l 1215 694 l 694 694 l 694 174 l 521 174 l 521 694 l 0 694 m 174 0 l 174 174 l 521 174 l 521 0 l 174 0 m 174 1042 l 174 1215 l 1042 1215 l 1042 1042 l 174 1042 z "},"デ":{"ha":1389,"x_min":0,"x_max":1215,"o":"m 0 694 l 0 868 l 1215 868 l 1215 694 l 694 694 l 694 174 l 521 174 l 521 694 l 0 694 m 174 0 l 174 174 l 521 174 l 521 0 l 174 0 m 174 1042 l 174 1215 l 868 1215 l 868 1042 l 174 1042 m 1042 1042 l 1042 1215 l 1215 1215 l 1215 1042 l 1042 1042 z "},"ト":{"ha":1389,"x_min":347,"x_max":1215,"o":"m 347 0 l 347 1215 l 521 1215 l 521 694 l 868 694 l 868 521 l 521 521 l 521 0 l 347 0 m 868 347 l 868 521 l 1215 521 l 1215 347 l 868 347 z "},"ド":{"ha":1389,"x_min":347,"x_max":1215,"o":"m 347 0 l 347 1215 l 521 1215 l 521 694 l 868 694 l 868 521 l 521 521 l 521 0 l 347 0 m 694 1042 l 694 1215 l 868 1215 l 868 1042 l 694 1042 m 868 347 l 868 521 l 1215 521 l 1215 347 l 868 347 m 1042 1042 l 1042 1215 l 1215 1215 l 1215 1042 l 1042 1042 z "},"ナ":{"ha":1389,"x_min":0,"x_max":1215,"o":"m 0 694 l 0 868 l 521 868 l 521 1215 l 694 1215 l 694 868 l 1215 868 l 1215 694 l 694 694 l 694 174 l 521 174 l 521 694 l 0 694 m 174 0 l 174 174 l 521 174 l 521 0 l 174 0 z "},"ニ":{"ha":1389,"x_min":0,"x_max":1215,"o":"m 0 0 l 0 174 l 1215 174 l 1215 0 l 0 0 m 174 868 l 174 1042 l 1042 1042 l 1042 868 l 174 868 z "},"ヌ":{"ha":1389,"x_min":0,"x_max":1215,"o":"m 0 0 l 0 174 l 347 174 l 347 0 l 0 0 m 174 1042 l 174 1215 l 1042 1215 l 1042 694 l 868 694 l 868 1042 l 174 1042 m 347 174 l 347 347 l 694 347 l 694 521 l 521 521 l 521 694 l 868 694 l 868 521 l 1042 521 l 1042 347 l 694 347 l 694 174 l 347 174 m 347 694 l 347 868 l 521 868 l 521 694 l 347 694 m 1042 174 l 1042 347 l 1215 347 l 1215 174 l 1042 174 z "},"ネ":{"ha":1389,"x_min":0,"x_max":1215,"o":"m 0 174 l 0 347 l 347 347 l 347 174 l 0 174 m 0 868 l 0 1042 l 521 1042 l 521 1215 l 694 1215 l 694 1042 l 1042 1042 l 1042 694 l 868 694 l 868 868 l 0 868 m 347 347 l 347 521 l 694 521 l 694 0 l 521 0 l 521 347 l 347 347 m 694 521 l 694 694 l 868 694 l 868 521 l 694 521 m 868 347 l 868 521 l 1042 521 l 1042 347 l 868 347 m 1042 174 l 1042 347 l 1215 347 l 1215 174 l 1042 174 z "},"ノ":{"ha":1389,"x_min":0,"x_max":1042,"o":"m 0 0 l 0 174 l 347 174 l 347 0 l 0 0 m 347 174 l 347 347 l 521 347 l 521 174 l 347 174 m 521 347 l 521 521 l 694 521 l 694 347 l 521 347 m 694 521 l 694 868 l 868 868 l 868 521 l 694 521 m 868 868 l 868 1215 l 1042 1215 l 1042 868 l 868 868 z "},"ハ":{"ha":1389,"x_min":0,"x_max":1215,"o":"m 0 0 l 0 174 l 174 174 l 174 0 l 0 0 m 174 174 l 174 694 l 347 694 l 347 174 l 174 174 m 347 694 l 347 1215 l 521 1215 l 521 694 l 347 694 m 694 1042 l 694 1215 l 868 1215 l 868 1042 l 694 1042 m 868 521 l 868 1042 l 1042 1042 l 1042 521 l 868 521 m 1042 0 l 1042 521 l 1215 521 l 1215 0 l 1042 0 z "},"バ":{"ha":1389,"x_min":0,"x_max":1215,"o":"m 0 0 l 0 174 l 174 174 l 174 0 l 0 0 m 174 174 l 174 694 l 347 694 l 347 174 l 174 174 m 347 694 l 347 1215 l 521 1215 l 521 694 l 347 694 m 694 1042 l 694 1215 l 868 1215 l 868 1042 l 694 1042 m 868 521 l 868 868 l 1042 868 l 1042 521 l 868 521 m 1042 0 l 1042 521 l 1215 521 l 1215 0 l 1042 0 m 1042 1042 l 1042 1215 l 1215 1215 l 1215 1042 l 1042 1042 z "},"パ":{"ha":1389,"x_min":0,"x_max":1215,"o":"m 0 0 l 0 174 l 174 174 l 174 0 l 0 0 m 174 174 l 174 694 l 347 694 l 347 174 l 174 174 m 347 694 l 347 1215 l 521 1215 l 521 694 l 347 694 m 694 868 l 694 1042 l 868 1042 l 868 868 l 694 868 m 868 521 l 868 868 l 1042 868 l 1042 521 l 868 521 m 868 1042 l 868 1215 l 1042 1215 l 1042 1042 l 868 1042 m 1042 0 l 1042 521 l 1215 521 l 1215 0 l 1042 0 m 1042 868 l 1042 1042 l 1215 1042 l 1215 868 l 1042 868 z "},"ヒ":{"ha":1389,"x_min":174,"x_max":1215,"o":"m 174 174 l 174 1215 l 347 1215 l 347 694 l 694 694 l 694 521 l 347 521 l 347 174 l 174 174 m 347 0 l 347 174 l 1215 174 l 1215 0 l 347 0 m 694 694 l 694 868 l 1215 868 l 1215 694 l 694 694 z "},"ビ":{"ha":1389,"x_min":174,"x_max":1215,"o":"m 174 174 l 174 1215 l 347 1215 l 347 694 l 694 694 l 694 521 l 347 521 l 347 174 l 174 174 m 347 0 l 347 174 l 1215 174 l 1215 0 l 347 0 m 694 694 l 694 868 l 1215 868 l 1215 694 l 694 694 m 694 1042 l 694 1215 l 868 1215 l 868 1042 l 694 1042 m 1042 1042 l 1042 1215 l 1215 1215 l 1215 1042 l 1042 1042 z "},"ピ":{"ha":1389,"x_min":174,"x_max":1215,"o":"m 174 174 l 174 1215 l 347 1215 l 347 694 l 694 694 l 694 521 l 347 521 l 347 174 l 174 174 m 347 0 l 347 174 l 1215 174 l 1215 0 l 347 0 m 694 694 l 694 1042 l 868 1042 l 868 868 l 1042 868 l 1042 1042 l 1215 1042 l 1215 694 l 694 694 m 868 1042 l 868 1215 l 1042 1215 l 1042 1042 l 868 1042 z "},"フ":{"ha":1389,"x_min":0,"x_max":1215,"o":"m 0 868 l 0 1042 l 1215 1042 l 1215 521 l 1042 521 l 1042 868 l 0 868 m 174 0 l 174 174 l 521 174 l 521 0 l 174 0 m 521 174 l 521 347 l 868 347 l 868 174 l 521 174 m 868 347 l 868 521 l 1042 521 l 1042 347 l 868 347 z "},"ブ":{"ha":1389,"x_min":0,"x_max":1215,"o":"m 0 868 l 0 1042 l 694 1042 l 694 1215 l 868 1215 l 868 1042 l 1042 1042 l 1042 1215 l 1215 1215 l 1215 521 l 1042 521 l 1042 868 l 0 868 m 174 0 l 174 174 l 521 174 l 521 0 l 174 0 m 521 174 l 521 347 l 868 347 l 868 174 l 521 174 m 868 347 l 868 521 l 1042 521 l 1042 347 l 868 347 z "},"プ":{"ha":1389,"x_min":0,"x_max":1215,"o":"m 0 868 l 0 1042 l 868 1042 l 868 868 l 0 868 m 174 0 l 174 174 l 521 174 l 521 0 l 174 0 m 521 174 l 521 347 l 868 347 l 868 868 l 1042 868 l 1042 1042 l 1215 1042 l 1215 694 l 1042 694 l 1042 347 l 868 347 l 868 174 l 521 174 m 868 1042 l 868 1215 l 1042 1215 l 1042 1042 l 868 1042 z "},"ヘ":{"ha":1389,"x_min":0,"x_max":1215,"o":"m 0 521 l 0 694 l 174 694 l 174 521 l 0 521 m 174 694 l 174 868 l 347 868 l 347 694 l 174 694 m 347 868 l 347 1042 l 521 1042 l 521 868 l 347 868 m 521 694 l 521 868 l 694 868 l 694 694 l 521 694 m 694 521 l 694 694 l 868 694 l 868 521 l 694 521 m 868 347 l 868 521 l 1042 521 l 1042 347 l 868 347 m 1042 174 l 1042 347 l 1215 347 l 1215 174 l 1042 174 z "},"ベ":{"ha":1389,"x_min":0,"x_max":1215,"o":"m 0 521 l 0 694 l 174 694 l 174 521 l 0 521 m 174 694 l 174 868 l 347 868 l 347 694 l 174 694 m 347 868 l 347 1042 l 521 1042 l 521 868 l 347 868 m 521 694 l 521 868 l 694 868 l 694 694 l 521 694 m 694 521 l 694 694 l 868 694 l 868 521 l 694 521 m 694 1042 l 694 1215 l 868 1215 l 868 1042 l 694 1042 m 868 347 l 868 521 l 1042 521 l 1042 347 l 868 347 m 1042 174 l 1042 347 l 1215 347 l 1215 174 l 1042 174 m 1042 1042 l 1042 1215 l 1215 1215 l 1215 1042 l 1042 1042 z "},"ペ":{"ha":1389,"x_min":0,"x_max":1215,"o":"m 0 521 l 0 694 l 174 694 l 174 521 l 0 521 m 174 694 l 174 868 l 347 868 l 347 694 l 174 694 m 347 868 l 347 1042 l 521 1042 l 521 868 l 347 868 m 521 694 l 521 868 l 694 868 l 694 694 l 521 694 m 694 521 l 694 694 l 868 694 l 868 521 l 694 521 m 694 868 l 694 1042 l 868 1042 l 868 868 l 694 868 m 868 347 l 868 521 l 1042 521 l 1042 347 l 868 347 m 868 694 l 868 868 l 1042 868 l 1042 694 l 868 694 m 868 1042 l 868 1215 l 1042 1215 l 1042 1042 l 868 1042 m 1042 174 l 1042 347 l 1215 347 l 1215 174 l 1042 174 m 1042 868 l 1042 1042 l 1215 1042 l 1215 868 l 1042 868 z "},"ホ":{"ha":1389,"x_min":0,"x_max":1215,"o":"m 0 174 l 0 347 l 174 347 l 174 174 l 0 174 m 0 868 l 0 1042 l 521 1042 l 521 1215 l 694 1215 l 694 1042 l 1215 1042 l 1215 868 l 694 868 l 694 0 l 347 0 l 347 174 l 521 174 l 521 868 l 0 868 m 174 347 l 174 694 l 347 694 l 347 347 l 174 347 m 868 521 l 868 694 l 1042 694 l 1042 521 l 868 521 m 1042 174 l 1042 521 l 1215 521 l 1215 174 l 1042 174 z "},"ボ":{"ha":1389,"x_min":0,"x_max":1215,"o":"m 0 174 l 0 347 l 174 347 l 174 174 l 0 174 m 0 868 l 0 1042 l 521 1042 l 521 1215 l 694 1215 l 694 1042 l 868 1042 l 868 1215 l 1042 1215 l 1042 1042 l 1215 1042 l 1215 868 l 694 868 l 694 0 l 347 0 l 347 174 l 521 174 l 521 868 l 0 868 m 174 347 l 174 694 l 347 694 l 347 347 l 174 347 m 868 521 l 868 694 l 1042 694 l 1042 521 l 868 521 m 1042 174 l 1042 521 l 1215 521 l 1215 174 l 1042 174 z "},"ポ":{"ha":1389,"x_min":0,"x_max":1215,"o":"m 0 174 l 0 347 l 174 347 l 174 174 l 0 174 m 0 868 l 0 1042 l 521 1042 l 521 1215 l 694 1215 l 694 1042 l 868 1042 l 868 868 l 694 868 l 694 0 l 347 0 l 347 174 l 521 174 l 521 868 l 0 868 m 174 347 l 174 694 l 347 694 l 347 347 l 174 347 m 868 347 l 868 521 l 1042 521 l 1042 347 l 868 347 m 868 694 l 868 868 l 1042 868 l 1042 694 l 868 694 m 868 1042 l 868 1215 l 1042 1215 l 1042 1042 l 868 1042 m 1042 174 l 1042 347 l 1215 347 l 1215 174 l 1042 174 m 1042 868 l 1042 1042 l 1215 1042 l 1215 868 l 1042 868 z "},"マ":{"ha":1389,"x_min":0,"x_max":1215,"o":"m 0 868 l 0 1042 l 1215 1042 l 1215 694 l 1042 694 l 1042 868 l 0 868 m 347 347 l 347 521 l 521 521 l 521 347 l 347 347 m 521 174 l 521 347 l 694 347 l 694 174 l 521 174 m 694 0 l 694 174 l 868 174 l 868 0 l 694 0 m 694 347 l 694 521 l 868 521 l 868 347 l 694 347 m 868 521 l 868 694 l 1042 694 l 1042 521 l 868 521 z "},"ミ":{"ha":1389,"x_min":0,"x_max":1215,"o":"m 0 174 l 0 347 l 694 347 l 694 174 l 0 174 m 174 694 l 174 868 l 521 868 l 521 694 l 174 694 m 174 1042 l 174 1215 l 694 1215 l 694 1042 l 174 1042 m 521 521 l 521 694 l 1042 694 l 1042 521 l 521 521 m 694 0 l 694 174 l 1215 174 l 1215 0 l 694 0 m 694 868 l 694 1042 l 1042 1042 l 1042 868 l 694 868 z "},"ム":{"ha":1389,"x_min":0,"x_max":1215,"o":"m 0 0 l 0 347 l 174 347 l 174 174 l 868 174 l 868 0 l 0 0 m 174 347 l 174 521 l 347 521 l 347 347 l 174 347 m 347 521 l 347 868 l 521 868 l 521 521 l 347 521 m 521 868 l 521 1215 l 694 1215 l 694 868 l 521 868 m 694 347 l 694 521 l 868 521 l 868 347 l 694 347 m 868 174 l 868 347 l 1042 347 l 1042 174 l 868 174 m 1042 0 l 1042 174 l 1215 174 l 1215 0 l 1042 0 z "},"メ":{"ha":1389,"x_min":0,"x_max":1215,"o":"m 0 0 l 0 174 l 347 174 l 347 0 l 0 0 m 174 868 l 174 1042 l 521 1042 l 521 868 l 174 868 m 347 174 l 347 347 l 521 347 l 521 174 l 347 174 m 521 347 l 521 521 l 694 521 l 694 694 l 521 694 l 521 868 l 694 868 l 694 694 l 868 694 l 868 521 l 694 521 l 694 347 l 521 347 m 868 347 l 868 521 l 1042 521 l 1042 347 l 868 347 m 868 694 l 868 1215 l 1042 1215 l 1042 694 l 868 694 m 1042 174 l 1042 347 l 1215 347 l 1215 174 l 1042 174 z "},"モ":{"ha":1389,"x_min":0,"x_max":1215,"o":"m 0 521 l 0 694 l 347 694 l 347 1042 l 174 1042 l 174 1215 l 1042 1215 l 1042 1042 l 521 1042 l 521 694 l 1215 694 l 1215 521 l 521 521 l 521 174 l 347 174 l 347 521 l 0 521 m 521 0 l 521 174 l 1215 174 l 1215 0 l 521 0 z "},"ャ":{"ha":1389,"x_min":0,"x_max":1042,"o":"m 0 521 l 0 694 l 174 694 l 174 1042 l 347 1042 l 347 694 l 521 694 l 521 174 l 347 174 l 347 521 l 0 521 m 521 0 l 521 174 l 694 174 l 694 0 l 521 0 m 521 694 l 521 868 l 1042 868 l 1042 521 l 868 521 l 868 694 l 521 694 m 694 347 l 694 521 l 868 521 l 868 347 l 694 347 z "},"ヤ":{"ha":1389,"x_min":0,"x_max":1215,"o":"m 0 694 l 0 868 l 174 868 l 174 1215 l 347 1215 l 347 868 l 521 868 l 521 347 l 347 347 l 347 694 l 0 694 m 521 0 l 521 347 l 694 347 l 694 0 l 521 0 m 521 868 l 521 1042 l 1215 1042 l 1215 694 l 1042 694 l 1042 868 l 521 868 m 868 521 l 868 694 l 1042 694 l 1042 521 l 868 521 z "},"ュ":{"ha":1389,"x_min":0,"x_max":1042,"o":"m 0 0 l 0 174 l 694 174 l 694 521 l 174 521 l 174 694 l 868 694 l 868 174 l 1042 174 l 1042 0 l 0 0 z "},"ユ":{"ha":1389,"x_min":0,"x_max":1215,"o":"m 0 0 l 0 174 l 694 174 l 694 868 l 174 868 l 174 1042 l 868 1042 l 868 174 l 1215 174 l 1215 0 l 0 0 z "},"ョ":{"ha":1389,"x_min":174,"x_max":1042,"o":"m 174 0 l 174 174 l 868 174 l 868 347 l 347 347 l 347 521 l 868 521 l 868 694 l 174 694 l 174 868 l 1042 868 l 1042 0 l 174 0 z "},"ヨ":{"ha":1389,"x_min":0,"x_max":1215,"o":"m 0 0 l 0 174 l 1042 174 l 1042 521 l 174 521 l 174 694 l 1042 694 l 1042 868 l 0 868 l 0 1042 l 1215 1042 l 1215 0 l 0 0 z "},"ラ":{"ha":1389,"x_min":0,"x_max":1215,"o":"m 0 694 l 0 868 l 1215 868 l 1215 347 l 1042 347 l 1042 694 l 0 694 m 174 1042 l 174 1215 l 1042 1215 l 1042 1042 l 174 1042 m 347 0 l 347 174 l 694 174 l 694 0 l 347 0 m 694 174 l 694 347 l 1042 347 l 1042 174 l 694 174 z "},"リ":{"ha":1389,"x_min":174,"x_max":1042,"o":"m 174 521 l 174 1215 l 347 1215 l 347 521 l 174 521 m 347 0 l 347 174 l 694 174 l 694 0 l 347 0 m 694 174 l 694 347 l 868 347 l 868 174 l 694 174 m 868 347 l 868 1215 l 1042 1215 l 1042 347 l 868 347 z "},"ル":{"ha":1389,"x_min":0,"x_max":1215,"o":"m 0 0 l 0 174 l 174 174 l 174 0 l 0 0 m 174 174 l 174 347 l 347 347 l 347 174 l 174 174 m 347 347 l 347 1042 l 521 1042 l 521 347 l 347 347 m 694 0 l 694 1215 l 868 1215 l 868 174 l 1042 174 l 1042 0 l 694 0 m 1042 174 l 1042 521 l 1215 521 l 1215 174 l 1042 174 z "},"レ":{"ha":1389,"x_min":174,"x_max":1215,"o":"m 174 0 l 174 1215 l 347 1215 l 347 174 l 521 174 l 521 0 l 174 0 m 521 174 l 521 347 l 868 347 l 868 174 l 521 174 m 868 347 l 868 521 l 1042 521 l 1042 347 l 868 347 m 1042 521 l 1042 694 l 1215 694 l 1215 521 l 1042 521 z "},"ロ":{"ha":1389,"x_min":0,"x_max":1215,"o":"m 0 0 l 0 1042 l 1215 1042 l 1215 0 l 0 0 m 174 174 l 1042 174 l 1042 868 l 174 868 l 174 174 z "},"ヮ":{"ha":1389,"x_min":0,"x_max":1042,"o":"m 0 521 l 0 868 l 1042 868 l 1042 347 l 868 347 l 868 694 l 174 694 l 174 521 l 0 521 m 347 0 l 347 174 l 694 174 l 694 0 l 347 0 m 694 174 l 694 347 l 868 347 l 868 174 l 694 174 z "},"ワ":{"ha":1389,"x_min":0,"x_max":1215,"o":"m 0 521 l 0 1042 l 1215 1042 l 1215 521 l 1042 521 l 1042 868 l 174 868 l 174 521 l 0 521 m 347 0 l 347 174 l 694 174 l 694 0 l 347 0 m 694 174 l 694 347 l 868 347 l 868 174 l 694 174 m 868 347 l 868 521 l 1042 521 l 1042 347 l 868 347 z "},"ヰ":{"ha":1389,"x_min":0,"x_max":1215,"o":"m 0 174 l 0 347 l 174 347 l 174 868 l 0 868 l 0 1042 l 694 1042 l 694 1215 l 868 1215 l 868 1042 l 1215 1042 l 1215 868 l 868 868 l 868 347 l 1215 347 l 1215 174 l 868 174 l 868 0 l 694 0 l 694 174 l 0 174 m 347 347 l 694 347 l 694 868 l 347 868 l 347 347 z "},"ヱ":{"ha":1389,"x_min":0,"x_max":1215,"o":"m 0 0 l 0 174 l 521 174 l 521 868 l 0 868 l 0 1042 l 1215 1042 l 1215 694 l 1042 694 l 1042 868 l 694 868 l 694 174 l 1215 174 l 1215 0 l 0 0 m 868 521 l 868 694 l 1042 694 l 1042 521 l 868 521 z "},"ヲ":{"ha":1389,"x_min":0,"x_max":1215,"o":"m 0 1042 l 0 1215 l 1215 1215 l 1215 521 l 1042 521 l 1042 694 l 174 694 l 174 868 l 1042 868 l 1042 1042 l 0 1042 m 174 0 l 174 174 l 521 174 l 521 0 l 174 0 m 521 174 l 521 347 l 868 347 l 868 174 l 521 174 m 868 347 l 868 521 l 1042 521 l 1042 347 l 868 347 z "},"ン":{"ha":1389,"x_min":0,"x_max":1215,"o":"m 0 1042 l 0 1215 l 347 1215 l 347 1042 l 0 1042 m 174 0 l 174 174 l 521 174 l 521 0 l 174 0 m 347 868 l 347 1042 l 521 1042 l 521 868 l 347 868 m 521 174 l 521 347 l 868 347 l 868 174 l 521 174 m 868 347 l 868 521 l 1042 521 l 1042 347 l 868 347 m 1042 521 l 1042 694 l 1215 694 l 1215 521 l 1042 521 z "},"ヴ":{"ha":1389,"x_min":0,"x_max":1215,"o":"m 0 347 l 0 868 l 347 868 l 347 1215 l 521 1215 l 521 868 l 1215 868 l 1215 347 l 1042 347 l 1042 694 l 174 694 l 174 347 l 0 347 m 347 0 l 347 174 l 694 174 l 694 0 l 347 0 m 694 174 l 694 347 l 1042 347 l 1042 174 l 694 174 m 694 1042 l 694 1215 l 868 1215 l 868 1042 l 694 1042 m 1042 1042 l 1042 1215 l 1215 1215 l 1215 1042 l 1042 1042 z "},"ヵ":{"ha":1389,"x_min":0,"x_max":1042,"o":"m 0 0 l 0 174 l 174 174 l 174 0 l 0 0 m 0 694 l 0 868 l 347 868 l 347 1042 l 521 1042 l 521 868 l 1042 868 l 1042 174 l 868 174 l 868 694 l 521 694 l 521 347 l 347 347 l 347 694 l 0 694 m 174 174 l 174 347 l 347 347 l 347 174 l 174 174 m 521 0 l 521 174 l 868 174 l 868 0 l 521 0 z "},"ヶ":{"ha":1389,"x_min":0,"x_max":1042,"o":"m 0 521 l 0 694 l 174 694 l 174 521 l 0 521 m 174 694 l 174 1042 l 347 1042 l 347 868 l 1042 868 l 1042 694 l 694 694 l 694 174 l 521 174 l 521 694 l 174 694 m 347 0 l 347 174 l 521 174 l 521 0 l 347 0 z "},"・":{"ha":1389,"x_min":347,"x_max":694,"o":"m 347 347 l 347 694 l 694 694 l 694 347 l 347 347 z "},"ー":{"ha":1389,"x_min":0,"x_max":1215,"o":"m 0 694 l 0 868 l 174 868 l 174 694 l 0 694 m 174 521 l 174 694 l 1215 694 l 1215 521 l 174 521 z "},"ヽ":{"ha":1389,"x_min":174,"x_max":1042,"o":"m 174 868 l 174 1042 l 521 1042 l 521 868 l 174 868 m 521 694 l 521 868 l 694 868 l 694 694 l 521 694 m 694 521 l 694 694 l 868 694 l 868 521 l 694 521 m 868 174 l 868 521 l 1042 521 l 1042 174 l 868 174 z "},"ヾ":{"ha":1389,"x_min":174,"x_max":1215,"o":"m 174 868 l 174 1042 l 521 1042 l 521 868 l 174 868 m 521 694 l 521 868 l 694 868 l 694 694 l 521 694 m 694 521 l 694 694 l 868 694 l 868 521 l 694 521 m 694 1042 l 694 1215 l 868 1215 l 868 1042 l 694 1042 m 868 174 l 868 521 l 1042 521 l 1042 174 l 868 174 m 1042 1042 l 1042 1215 l 1215 1215 l 1215 1042 l 1042 1042 z "},"㈱":{"ha":1389,"x_min":0,"x_max":1215,"o":"m 0 174 l 0 1042 l 174 1042 l 174 1215 l 347 1215 l 347 1042 l 694 1042 l 694 868 l 1042 868 l 1042 1042 l 1215 1042 l 1215 174 l 1042 174 l 1042 0 l 694 0 l 694 347 l 521 347 l 521 0 l 174 0 l 174 174 l 0 174 m 174 174 l 347 174 l 347 347 l 174 347 l 174 174 m 174 694 l 347 694 l 347 868 l 174 868 l 174 694 m 521 521 l 694 521 l 694 694 l 521 694 l 521 521 m 868 174 l 1042 174 l 1042 347 l 868 347 l 868 174 m 868 521 l 1042 521 l 1042 694 l 868 694 l 868 521 m 868 1042 l 868 1215 l 1042 1215 l 1042 1042 l 868 1042 z "},"㈲":{"ha":1389,"x_min":0,"x_max":1215,"o":"m 0 174 l 0 1042 l 174 1042 l 174 521 l 347 521 l 347 347 l 174 347 l 174 174 l 0 174 m 174 0 l 174 174 l 347 174 l 347 0 l 174 0 m 174 1042 l 174 1215 l 347 1215 l 347 1042 l 174 1042 m 347 521 l 347 694 l 521 694 l 521 868 l 347 868 l 347 1042 l 521 1042 l 521 1215 l 694 1215 l 694 1042 l 868 1042 l 868 868 l 694 868 l 694 694 l 1042 694 l 1042 1042 l 1215 1042 l 1215 174 l 1042 174 l 1042 0 l 868 0 l 868 174 l 694 174 l 694 0 l 521 0 l 521 521 l 347 521 m 694 347 l 868 347 l 868 521 l 694 521 l 694 347 m 868 1042 l 868 1215 l 1042 1215 l 1042 1042 l 868 1042 z "},"㈹":{"ha":1389,"x_min":0,"x_max":1215,"o":"m 0 174 l 0 1042 l 174 1042 l 174 694 l 347 694 l 347 1042 l 521 1042 l 521 868 l 694 868 l 694 1042 l 868 1042 l 868 868 l 1042 868 l 1042 1042 l 1215 1042 l 1215 174 l 1042 174 l 1042 0 l 868 0 l 868 347 l 694 347 l 694 694 l 521 694 l 521 174 l 347 174 l 347 521 l 174 521 l 174 174 l 0 174 m 174 0 l 174 174 l 347 174 l 347 0 l 174 0 m 174 1042 l 174 1215 l 347 1215 l 347 1042 l 174 1042 m 868 347 l 1042 347 l 1042 694 l 868 694 l 868 347 m 868 1042 l 868 1215 l 1042 1215 l 1042 1042 l 868 1042 z "},"㊤":{"ha":1389,"x_min":0,"x_max":1215,"o":"m 0 174 l 0 1042 l 174 1042 l 174 174 l 0 174 m 174 0 l 174 174 l 347 174 l 347 347 l 521 347 l 521 1042 l 174 1042 l 174 1215 l 1042 1215 l 1042 1042 l 694 1042 l 694 868 l 868 868 l 868 694 l 694 694 l 694 347 l 868 347 l 868 174 l 1042 174 l 1042 0 l 174 0 m 1042 174 l 1042 1042 l 1215 1042 l 1215 174 l 1042 174 z "},"㊥":{"ha":1389,"x_min":0,"x_max":1215,"o":"m 0 174 l 0 1042 l 174 1042 l 174 1215 l 1042 1215 l 1042 1042 l 1215 1042 l 1215 174 l 1042 174 l 1042 0 l 174 0 l 174 174 l 0 174 m 174 174 l 521 174 l 521 347 l 174 347 l 174 174 m 174 868 l 521 868 l 521 1042 l 174 1042 l 174 868 m 347 521 l 521 521 l 521 694 l 347 694 l 347 521 m 694 174 l 1042 174 l 1042 347 l 694 347 l 694 174 m 694 521 l 868 521 l 868 694 l 694 694 l 694 521 m 694 868 l 1042 868 l 1042 1042 l 694 1042 l 694 868 z "},"㊦":{"ha":1389,"x_min":0,"x_max":1215,"o":"m 0 174 l 0 1042 l 174 1042 l 174 174 l 0 174 m 174 0 l 174 174 l 521 174 l 521 868 l 347 868 l 347 1042 l 174 1042 l 174 1215 l 1042 1215 l 1042 1042 l 868 1042 l 868 868 l 694 868 l 694 694 l 868 694 l 868 521 l 694 521 l 694 174 l 1042 174 l 1042 0 l 174 0 m 1042 174 l 1042 1042 l 1215 1042 l 1215 174 l 1042 174 z "},"㊧":{"ha":1389,"x_min":0,"x_max":1215,"o":"m 0 174 l 0 1042 l 174 1042 l 174 1215 l 1042 1215 l 1042 1042 l 868 1042 l 868 868 l 521 868 l 521 694 l 868 694 l 868 521 l 694 521 l 694 347 l 868 347 l 868 174 l 1042 174 l 1042 0 l 174 0 l 174 174 l 0 174 m 174 174 l 347 174 l 347 347 l 521 347 l 521 521 l 347 521 l 347 347 l 174 347 l 174 174 m 174 521 l 347 521 l 347 868 l 174 868 l 174 521 m 1042 174 l 1042 1042 l 1215 1042 l 1215 174 l 1042 174 z "},"㊨":{"ha":1389,"x_min":0,"x_max":1215,"o":"m 0 174 l 0 1042 l 174 1042 l 174 1215 l 1042 1215 l 1042 1042 l 521 1042 l 521 868 l 868 868 l 868 694 l 521 694 l 521 521 l 347 521 l 347 347 l 174 347 l 174 174 l 0 174 m 174 0 l 174 174 l 521 174 l 521 521 l 868 521 l 868 174 l 1042 174 l 1042 0 l 174 0 m 174 521 l 347 521 l 347 694 l 174 694 l 174 521 m 174 868 l 347 868 l 347 1042 l 174 1042 l 174 868 m 1042 174 l 1042 1042 l 1215 1042 l 1215 174 l 1042 174 z "},"㋿":{"ha":1389,"x_min":0,"x_max":1215,"o":"m 0 347 l 0 521 l 521 521 l 521 174 l 347 174 l 347 0 l 174 0 l 174 347 l 0 347 m 0 694 l 0 1042 l 174 1042 l 174 868 l 347 868 l 347 1042 l 521 1042 l 521 694 l 0 694 m 174 1042 l 174 1215 l 347 1215 l 347 1042 l 174 1042 m 694 174 l 694 521 l 868 521 l 868 694 l 694 694 l 694 868 l 868 868 l 868 1042 l 694 1042 l 694 1215 l 1042 1215 l 1042 1042 l 1215 1042 l 1215 347 l 1042 347 l 1042 0 l 868 0 l 868 174 l 694 174 z "},"㌃":{"ha":1389,"x_min":0,"x_max":1215,"o":"m 0 0 l 0 174 l 174 174 l 174 521 l 521 521 l 521 174 l 694 174 l 694 0 l 347 0 l 347 174 l 174 174 l 174 0 l 0 0 m 0 521 l 0 694 l 174 694 l 174 521 l 0 521 m 0 1042 l 0 1215 l 694 1215 l 694 868 l 521 868 l 521 694 l 174 694 l 174 1042 l 0 1042 m 347 868 l 521 868 l 521 1042 l 347 1042 l 347 868 m 868 868 l 868 1042 l 1215 1042 l 1215 868 l 868 868 z "},"㌍":{"ha":1389,"x_min":0,"x_max":1215,"o":"m 0 174 l 0 521 l 174 521 l 174 174 l 0 174 m 0 694 l 0 868 l 174 868 l 174 694 l 0 694 m 0 1042 l 0 1215 l 521 1215 l 521 694 l 347 694 l 347 868 l 174 868 l 174 1042 l 0 1042 m 347 0 l 347 521 l 521 521 l 521 0 l 347 0 m 694 174 l 694 347 l 1215 347 l 1215 174 l 694 174 m 694 694 l 694 1215 l 1215 1215 l 1215 694 l 694 694 m 868 868 l 1042 868 l 1042 1042 l 868 1042 l 868 868 z "},"㌔":{"ha":1389,"x_min":0,"x_max":1215,"o":"m 0 521 l 0 694 l 174 694 l 174 868 l 0 868 l 0 1042 l 174 1042 l 174 1215 l 347 1215 l 347 1042 l 521 1042 l 521 868 l 347 868 l 347 694 l 521 694 l 521 521 l 347 521 l 347 347 l 174 347 l 174 521 l 0 521 m 694 0 l 694 694 l 1215 694 l 1215 0 l 694 0 m 868 174 l 1042 174 l 1042 521 l 868 521 l 868 174 z "},"㌘":{"ha":1389,"x_min":0,"x_max":1215,"o":"m 0 0 l 0 174 l 174 174 l 174 347 l 347 347 l 347 521 l 521 521 l 521 347 l 347 347 l 347 174 l 521 174 l 521 347 l 694 347 l 694 0 l 0 0 m 0 521 l 0 694 l 347 694 l 347 521 l 0 521 m 0 868 l 0 1042 l 174 1042 l 174 868 l 0 868 m 174 1042 l 174 1215 l 694 1215 l 694 1042 l 521 1042 l 521 694 l 347 694 l 347 1042 l 174 1042 m 694 521 l 694 694 l 1042 694 l 1042 521 l 694 521 m 694 868 l 694 1042 l 868 1042 l 868 1215 l 1215 1215 l 1215 694 l 1042 694 l 1042 868 l 694 868 z "},"㌢":{"ha":1389,"x_min":0,"x_max":1215,"o":"m 0 174 l 0 347 l 174 347 l 174 521 l 0 521 l 0 1215 l 174 1215 l 174 1042 l 521 1042 l 521 694 l 347 694 l 347 347 l 521 347 l 521 174 l 347 174 l 347 0 l 174 0 l 174 174 l 0 174 m 174 694 l 347 694 l 347 868 l 174 868 l 174 694 m 694 521 l 694 694 l 1042 694 l 1042 521 l 694 521 m 694 1042 l 694 1215 l 1042 1215 l 1042 1042 l 694 1042 m 1042 694 l 1042 868 l 1215 868 l 1215 694 l 1042 694 z "},"㌣":{"ha":1389,"x_min":0,"x_max":1215,"o":"m 0 521 l 0 1215 l 174 1215 l 174 1042 l 521 1042 l 521 694 l 347 694 l 347 347 l 521 347 l 521 174 l 347 174 l 347 0 l 174 0 l 174 521 l 0 521 m 174 694 l 347 694 l 347 868 l 174 868 l 174 694 m 694 521 l 694 694 l 1042 694 l 1042 521 l 694 521 m 694 1042 l 694 1215 l 1042 1215 l 1042 1042 l 694 1042 m 1042 694 l 1042 868 l 1215 868 l 1215 694 l 1042 694 z "},"㌦":{"ha":1389,"x_min":0,"x_max":1215,"o":"m 0 521 l 0 1215 l 174 1215 l 174 868 l 521 868 l 521 694 l 174 694 l 174 521 l 0 521 m 347 0 l 347 174 l 521 174 l 521 0 l 347 0 m 347 1042 l 347 1215 l 521 1215 l 521 1042 l 347 1042 m 521 174 l 521 521 l 694 521 l 694 174 l 521 174 m 694 1042 l 694 1215 l 868 1215 l 868 1042 l 694 1042 m 868 0 l 868 521 l 1042 521 l 1042 174 l 1215 174 l 1215 0 l 868 0 z "},"㌧":{"ha":1389,"x_min":0,"x_max":1215,"o":"m 0 521 l 0 1215 l 174 1215 l 174 868 l 521 868 l 521 694 l 174 694 l 174 521 l 0 521 m 694 0 l 694 174 l 1042 174 l 1042 0 l 694 0 m 694 521 l 694 694 l 1042 694 l 1042 521 l 694 521 m 1042 174 l 1042 347 l 1215 347 l 1215 174 l 1042 174 z "},"㌫":{"ha":1389,"x_min":0,"x_max":1215,"o":"m 0 0 l 0 521 l 174 521 l 174 347 l 347 347 l 347 0 l 0 0 m 0 694 l 0 1042 l 174 1042 l 174 694 l 0 694 m 174 1042 l 174 1215 l 694 1215 l 694 868 l 521 868 l 521 694 l 347 694 l 347 1042 l 174 1042 m 521 0 l 521 174 l 868 174 l 868 521 l 1042 521 l 1042 347 l 1215 347 l 1215 174 l 1042 174 l 1042 0 l 521 0 m 521 347 l 521 521 l 694 521 l 694 347 l 521 347 m 868 868 l 868 1042 l 1215 1042 l 1215 868 l 868 868 z "},"㌶":{"ha":1389,"x_min":0,"x_max":1215,"o":"m 0 0 l 0 174 l 174 174 l 174 347 l 347 347 l 347 174 l 174 174 l 174 0 l 0 0 m 0 347 l 0 521 l 174 521 l 174 347 l 0 347 m 0 868 l 0 1042 l 174 1042 l 174 868 l 0 868 m 174 521 l 174 694 l 521 694 l 521 521 l 694 521 l 694 694 l 1042 694 l 1042 174 l 1215 174 l 1215 0 l 868 0 l 868 174 l 694 174 l 694 347 l 347 347 l 347 521 l 174 521 m 174 1042 l 174 1215 l 347 1215 l 347 1042 l 174 1042 m 347 868 l 347 1042 l 521 1042 l 521 868 l 347 868 m 521 0 l 521 174 l 694 174 l 694 0 l 521 0 m 694 868 l 694 1042 l 868 1042 l 868 868 l 694 868 m 868 1042 l 868 1215 l 1215 1215 l 1215 694 l 1042 694 l 1042 1042 l 868 1042 z "},"㌻":{"ha":1389,"x_min":0,"x_max":1215,"o":"m 0 0 l 0 174 l 347 174 l 347 347 l 521 347 l 521 174 l 347 174 l 347 0 l 0 0 m 0 347 l 0 694 l 347 694 l 347 347 l 0 347 m 0 868 l 0 1042 l 174 1042 l 174 868 l 0 868 m 174 1042 l 174 1215 l 347 1215 l 347 1042 l 174 1042 m 347 868 l 347 1042 l 521 1042 l 521 868 l 347 868 m 521 347 l 521 521 l 694 521 l 694 347 l 521 347 m 521 694 l 521 868 l 694 868 l 694 694 l 521 694 m 521 1042 l 521 1215 l 694 1215 l 694 1042 l 521 1042 m 868 868 l 868 1042 l 1215 1042 l 1215 868 l 868 868 z "},"㍉":{"ha":1389,"x_min":0,"x_max":1215,"o":"m 0 347 l 0 521 l 521 521 l 521 347 l 0 347 m 0 1042 l 0 1215 l 521 1215 l 521 1042 l 0 1042 m 174 694 l 174 868 l 521 868 l 521 694 l 174 694 m 694 347 l 694 694 l 868 694 l 868 347 l 694 347 m 868 0 l 868 174 l 1042 174 l 1042 0 l 868 0 m 1042 174 l 1042 694 l 1215 694 l 1215 174 l 1042 174 z "},"㍊":{"ha":1389,"x_min":0,"x_max":1215,"o":"m 0 0 l 0 347 l 174 347 l 174 0 l 0 0 m 0 1042 l 0 1215 l 521 1215 l 521 868 l 694 868 l 694 694 l 174 694 l 174 1042 l 0 1042 m 174 347 l 174 521 l 521 521 l 521 347 l 694 347 l 694 521 l 1042 521 l 1042 174 l 1215 174 l 1215 0 l 868 0 l 868 174 l 694 174 l 694 0 l 347 0 l 347 347 l 174 347 m 694 868 l 694 1215 l 868 1215 l 868 868 l 694 868 m 1042 694 l 1042 1215 l 1215 1215 l 1215 694 l 1042 694 z "},"㍍":{"ha":1389,"x_min":0,"x_max":1215,"o":"m 0 0 l 0 521 l 174 521 l 174 347 l 347 347 l 347 174 l 174 174 l 174 0 l 0 0 m 0 694 l 0 868 l 174 868 l 174 1042 l 347 1042 l 347 868 l 174 868 l 174 694 l 0 694 m 0 1042 l 0 1215 l 174 1215 l 174 1042 l 0 1042 m 347 694 l 347 868 l 521 868 l 521 694 l 347 694 m 347 1042 l 347 1215 l 521 1215 l 521 1042 l 347 1042 m 521 0 l 521 174 l 694 174 l 694 0 l 521 0 m 694 174 l 694 521 l 1042 521 l 1042 174 l 1215 174 l 1215 0 l 868 0 l 868 174 l 694 174 m 694 868 l 694 1042 l 1215 1042 l 1215 868 l 694 868 z "},"㍑":{"ha":1389,"x_min":0,"x_max":1215,"o":"m 0 0 l 0 521 l 174 521 l 174 347 l 347 347 l 347 174 l 174 174 l 174 0 l 0 0 m 0 868 l 0 1215 l 174 1215 l 174 868 l 0 868 m 347 694 l 347 1215 l 521 1215 l 521 694 l 347 694 m 521 0 l 521 174 l 694 174 l 694 0 l 521 0 m 694 174 l 694 521 l 1042 521 l 1042 174 l 1215 174 l 1215 0 l 868 0 l 868 174 l 694 174 m 694 868 l 694 1042 l 1215 1042 l 1215 694 l 1042 694 l 1042 868 l 694 868 z "},"㍗":{"ha":1389,"x_min":0,"x_max":1215,"o":"m 0 868 l 0 1215 l 521 1215 l 521 694 l 347 694 l 347 1042 l 174 1042 l 174 868 l 0 868 m 174 0 l 174 694 l 347 694 l 347 347 l 521 347 l 521 174 l 347 174 l 347 0 l 174 0 m 694 868 l 694 1042 l 1215 1042 l 1215 694 l 1042 694 l 1042 868 l 694 868 z "},"㍻":{"ha":1389,"x_min":0,"x_max":1215,"o":"m 0 347 l 0 521 l 174 521 l 174 694 l 0 694 l 0 868 l 174 868 l 174 1042 l 0 1042 l 0 1215 l 521 1215 l 521 1042 l 347 1042 l 347 868 l 521 868 l 521 694 l 347 694 l 347 521 l 521 521 l 521 347 l 347 347 l 347 0 l 174 0 l 174 347 l 0 347 m 521 0 l 521 174 l 694 174 l 694 0 l 521 0 m 694 174 l 694 1042 l 868 1042 l 868 1215 l 1042 1215 l 1042 1042 l 1215 1042 l 1215 868 l 1042 868 l 1042 521 l 1215 521 l 1215 347 l 1042 347 l 1042 174 l 694 174 m 1042 0 l 1042 174 l 1215 174 l 1215 0 l 1042 0 z "},"㍼":{"ha":1389,"x_min":0,"x_max":1215,"o":"m 0 347 l 0 1042 l 174 1042 l 174 1215 l 521 1215 l 521 521 l 347 521 l 347 694 l 174 694 l 174 347 l 0 347 m 174 0 l 174 347 l 521 347 l 521 0 l 174 0 m 694 174 l 694 521 l 868 521 l 868 694 l 694 694 l 694 868 l 868 868 l 868 1042 l 694 1042 l 694 1215 l 1042 1215 l 1042 1042 l 1215 1042 l 1215 347 l 1042 347 l 1042 0 l 868 0 l 868 174 l 694 174 z "},"㍽":{"ha":1389,"x_min":0,"x_max":1215,"o":"m 0 0 l 0 347 l 174 347 l 174 0 l 0 0 m 0 694 l 0 868 l 174 868 l 174 1215 l 347 1215 l 347 868 l 521 868 l 521 694 l 347 694 l 347 347 l 174 347 l 174 694 l 0 694 m 347 0 l 347 347 l 521 347 l 521 0 l 347 0 m 694 0 l 694 694 l 868 694 l 868 1042 l 694 1042 l 694 1215 l 1215 1215 l 1215 1042 l 1042 1042 l 1042 694 l 1215 694 l 1215 521 l 1042 521 l 1042 174 l 1215 174 l 1215 0 l 694 0 z "},"㍾":{"ha":1389,"x_min":0,"x_max":1215,"o":"m 0 0 l 0 174 l 174 174 l 174 0 l 0 0 m 0 521 l 0 1042 l 174 1042 l 174 1215 l 521 1215 l 521 0 l 347 0 l 347 174 l 174 174 l 174 521 l 0 521 m 694 0 l 694 521 l 868 521 l 868 694 l 694 694 l 694 868 l 868 868 l 868 1042 l 1042 1042 l 1042 694 l 1215 694 l 1215 521 l 868 521 l 868 347 l 1215 347 l 1215 0 l 694 0 m 694 1042 l 694 1215 l 868 1215 l 868 1042 l 694 1042 m 1042 1042 l 1042 1215 l 1215 1215 l 1215 1042 l 1042 1042 z "},"㎎":{"ha":1389,"x_min":0,"x_max":1215,"o":"m 0 0 l 0 868 l 347 868 l 347 694 l 521 694 l 521 0 l 347 0 l 347 174 l 174 174 l 174 0 l 0 0 m 694 0 l 694 174 l 1042 174 l 1042 0 l 694 0 m 694 521 l 694 694 l 868 694 l 868 521 l 694 521 m 868 347 l 868 521 l 1042 521 l 1042 694 l 868 694 l 868 868 l 1215 868 l 1215 174 l 1042 174 l 1042 347 l 868 347 z "},"㎏":{"ha":1389,"x_min":0,"x_max":1215,"o":"m 0 0 l 0 1215 l 174 1215 l 174 521 l 347 521 l 347 347 l 174 347 l 174 0 l 0 0 m 347 0 l 347 347 l 521 347 l 521 0 l 347 0 m 347 521 l 347 868 l 521 868 l 521 521 l 347 521 m 694 0 l 694 174 l 1042 174 l 1042 0 l 694 0 m 694 521 l 694 694 l 868 694 l 868 521 l 694 521 m 868 347 l 868 521 l 1042 521 l 1042 694 l 868 694 l 868 868 l 1215 868 l 1215 174 l 1042 174 l 1042 347 l 868 347 z "},"㎜":{"ha":1389,"x_min":0,"x_max":1215,"o":"m 0 0 l 0 868 l 347 868 l 347 694 l 521 694 l 521 0 l 347 0 l 347 174 l 174 174 l 174 0 l 0 0 m 694 0 l 694 868 l 1042 868 l 1042 694 l 1215 694 l 1215 0 l 1042 0 l 1042 174 l 868 174 l 868 0 l 694 0 z "},"㎝":{"ha":1389,"x_min":0,"x_max":1215,"o":"m 0 174 l 0 694 l 174 694 l 174 174 l 0 174 m 174 0 l 174 174 l 521 174 l 521 0 l 174 0 m 174 694 l 174 868 l 521 868 l 521 694 l 174 694 m 694 0 l 694 868 l 1042 868 l 1042 694 l 1215 694 l 1215 0 l 1042 0 l 1042 174 l 868 174 l 868 0 l 694 0 z "},"㎞":{"ha":1389,"x_min":0,"x_max":1215,"o":"m 0 0 l 0 1215 l 174 1215 l 174 521 l 347 521 l 347 347 l 174 347 l 174 0 l 0 0 m 347 0 l 347 347 l 521 347 l 521 0 l 347 0 m 347 521 l 347 868 l 521 868 l 521 521 l 347 521 m 694 0 l 694 868 l 1042 868 l 1042 694 l 1215 694 l 1215 0 l 1042 0 l 1042 174 l 868 174 l 868 0 l 694 0 z "},"㎡":{"ha":1389,"x_min":0,"x_max":1215,"o":"m 0 0 l 0 868 l 347 868 l 347 694 l 174 694 l 174 0 l 0 0 m 347 0 l 347 694 l 521 694 l 521 0 l 347 0 m 521 694 l 521 868 l 694 868 l 694 694 l 521 694 m 694 0 l 694 694 l 868 694 l 868 868 l 1042 868 l 1042 694 l 1215 694 l 1215 521 l 868 521 l 868 0 l 694 0 m 868 1042 l 868 1215 l 1215 1215 l 1215 868 l 1042 868 l 1042 1042 l 868 1042 z "},"㏄":{"ha":1389,"x_min":0,"x_max":1215,"o":"m 0 174 l 0 694 l 174 694 l 174 174 l 0 174 m 174 0 l 174 174 l 521 174 l 521 0 l 174 0 m 174 694 l 174 868 l 521 868 l 521 694 l 174 694 m 694 174 l 694 694 l 868 694 l 868 174 l 694 174 m 868 0 l 868 174 l 1215 174 l 1215 0 l 868 0 m 868 694 l 868 868 l 1215 868 l 1215 694 l 868 694 z "},"㏍":{"ha":1389,"x_min":0,"x_max":1215,"o":"m 0 0 l 0 1215 l 174 1215 l 174 868 l 347 868 l 347 521 l 174 521 l 174 0 l 0 0 m 347 0 l 347 521 l 521 521 l 521 0 l 347 0 m 347 868 l 347 1215 l 521 1215 l 521 868 l 347 868 m 694 0 l 694 1215 l 868 1215 l 868 868 l 1042 868 l 1042 521 l 868 521 l 868 0 l 694 0 m 1042 0 l 1042 521 l 1215 521 l 1215 0 l 1042 0 m 1042 868 l 1042 1215 l 1215 1215 l 1215 868 l 1042 868 z "},"一":{"ha":1389,"x_min":0,"x_max":1215,"o":"m 0 521 l 0 694 l 868 694 l 868 868 l 1042 868 l 1042 694 l 1215 694 l 1215 521 l 0 521 z "},"丁":{"ha":1389,"x_min":0,"x_max":1215,"o":"m 0 1042 l 0 1215 l 1215 1215 l 1215 1042 l 694 1042 l 694 0 l 347 0 l 347 174 l 521 174 l 521 1042 l 0 1042 z "},"七":{"ha":1389,"x_min":0,"x_max":1215,"o":"m 0 521 l 0 694 l 347 694 l 347 1215 l 521 1215 l 521 694 l 694 694 l 694 521 l 521 521 l 521 174 l 347 174 l 347 521 l 0 521 m 521 0 l 521 174 l 1042 174 l 1042 347 l 1215 347 l 1215 0 l 521 0 m 694 694 l 694 868 l 1215 868 l 1215 694 l 694 694 z "},"万":{"ha":1389,"x_min":0,"x_max":1215,"o":"m 0 0 l 0 174 l 174 174 l 174 0 l 0 0 m 0 1042 l 0 1215 l 1215 1215 l 1215 1042 l 521 1042 l 521 868 l 1042 868 l 1042 0 l 694 0 l 694 174 l 868 174 l 868 694 l 521 694 l 521 347 l 347 347 l 347 1042 l 0 1042 m 174 174 l 174 347 l 347 347 l 347 174 l 174 174 z "},"丈":{"ha":1389,"x_min":0,"x_max":1215,"o":"m 0 0 l 0 174 l 347 174 l 347 0 l 0 0 m 0 868 l 0 1042 l 521 1042 l 521 1215 l 694 1215 l 694 1042 l 1215 1042 l 1215 868 l 694 868 l 694 347 l 521 347 l 521 521 l 347 521 l 347 694 l 521 694 l 521 868 l 0 868 m 347 174 l 347 347 l 521 347 l 521 174 l 347 174 m 694 174 l 694 347 l 868 347 l 868 174 l 694 174 m 868 0 l 868 174 l 1215 174 l 1215 0 l 868 0 z "},"三":{"ha":1389,"x_min":0,"x_max":1215,"o":"m 0 0 l 0 174 l 1215 174 l 1215 0 l 0 0 m 174 868 l 174 1042 l 1042 1042 l 1042 868 l 174 868 m 347 521 l 347 694 l 868 694 l 868 521 l 347 521 z "},"上":{"ha":1389,"x_min":0,"x_max":1215,"o":"m 0 0 l 0 174 l 521 174 l 521 1215 l 694 1215 l 694 868 l 1042 868 l 1042 694 l 694 694 l 694 174 l 1215 174 l 1215 0 l 0 0 z "},"下":{"ha":1389,"x_min":0,"x_max":1215,"o":"m 0 1042 l 0 1215 l 1215 1215 l 1215 1042 l 694 1042 l 694 868 l 868 868 l 868 694 l 694 694 l 694 0 l 521 0 l 521 1042 l 0 1042 m 868 521 l 868 694 l 1042 694 l 1042 521 l 868 521 z "},"不":{"ha":1389,"x_min":0,"x_max":1215,"o":"m 0 347 l 0 521 l 347 521 l 347 347 l 0 347 m 0 1042 l 0 1215 l 1215 1215 l 1215 1042 l 694 1042 l 694 0 l 521 0 l 521 521 l 347 521 l 347 694 l 521 694 l 521 1042 l 0 1042 m 868 521 l 868 694 l 1042 694 l 1042 521 l 868 521 m 1042 347 l 1042 521 l 1215 521 l 1215 347 l 1042 347 z "},"与":{"ha":1389,"x_min":0,"x_max":1215,"o":"m 0 347 l 0 521 l 347 521 l 347 1215 l 521 1215 l 521 1042 l 1042 1042 l 1042 868 l 521 868 l 521 694 l 868 694 l 868 521 l 1215 521 l 1215 347 l 868 347 l 868 0 l 521 0 l 521 174 l 694 174 l 694 347 l 0 347 z "},"丐":{"ha":1389,"x_min":0,"x_max":1215,"o":"m 0 1042 l 0 1215 l 1215 1215 l 1215 1042 l 694 1042 l 694 868 l 1042 868 l 1042 694 l 694 694 l 694 521 l 1215 521 l 1215 0 l 868 0 l 868 174 l 1042 174 l 1042 347 l 174 347 l 174 868 l 347 868 l 347 521 l 521 521 l 521 1042 l 0 1042 z "},"丑":{"ha":1389,"x_min":0,"x_max":1215,"o":"m 0 0 l 0 174 l 347 174 l 347 521 l 0 521 l 0 694 l 521 694 l 521 1042 l 174 1042 l 174 1215 l 1042 1215 l 1042 694 l 1215 694 l 1215 521 l 1042 521 l 1042 174 l 1215 174 l 1215 0 l 0 0 m 521 174 l 868 174 l 868 521 l 521 521 l 521 174 m 694 694 l 868 694 l 868 1042 l 694 1042 l 694 694 z "},"且":{"ha":1389,"x_min":0,"x_max":1215,"o":"m 0 0 l 0 174 l 174 174 l 174 1215 l 1042 1215 l 1042 174 l 1215 174 l 1215 0 l 0 0 m 347 174 l 868 174 l 868 347 l 347 347 l 347 174 m 347 521 l 868 521 l 868 694 l 347 694 l 347 521 m 347 868 l 868 868 l 868 1042 l 347 1042 l 347 868 z "}}}
